{
.appVersion = "909";
DisplayStrings = (
"b f  f lflhnceaa/Placeholder aa"
);
copyright = "Copyright (c) 2011 by Vernon Adams. All rights reserved.";
customParameters = (
{
name = description;
value = "Copyright (c) 2011 by vernon adams. All rights reserved.";
},
{
name = license;
value = "SIL Open Font License, Version 1.1
\012This Font Software is licensed under the SIL Open Font License, Version 1.1.
\012This license is available with a FAQ at: http://scripts.sil.org/OFL";
},
{
name = licenseURL;
value = "http://scripts.sil.org/OFL";
},
{
name = vendorID;
value = newt;
}
);
date = "2016-07-18 14:51:28 +0000";
designer = "Vernon Adams";
familyName = Pacifico;
fontMaster = (
{
alignmentZones = (
"{930, 15}",
"{840, 15}",
"{460, 15}",
"{0, -15}",
"{-450, -15}"
);
ascender = 930;
capHeight = 840;
descender = -450;
id = "ECEFE970-1BBB-4E0A-A452-CEB55884B4A3";
weightValue = 400;
widthValue = 5;
xHeight = 460;
}
);
glyphs = (
{
glyphname = A;
lastChange = "2016-07-18 14:46:18 +0000";
layers = (
{
layerId = "ECEFE970-1BBB-4E0A-A452-CEB55884B4A3";
paths = (
{
closed = 1;
nodes = (
"876 197 OFFCURVE",
"856 186 OFFCURVE",
"833 173 CURVE SMOOTH",
"811 159 OFFCURVE",
"786 146 OFFCURVE",
"763 135 CURVE SMOOTH",
"741 124 OFFCURVE",
"720 116 OFFCURVE",
"707 116 CURVE SMOOTH",
"699 116 OFFCURVE",
"695 119 OFFCURVE",
"692 126 CURVE SMOOTH",
"690 134 OFFCURVE",
"689 147 OFFCURVE",
"689 168 CURVE SMOOTH",
"689 195 OFFCURVE",
"690 218 OFFCURVE",
"692 247 CURVE",
"697 264 OFFCURVE",
"703 283 OFFCURVE",
"710 306 CURVE SMOOTH",
"718 329 OFFCURVE",
"725 353 OFFCURVE",
"733 379 CURVE SMOOTH",
"748 430 OFFCURVE",
"764 486 OFFCURVE",
"776 540 CURVE SMOOTH",
"789 593 OFFCURVE",
"797 643 OFFCURVE",
"797 682 CURVE SMOOTH",
"797 732 OFFCURVE",
"790 760 OFFCURVE",
"778 775 CURVE SMOOTH",
"766 791 OFFCURVE",
"750 794 OFFCURVE",
"732 796 CURVE SMOOTH",
"715 797 OFFCURVE",
"696 798 OFFCURVE",
"679 808 CURVE",
"679 811 LINE SMOOTH",
"679 811 OFFCURVE",
"679 812 OFFCURVE",
"679 813 CURVE",
"679 815 OFFCURVE",
"679 816 OFFCURVE",
"679 818 CURVE SMOOTH",
"679 822 OFFCURVE",
"678 829 OFFCURVE",
"671 834 CURVE",
"665 840 OFFCURVE",
"651 844 OFFCURVE",
"629 844 CURVE SMOOTH",
"548 844 OFFCURVE",
"472 820 OFFCURVE",
"404 782 CURVE SMOOTH",
"335 743 OFFCURVE",
"275 688 OFFCURVE",
"224 626 CURVE SMOOTH",
"173 564 OFFCURVE",
"133 494 OFFCURVE",
"105 423 CURVE SMOOTH",
"78 353 OFFCURVE",
"63 283 OFFCURVE",
"63 220 CURVE SMOOTH",
"63 136 OFFCURVE",
"89 74 OFFCURVE",
"130 32 CURVE SMOOTH",
"172 -10 OFFCURVE",
"228 -31 OFFCURVE",
"289 -31 CURVE SMOOTH",
"344 -31 OFFCURVE",
"400 -11 OFFCURVE",
"452 27 CURVE SMOOTH",
"504 65 OFFCURVE",
"550 121 OFFCURVE",
"587 195 CURVE",
"582 164 OFFCURVE",
"578 138 OFFCURVE",
"578 115 CURVE SMOOTH",
"578 61 OFFCURVE",
"590 29 OFFCURVE",
"608 10 CURVE SMOOTH",
"625 -10 OFFCURVE",
"647 -16 OFFCURVE",
"668 -16 CURVE SMOOTH",
"698 -16 OFFCURVE",
"731 -7 OFFCURVE",
"763 7 CURVE SMOOTH",
"794 21 OFFCURVE",
"826 39 OFFCURVE",
"853 58 CURVE SMOOTH",
"879 76 OFFCURVE",
"900 95 OFFCURVE",
"914 109 CURVE",
"889 205 LINE"
);
},
{
closed = 1;
nodes = (
"575 335 OFFCURVE",
"560 294 OFFCURVE",
"537 251 CURVE SMOOTH",
"514 209 OFFCURVE",
"482 166 OFFCURVE",
"445 133 CURVE SMOOTH",
"408 100 OFFCURVE",
"365 78 OFFCURVE",
"316 78 CURVE SMOOTH",
"239 78 OFFCURVE",
"203 131 OFFCURVE",
"203 223 CURVE SMOOTH",
"203 269 OFFCURVE",
"215 325 OFFCURVE",
"237 384 CURVE SMOOTH",
"259 442 OFFCURVE",
"291 501 OFFCURVE",
"329 556 CURVE SMOOTH",
"367 610 OFFCURVE",
"411 659 OFFCURVE",
"459 694 CURVE SMOOTH",
"508 729 OFFCURVE",
"560 750 OFFCURVE",
"612 750 CURVE SMOOTH",
"635 750 OFFCURVE",
"660 747 OFFCURVE",
"683 741 CURVE",
"582 364 LINE"
);
}
);
width = 797;
}
);
note = A;
unicode = 0041;
},
{
glyphname = AE;
lastChange = "2016-07-18 14:46:18 +0000";
layers = (
{
layerId = "ECEFE970-1BBB-4E0A-A452-CEB55884B4A3";
paths = (
{
closed = 1;
nodes = (
"1203 205 OFFCURVE",
"1171 177 OFFCURVE",
"1130 152 CURVE SMOOTH",
"1089 126 OFFCURVE",
"1040 104 OFFCURVE",
"990 88 CURVE SMOOTH",
"939 72 OFFCURVE",
"887 63 OFFCURVE",
"841 63 CURVE SMOOTH",
"802 63 OFFCURVE",
"769 70 OFFCURVE",
"744 90 CURVE SMOOTH",
"720 110 OFFCURVE",
"705 142 OFFCURVE",
"705 190 CURVE SMOOTH",
"705 216 OFFCURVE",
"706 240 OFFCURVE",
"709 263 CURVE SMOOTH",
"715 308 OFFCURVE",
"723 342 OFFCURVE",
"734 375 CURVE",
"738 375 OFFCURVE",
"746 375 OFFCURVE",
"758 376 CURVE SMOOTH",
"783 378 OFFCURVE",
"817 380 OFFCURVE",
"854 383 CURVE SMOOTH",
"891 385 OFFCURVE",
"924 388 OFFCURVE",
"947 390 CURVE",
"958 390 OFFCURVE",
"966 391 OFFCURVE",
"969 391 CURVE SMOOTH",
"989 391 OFFCURVE",
"1004 397 OFFCURVE",
"1014 407 CURVE SMOOTH",
"1023 417 OFFCURVE",
"1028 430 OFFCURVE",
"1028 442 CURVE SMOOTH",
"1028 464 OFFCURVE",
"1014 484 OFFCURVE",
"984 484 CURVE SMOOTH",
"969 484 OFFCURVE",
"946 483 OFFCURVE",
"921 482 CURVE SMOOTH",
"896 480 OFFCURVE",
"869 479 OFFCURVE",
"844 477 CURVE SMOOTH",
"814 474 OFFCURVE",
"783 472 OFFCURVE",
"750 469 CURVE",
"750 484 OFFCURVE",
"754 519 OFFCURVE",
"766 559 CURVE SMOOTH",
"778 598 OFFCURVE",
"796 642 OFFCURVE",
"825 676 CURVE SMOOTH",
"853 710 OFFCURVE",
"891 734 OFFCURVE",
"940 734 CURVE SMOOTH",
"984 734 OFFCURVE",
"1035 722 OFFCURVE",
"1081 706 CURVE SMOOTH",
"1125 689 OFFCURVE",
"1166 668 OFFCURVE",
"1188 652 CURVE",
"1190 651 OFFCURVE",
"1193 650 OFFCURVE",
"1197 650 CURVE SMOOTH",
"1207 650 OFFCURVE",
"1218 659 OFFCURVE",
"1226 672 CURVE SMOOTH",
"1233 686 OFFCURVE",
"1238 702 OFFCURVE",
"1238 717 CURVE SMOOTH",
"1238 730 OFFCURVE",
"1234 743 OFFCURVE",
"1224 749 CURVE",
"1201 755 OFFCURVE",
"1178 763 OFFCURVE",
"1154 772 CURVE SMOOTH",
"1129 782 OFFCURVE",
"1105 791 OFFCURVE",
"1080 799 CURVE SMOOTH",
"1030 815 OFFCURVE",
"979 828 OFFCURVE",
"932 828 CURVE SMOOTH",
"897 828 OFFCURVE",
"863 821 OFFCURVE",
"832 803 CURVE SMOOTH",
"800 785 OFFCURVE",
"771 755 OFFCURVE",
"746 712 CURVE",
"747 717 OFFCURVE",
"748 721 OFFCURVE",
"748 726 CURVE SMOOTH",
"748 749 OFFCURVE",
"734 765 OFFCURVE",
"716 775 CURVE SMOOTH",
"697 786 OFFCURVE",
"673 790 OFFCURVE",
"652 790 CURVE SMOOTH",
"543 790 OFFCURVE",
"442 755 OFFCURVE",
"355 699 CURVE SMOOTH",
"268 643 OFFCURVE",
"194 566 OFFCURVE",
"143 482 CURVE SMOOTH",
"92 397 OFFCURVE",
"63 305 OFFCURVE",
"63 220 CURVE SMOOTH",
"63 136 OFFCURVE",
"89 74 OFFCURVE",
"130 32 CURVE SMOOTH",
"172 -10 OFFCURVE",
"228 -31 OFFCURVE",
"289 -31 CURVE SMOOTH",
"338 -31 OFFCURVE",
"396 -7 OFFCURVE",
"451 33 CURVE SMOOTH",
"506 72 OFFCURVE",
"557 127 OFFCURVE",
"594 188 CURVE",
"593 178 OFFCURVE",
"592 169 OFFCURVE",
"592 161 CURVE SMOOTH",
"592 92 OFFCURVE",
"621 40 OFFCURVE",
"667 5 CURVE SMOOTH",
"712 -30 OFFCURVE",
"775 -47 OFFCURVE",
"844 -47 CURVE SMOOTH",
"914 -47 OFFCURVE",
"989 -32 OFFCURVE",
"1062 -4 CURVE SMOOTH",
"1133 24 OFFCURVE",
"1201 66 OFFCURVE",
"1254 122 CURVE",
"1220 233 LINE"
);
},
{
closed = 1;
nodes = (
"601 410 OFFCURVE",
"582 360 OFFCURVE",
"554 307 CURVE SMOOTH",
"527 254 OFFCURVE",
"492 197 OFFCURVE",
"451 153 CURVE SMOOTH",
"411 109 OFFCURVE",
"365 78 OFFCURVE",
"316 78 CURVE SMOOTH",
"239 78 OFFCURVE",
"203 131 OFFCURVE",
"203 223 CURVE SMOOTH",
"203 306 OFFCURVE",
"234 387 OFFCURVE",
"283 457 CURVE SMOOTH",
"331 527 OFFCURVE",
"397 586 OFFCURVE",
"469 629 CURVE SMOOTH",
"540 672 OFFCURVE",
"616 696 OFFCURVE",
"684 696 CURVE",
"609 438 LINE SMOOTH"
);
}
);
width = 1125;
}
);
note = AE;
unicode = 00C6;
},
{
glyphname = B;
lastChange = "2016-07-18 14:46:18 +0000";
layers = (
{
layerId = "ECEFE970-1BBB-4E0A-A452-CEB55884B4A3";
paths = (
{
closed = 1;
nodes = (
"50 677 OFFCURVE",
"92 699 OFFCURVE",
"144 713 CURVE SMOOTH",
"196 727 OFFCURVE",
"257 733 OFFCURVE",
"319 733 CURVE SMOOTH",
"368 733 OFFCURVE",
"417 729 OFFCURVE",
"459 721 CURVE SMOOTH",
"502 712 OFFCURVE",
"540 699 OFFCURVE",
"567 682 CURVE SMOOTH",
"594 664 OFFCURVE",
"609 642 OFFCURVE",
"609 616 CURVE SMOOTH",
"609 577 OFFCURVE",
"589 541 OFFCURVE",
"554 515 CURVE SMOOTH",
"519 489 OFFCURVE",
"467 472 OFFCURVE",
"405 472 CURVE SMOOTH",
"392 472 OFFCURVE",
"379 473 OFFCURVE",
"368 474 CURVE",
"356 475 OFFCURVE",
"343 476 OFFCURVE",
"329 476 CURVE SMOOTH",
"308 476 OFFCURVE",
"297 472 OFFCURVE",
"291 466 CURVE",
"285 459 OFFCURVE",
"284 449 OFFCURVE",
"284 436 CURVE SMOOTH",
"284 407 OFFCURVE",
"299 390 OFFCURVE",
"323 378 CURVE SMOOTH",
"346 366 OFFCURVE",
"376 359 OFFCURVE",
"408 352 CURVE SMOOTH",
"438 343 OFFCURVE",
"469 334 OFFCURVE",
"493 317 CURVE SMOOTH",
"516 300 OFFCURVE",
"531 276 OFFCURVE",
"531 239 CURVE SMOOTH",
"531 174 OFFCURVE",
"505 130 OFFCURVE",
"464 101 CURVE SMOOTH",
"424 72 OFFCURVE",
"370 59 OFFCURVE",
"314 59 CURVE SMOOTH",
"269 59 OFFCURVE",
"222 69 OFFCURVE",
"182 83 CURVE",
"177 86 OFFCURVE",
"175 95 OFFCURVE",
"173 105 CURVE SMOOTH",
"172 115 OFFCURVE",
"172 125 OFFCURVE",
"172 130 CURVE SMOOTH",
"172 163 OFFCURVE",
"173 199 OFFCURVE",
"175 234 CURVE SMOOTH",
"177 270 OFFCURVE",
"179 305 OFFCURVE",
"182 336 CURVE SMOOTH",
"188 390 OFFCURVE",
"196 448 OFFCURVE",
"210 502 CURVE SMOOTH",
"224 557 OFFCURVE",
"245 607 OFFCURVE",
"275 647 CURVE",
"259 674 OFFCURVE",
"239 688 OFFCURVE",
"215 688 CURVE SMOOTH",
"196 688 OFFCURVE",
"175 680 OFFCURVE",
"152 664 CURVE",
"100 586 OFFCURVE",
"69 485 OFFCURVE",
"52 377 CURVE SMOOTH",
"35 270 OFFCURVE",
"31 153 OFFCURVE",
"31 45 CURVE SMOOTH",
"31 22 OFFCURVE",
"48 15 OFFCURVE",
"66 11 CURVE",
"107 -4 OFFCURVE",
"154 -18 OFFCURVE",
"202 -27 CURVE SMOOTH",
"250 -37 OFFCURVE",
"297 -42 OFFCURVE",
"340 -42 CURVE SMOOTH",
"407 -42 OFFCURVE",
"463 -27 OFFCURVE",
"508 -1 CURVE SMOOTH",
"552 24 OFFCURVE",
"585 59 OFFCURVE",
"607 98 CURVE SMOOTH",
"629 137 OFFCURVE",
"641 181 OFFCURVE",
"641 222 CURVE SMOOTH",
"641 272 OFFCURVE",
"625 319 OFFCURVE",
"592 354 CURVE SMOOTH",
"559 389 OFFCURVE",
"511 411 OFFCURVE",
"447 411 CURVE",
"548 413 OFFCURVE",
"620 440 OFFCURVE",
"667 480 CURVE SMOOTH",
"713 519 OFFCURVE",
"734 570 OFFCURVE",
"734 620 CURVE SMOOTH",
"734 663 OFFCURVE",
"708 702 OFFCURVE",
"664 736 CURVE SMOOTH",
"620 769 OFFCURVE",
"559 797 OFFCURVE",
"491 817 CURVE SMOOTH",
"422 836 OFFCURVE",
"347 848 OFFCURVE",
"273 848 CURVE SMOOTH",
"210 848 OFFCURVE",
"149 839 OFFCURVE",
"96 822 CURVE SMOOTH",
"42 804 OFFCURVE",
"-4 776 OFFCURVE",
"-37 737 CURVE SMOOTH",
"-70 698 OFFCURVE",
"-89 647 OFFCURVE",
"-89 583 CURVE SMOOTH",
"-89 551 OFFCURVE",
"-82 534 OFFCURVE",
"-68 534 CURVE SMOOTH",
"-58 534 OFFCURVE",
"-44 544 OFFCURVE",
"-27 563 CURVE SMOOTH",
"-11 582 OFFCURVE",
"8 611 OFFCURVE",
"29 649 CURVE"
);
}
);
width = 631;
}
);
note = B;
unicode = 0042;
},
{
glyphname = C;
lastChange = "2016-07-18 14:46:18 +0000";
layers = (
{
layerId = "ECEFE970-1BBB-4E0A-A452-CEB55884B4A3";
paths = (
{
closed = 1;
nodes = (
"804 248 OFFCURVE",
"752 214 OFFCURVE",
"702 179 CURVE SMOOTH",
"651 143 OFFCURVE",
"602 106 OFFCURVE",
"548 78 CURVE SMOOTH",
"494 50 OFFCURVE",
"435 31 OFFCURVE",
"366 31 CURVE SMOOTH",
"311 31 OFFCURVE",
"266 47 OFFCURVE",
"235 81 CURVE SMOOTH",
"205 114 OFFCURVE",
"188 164 OFFCURVE",
"188 230 CURVE SMOOTH",
"188 277 OFFCURVE",
"197 334 OFFCURVE",
"215 394 CURVE SMOOTH",
"232 453 OFFCURVE",
"258 514 OFFCURVE",
"289 569 CURVE SMOOTH",
"320 624 OFFCURVE",
"357 673 OFFCURVE",
"398 708 CURVE SMOOTH",
"439 744 OFFCURVE",
"484 766 OFFCURVE",
"531 766 CURVE SMOOTH",
"571 766 OFFCURVE",
"598 752 OFFCURVE",
"616 733 CURVE SMOOTH",
"633 713 OFFCURVE",
"641 686 OFFCURVE",
"641 656 CURVE SMOOTH",
"641 601 OFFCURVE",
"617 554 OFFCURVE",
"583 521 CURVE SMOOTH",
"548 488 OFFCURVE",
"503 469 OFFCURVE",
"461 469 CURVE SMOOTH",
"454 469 OFFCURVE",
"447 469 OFFCURVE",
"442 471 CURVE",
"432 473 OFFCURVE",
"425 476 OFFCURVE",
"419 478 CURVE",
"417 479 OFFCURVE",
"413 479 OFFCURVE",
"409 479 CURVE SMOOTH",
"396 479 OFFCURVE",
"389 472 OFFCURVE",
"385 462 CURVE SMOOTH",
"381 452 OFFCURVE",
"380 438 OFFCURVE",
"380 426 CURVE SMOOTH",
"380 422 OFFCURVE",
"380 418 OFFCURVE",
"381 415 CURVE",
"381 412 OFFCURVE",
"381 408 OFFCURVE",
"381 406 CURVE SMOOTH",
"381 376 OFFCURVE",
"410 359 OFFCURVE",
"469 359 CURVE SMOOTH",
"514 359 OFFCURVE",
"560 377 OFFCURVE",
"602 407 CURVE SMOOTH",
"643 436 OFFCURVE",
"680 477 OFFCURVE",
"707 522 CURVE SMOOTH",
"734 567 OFFCURVE",
"750 617 OFFCURVE",
"750 666 CURVE SMOOTH",
"750 737 OFFCURVE",
"723 790 OFFCURVE",
"685 824 CURVE SMOOTH",
"646 859 OFFCURVE",
"595 875 OFFCURVE",
"548 875 CURVE SMOOTH",
"476 875 OFFCURVE",
"409 850 OFFCURVE",
"348 809 CURVE SMOOTH",
"288 768 OFFCURVE",
"234 710 OFFCURVE",
"189 646 CURVE SMOOTH",
"145 581 OFFCURVE",
"109 508 OFFCURVE",
"85 437 CURVE SMOOTH",
"61 366 OFFCURVE",
"47 295 OFFCURVE",
"47 235 CURVE SMOOTH",
"47 147 OFFCURVE",
"75 65 OFFCURVE",
"125 5 CURVE SMOOTH",
"175 -56 OFFCURVE",
"247 -94 OFFCURVE",
"334 -94 CURVE SMOOTH",
"374 -94 OFFCURVE",
"411 -91 OFFCURVE",
"443 -85 CURVE SMOOTH",
"509 -73 OFFCURVE",
"563 -53 OFFCURVE",
"607 -26 CURVE SMOOTH",
"652 0 OFFCURVE",
"690 29 OFFCURVE",
"723 59 CURVE SMOOTH",
"739 74 OFFCURVE",
"755 88 OFFCURVE",
"771 101 CURVE SMOOTH",
"801 128 OFFCURVE",
"831 151 OFFCURVE",
"862 165 CURVE",
"862 270 LINE"
);
}
);
width = 703;
}
);
note = C;
unicode = 0043;
},
{
glyphname = D;
lastChange = "2016-07-18 14:46:18 +0000";
layers = (
{
layerId = "ECEFE970-1BBB-4E0A-A452-CEB55884B4A3";
paths = (
{
closed = 1;
nodes = (
"211 848 OFFCURVE",
"155 839 OFFCURVE",
"107 822 CURVE SMOOTH",
"58 804 OFFCURVE",
"17 776 OFFCURVE",
"-13 737 CURVE SMOOTH",
"-42 698 OFFCURVE",
"-60 647 OFFCURVE",
"-60 583 CURVE SMOOTH",
"-60 551 OFFCURVE",
"-53 534 OFFCURVE",
"-39 534 CURVE SMOOTH",
"-28 534 OFFCURVE",
"-15 544 OFFCURVE",
"0 564 CURVE SMOOTH",
"15 584 OFFCURVE",
"35 613 OFFCURVE",
"59 649 CURVE",
"76 679 OFFCURVE",
"113 700 OFFCURVE",
"159 713 CURVE SMOOTH",
"205 727 OFFCURVE",
"260 733 OFFCURVE",
"314 733 CURVE SMOOTH",
"389 733 OFFCURVE",
"453 711 OFFCURVE",
"498 670 CURVE SMOOTH",
"542 628 OFFCURVE",
"568 568 OFFCURVE",
"568 493 CURVE SMOOTH",
"568 432 OFFCURVE",
"553 364 OFFCURVE",
"525 300 CURVE SMOOTH",
"498 236 OFFCURVE",
"458 177 OFFCURVE",
"408 134 CURVE SMOOTH",
"359 90 OFFCURVE",
"299 63 OFFCURVE",
"234 63 CURVE SMOOTH",
"213 63 OFFCURVE",
"201 66 OFFCURVE",
"195 76 CURVE",
"188 86 OFFCURVE",
"188 102 OFFCURVE",
"188 126 CURVE SMOOTH",
"188 149 OFFCURVE",
"189 171 OFFCURVE",
"193 203 CURVE SMOOTH",
"196 235 OFFCURVE",
"202 276 OFFCURVE",
"211 336 CURVE SMOOTH",
"219 390 OFFCURVE",
"228 448 OFFCURVE",
"241 502 CURVE SMOOTH",
"255 557 OFFCURVE",
"274 607 OFFCURVE",
"304 647 CURVE",
"288 674 OFFCURVE",
"269 688 OFFCURVE",
"245 688 CURVE SMOOTH",
"226 688 OFFCURVE",
"205 680 OFFCURVE",
"182 664 CURVE",
"129 586 OFFCURVE",
"99 485 OFFCURVE",
"82 377 CURVE SMOOTH",
"64 270 OFFCURVE",
"61 153 OFFCURVE",
"61 45 CURVE SMOOTH",
"61 34 OFFCURVE",
"61 28 OFFCURVE",
"63 23 CURVE SMOOTH",
"66 18 OFFCURVE",
"71 14 OFFCURVE",
"79 12 CURVE",
"99 1 OFFCURVE",
"127 -9 OFFCURVE",
"157 -17 CURVE SMOOTH",
"187 -24 OFFCURVE",
"219 -29 OFFCURVE",
"250 -29 CURVE SMOOTH",
"340 -29 OFFCURVE",
"419 2 OFFCURVE",
"484 54 CURVE SMOOTH",
"549 105 OFFCURVE",
"600 176 OFFCURVE",
"634 255 CURVE SMOOTH",
"669 333 OFFCURVE",
"688 420 OFFCURVE",
"688 502 CURVE SMOOTH",
"688 562 OFFCURVE",
"676 620 OFFCURVE",
"649 671 CURVE SMOOTH",
"623 722 OFFCURVE",
"581 767 OFFCURVE",
"519 798 CURVE SMOOTH",
"456 829 OFFCURVE",
"374 848 OFFCURVE",
"268 848 CURVE SMOOTH"
);
}
);
width = 621;
}
);
note = D;
unicode = 0044;
},
{
glyphname = Eth;
lastChange = "2016-07-18 14:46:18 +0000";
layers = (
{
layerId = "ECEFE970-1BBB-4E0A-A452-CEB55884B4A3";
paths = (
{
closed = 1;
nodes = (
"42 484 OFFCURVE",
"30 476 OFFCURVE",
"23 465 CURVE SMOOTH",
"16 455 OFFCURVE",
"16 442 OFFCURVE",
"16 435 CURVE SMOOTH",
"16 425 OFFCURVE",
"18 415 OFFCURVE",
"24 406 CURVE",
"30 397 OFFCURVE",
"41 391 OFFCURVE",
"58 391 CURVE SMOOTH",
"85 391 LINE",
"73 330 OFFCURVE",
"63 269 OFFCURVE",
"57 210 CURVE SMOOTH",
"50 152 OFFCURVE",
"47 96 OFFCURVE",
"47 45 CURVE SMOOTH",
"47 34 OFFCURVE",
"51 28 OFFCURVE",
"57 23 CURVE SMOOTH",
"63 18 OFFCURVE",
"71 14 OFFCURVE",
"79 12 CURVE",
"99 1 OFFCURVE",
"127 -9 OFFCURVE",
"157 -17 CURVE SMOOTH",
"187 -24 OFFCURVE",
"219 -29 OFFCURVE",
"250 -29 CURVE SMOOTH",
"340 -29 OFFCURVE",
"419 2 OFFCURVE",
"484 54 CURVE SMOOTH",
"549 105 OFFCURVE",
"600 176 OFFCURVE",
"634 255 CURVE SMOOTH",
"669 333 OFFCURVE",
"688 420 OFFCURVE",
"688 502 CURVE SMOOTH",
"688 562 OFFCURVE",
"678 620 OFFCURVE",
"657 670 CURVE SMOOTH",
"637 721 OFFCURVE",
"605 764 OFFCURVE",
"562 795 CURVE SMOOTH",
"519 826 OFFCURVE",
"464 844 OFFCURVE",
"396 844 CURVE SMOOTH",
"376 844 OFFCURVE",
"359 842 OFFCURVE",
"346 840 CURVE",
"339 838 OFFCURVE",
"332 837 OFFCURVE",
"326 836 CURVE",
"277 825 OFFCURVE",
"235 782 OFFCURVE",
"198 719 CURVE SMOOTH",
"162 656 OFFCURVE",
"131 574 OFFCURVE",
"107 484 CURVE",
"67 484 LINE SMOOTH"
);
},
{
closed = 1;
nodes = (
"213 63 OFFCURVE",
"201 66 OFFCURVE",
"195 76 CURVE",
"188 86 OFFCURVE",
"188 102 OFFCURVE",
"188 126 CURVE SMOOTH",
"188 147 OFFCURVE",
"190 186 OFFCURVE",
"195 232 CURVE SMOOTH",
"201 279 OFFCURVE",
"208 334 OFFCURVE",
"220 391 CURVE",
"339 391 LINE SMOOTH",
"368 391 OFFCURVE",
"384 399 OFFCURVE",
"394 412 CURVE SMOOTH",
"404 423 OFFCURVE",
"407 439 OFFCURVE",
"407 452 CURVE SMOOTH",
"407 465 OFFCURVE",
"400 474 OFFCURVE",
"392 479 CURVE SMOOTH",
"383 483 OFFCURVE",
"373 484 OFFCURVE",
"364 484 CURVE SMOOTH",
"241 484 LINE",
"259 551 OFFCURVE",
"281 613 OFFCURVE",
"309 659 CURVE SMOOTH",
"336 705 OFFCURVE",
"370 734 OFFCURVE",
"410 734 CURVE SMOOTH",
"453 734 OFFCURVE",
"495 715 OFFCURVE",
"526 678 CURVE SMOOTH",
"558 642 OFFCURVE",
"578 588 OFFCURVE",
"578 522 CURVE SMOOTH",
"578 457 OFFCURVE",
"563 385 OFFCURVE",
"534 317 CURVE SMOOTH",
"505 249 OFFCURVE",
"464 185 OFFCURVE",
"413 139 CURVE SMOOTH",
"362 92 OFFCURVE",
"301 63 OFFCURVE",
"234 63 CURVE SMOOTH"
);
}
);
width = 621;
}
);
note = Eth;
unicode = 00D0;
},
{
glyphname = E;
lastChange = "2016-07-18 14:46:18 +0000";
layers = (
{
layerId = "ECEFE970-1BBB-4E0A-A452-CEB55884B4A3";
paths = (
{
closed = 1;
nodes = (
"670 205 OFFCURVE",
"638 177 OFFCURVE",
"597 152 CURVE SMOOTH",
"556 126 OFFCURVE",
"507 104 OFFCURVE",
"457 88 CURVE SMOOTH",
"406 72 OFFCURVE",
"354 63 OFFCURVE",
"308 63 CURVE SMOOTH",
"270 63 OFFCURVE",
"236 70 OFFCURVE",
"211 90 CURVE SMOOTH",
"187 110 OFFCURVE",
"172 142 OFFCURVE",
"172 190 CURVE SMOOTH",
"172 242 OFFCURVE",
"199 281 OFFCURVE",
"238 307 CURVE SMOOTH",
"278 333 OFFCURVE",
"330 347 OFFCURVE",
"382 347 CURVE SMOOTH",
"394 347 OFFCURVE",
"406 346 OFFCURVE",
"418 345 CURVE SMOOTH",
"431 344 OFFCURVE",
"441 344 OFFCURVE",
"450 344 CURVE SMOOTH",
"489 344 OFFCURVE",
"500 359 OFFCURVE",
"500 396 CURVE SMOOTH",
"500 409 OFFCURVE",
"499 423 OFFCURVE",
"497 437 CURVE",
"495 448 OFFCURVE",
"489 457 OFFCURVE",
"481 464 CURVE SMOOTH",
"465 478 OFFCURVE",
"440 488 OFFCURVE",
"412 496 CURVE SMOOTH",
"398 500 OFFCURVE",
"383 503 OFFCURVE",
"369 508 CURVE SMOOTH",
"339 516 OFFCURVE",
"311 526 OFFCURVE",
"290 543 CURVE SMOOTH",
"269 560 OFFCURVE",
"255 583 OFFCURVE",
"255 618 CURVE SMOOTH",
"255 661 OFFCURVE",
"274 690 OFFCURVE",
"305 708 CURVE SMOOTH",
"335 726 OFFCURVE",
"376 733 OFFCURVE",
"419 733 CURVE SMOOTH",
"466 733 OFFCURVE",
"516 725 OFFCURVE",
"559 713 CURVE SMOOTH",
"602 701 OFFCURVE",
"637 686 OFFCURVE",
"655 672 CURVE",
"639 621 OFFCURVE",
"632 588 OFFCURVE",
"632 567 CURVE SMOOTH",
"632 555 OFFCURVE",
"636 549 OFFCURVE",
"643 549 CURVE SMOOTH",
"659 549 OFFCURVE",
"686 561 OFFCURVE",
"708 579 CURVE SMOOTH",
"730 596 OFFCURVE",
"749 620 OFFCURVE",
"749 644 CURVE SMOOTH",
"749 710 OFFCURVE",
"711 760 OFFCURVE",
"654 793 CURVE SMOOTH",
"598 826 OFFCURVE",
"521 843 OFFCURVE",
"445 843 CURVE SMOOTH",
"393 843 OFFCURVE",
"340 834 OFFCURVE",
"293 819 CURVE SMOOTH",
"246 803 OFFCURVE",
"204 779 OFFCURVE",
"175 747 CURVE SMOOTH",
"145 714 OFFCURVE",
"127 674 OFFCURVE",
"127 625 CURVE SMOOTH",
"127 573 OFFCURVE",
"145 525 OFFCURVE",
"180 490 CURVE SMOOTH",
"215 455 OFFCURVE",
"268 433 OFFCURVE",
"340 433 CURVE",
"231 431 OFFCURVE",
"154 400 OFFCURVE",
"104 353 CURVE SMOOTH",
"55 306 OFFCURVE",
"31 244 OFFCURVE",
"31 178 CURVE SMOOTH",
"31 100 OFFCURVE",
"63 44 OFFCURVE",
"114 8 CURVE SMOOTH",
"165 -29 OFFCURVE",
"234 -47 OFFCURVE",
"311 -47 CURVE SMOOTH",
"381 -47 OFFCURVE",
"457 -32 OFFCURVE",
"529 -4 CURVE SMOOTH",
"601 24 OFFCURVE",
"668 66 OFFCURVE",
"721 122 CURVE",
"688 233 LINE"
);
}
);
width = 609;
}
);
note = E;
unicode = 0045;
},
{
glyphname = F;
lastChange = "2016-07-18 14:46:18 +0000";
layers = (
{
layerId = "ECEFE970-1BBB-4E0A-A452-CEB55884B4A3";
paths = (
{
closed = 1;
nodes = (
"319 619 OFFCURVE",
"332 647 OFFCURVE",
"359 673 CURVE SMOOTH",
"387 699 OFFCURVE",
"428 723 OFFCURVE",
"485 739 CURVE",
"477 698 OFFCURVE",
"472 663 OFFCURVE",
"465 621 CURVE SMOOTH",
"459 579 OFFCURVE",
"451 530 OFFCURVE",
"435 460 CURVE",
"421 458 OFFCURVE",
"406 455 OFFCURVE",
"385 451 CURVE SMOOTH",
"363 446 OFFCURVE",
"337 440 OFFCURVE",
"300 433 CURVE",
"287 428 OFFCURVE",
"281 417 OFFCURVE",
"281 406 CURVE SMOOTH",
"281 391 OFFCURVE",
"293 380 OFFCURVE",
"308 375 CURVE SMOOTH",
"323 368 OFFCURVE",
"341 366 OFFCURVE",
"352 366 CURVE SMOOTH",
"412 366 LINE",
"402 314 OFFCURVE",
"389 262 OFFCURVE",
"375 215 CURVE SMOOTH",
"361 167 OFFCURVE",
"344 126 OFFCURVE",
"327 96 CURVE SMOOTH",
"309 65 OFFCURVE",
"288 47 OFFCURVE",
"267 47 CURVE SMOOTH",
"239 47 OFFCURVE",
"212 56 OFFCURVE",
"187 64 CURVE SMOOTH",
"162 73 OFFCURVE",
"138 82 OFFCURVE",
"116 82 CURVE SMOOTH",
"97 82 OFFCURVE",
"84 69 OFFCURVE",
"76 54 CURVE SMOOTH",
"67 39 OFFCURVE",
"63 21 OFFCURVE",
"63 11 CURVE SMOOTH",
"63 -8 OFFCURVE",
"75 -22 OFFCURVE",
"92 -33 CURVE SMOOTH",
"110 -44 OFFCURVE",
"133 -52 OFFCURVE",
"156 -56 CURVE SMOOTH",
"179 -61 OFFCURVE",
"201 -63 OFFCURVE",
"216 -63 CURVE SMOOTH",
"288 -63 OFFCURVE",
"342 -41 OFFCURVE",
"384 -4 CURVE SMOOTH",
"427 33 OFFCURVE",
"457 86 OFFCURVE",
"479 150 CURVE SMOOTH",
"501 213 OFFCURVE",
"515 287 OFFCURVE",
"527 366 CURVE",
"535 366 OFFCURVE",
"548 366 OFFCURVE",
"565 367 CURVE SMOOTH",
"598 368 OFFCURVE",
"640 369 OFFCURVE",
"684 371 CURVE SMOOTH",
"706 371 OFFCURVE",
"726 372 OFFCURVE",
"744 373 CURVE SMOOTH",
"762 373 OFFCURVE",
"777 374 OFFCURVE",
"790 375 CURVE SMOOTH",
"803 375 OFFCURVE",
"810 375 OFFCURVE",
"813 375 CURVE SMOOTH",
"827 375 OFFCURVE",
"844 391 OFFCURVE",
"844 422 CURVE SMOOTH",
"844 432 OFFCURVE",
"844 443 OFFCURVE",
"840 453 CURVE SMOOTH",
"836 462 OFFCURVE",
"828 469 OFFCURVE",
"813 469 CURVE SMOOTH",
"542 469 LINE",
"549 547 OFFCURVE",
"556 603 OFFCURVE",
"561 643 CURVE SMOOTH",
"566 683 OFFCURVE",
"570 707 OFFCURVE",
"572 723 CURVE SMOOTH",
"575 739 OFFCURVE",
"576 747 OFFCURVE",
"576 754 CURVE",
"590 756 OFFCURVE",
"604 757 OFFCURVE",
"617 759 CURVE SMOOTH",
"640 761 OFFCURVE",
"666 764 OFFCURVE",
"684 764 CURVE SMOOTH",
"743 764 OFFCURVE",
"801 762 OFFCURVE",
"855 759 CURVE SMOOTH",
"909 755 OFFCURVE",
"959 750 OFFCURVE",
"1001 742 CURVE SMOOTH",
"1005 742 OFFCURVE",
"1008 741 OFFCURVE",
"1010 741 CURVE SMOOTH",
"1026 741 OFFCURVE",
"1039 750 OFFCURVE",
"1046 761 CURVE SMOOTH",
"1053 773 OFFCURVE",
"1057 788 OFFCURVE",
"1057 800 CURVE SMOOTH",
"1057 819 OFFCURVE",
"1046 837 OFFCURVE",
"1013 846 CURVE",
"897 862 OFFCURVE",
"789 868 OFFCURVE",
"689 868 CURVE SMOOTH",
"541 868 OFFCURVE",
"415 848 OFFCURVE",
"327 804 CURVE SMOOTH",
"238 759 OFFCURVE",
"187 691 OFFCURVE",
"187 594 CURVE SMOOTH",
"187 589 OFFCURVE",
"188 584 OFFCURVE",
"189 580 CURVE",
"191 570 OFFCURVE",
"200 562 OFFCURVE",
"222 558 CURVE",
"232 556 OFFCURVE",
"247 555 OFFCURVE",
"266 555 CURVE SMOOTH",
"280 555 OFFCURVE",
"291 557 OFFCURVE",
"298 560 CURVE SMOOTH",
"313 567 OFFCURVE",
"318 577 OFFCURVE",
"319 585 CURVE",
"319 589 OFFCURVE",
"319 591 OFFCURVE",
"319 592 CURVE SMOOTH"
);
}
);
width = 672;
}
);
note = F;
unicode = 0046;
},
{
glyphname = G;
lastChange = "2016-07-18 14:46:18 +0000";
layers = (
{
layerId = "ECEFE970-1BBB-4E0A-A452-CEB55884B4A3";
paths = (
{
closed = 1;
nodes = (
"750 213 OFFCURVE",
"743 250 OFFCURVE",
"720 276 CURVE SMOOTH",
"696 301 OFFCURVE",
"657 314 OFFCURVE",
"594 314 CURVE SMOOTH",
"567 314 OFFCURVE",
"547 308 OFFCURVE",
"534 298 CURVE SMOOTH",
"521 288 OFFCURVE",
"515 275 OFFCURVE",
"515 261 CURVE SMOOTH",
"515 248 OFFCURVE",
"521 233 OFFCURVE",
"535 223 CURVE SMOOTH",
"548 212 OFFCURVE",
"566 205 OFFCURVE",
"591 205 CURVE SMOOTH",
"604 205 OFFCURVE",
"617 205 OFFCURVE",
"626 199 CURVE",
"635 193 OFFCURVE",
"640 183 OFFCURVE",
"640 163 CURVE SMOOTH",
"640 148 OFFCURVE",
"636 130 OFFCURVE",
"630 110 CURVE",
"554 60 OFFCURVE",
"469 31 OFFCURVE",
"366 31 CURVE SMOOTH",
"311 31 OFFCURVE",
"266 47 OFFCURVE",
"235 81 CURVE SMOOTH",
"205 114 OFFCURVE",
"188 164 OFFCURVE",
"188 230 CURVE SMOOTH",
"188 338 OFFCURVE",
"211 432 OFFCURVE",
"250 509 CURVE SMOOTH",
"289 587 OFFCURVE",
"340 647 OFFCURVE",
"396 689 CURVE SMOOTH",
"453 730 OFFCURVE",
"513 752 OFFCURVE",
"565 752 CURVE SMOOTH",
"608 752 OFFCURVE",
"641 720 OFFCURVE",
"641 655 CURVE SMOOTH",
"641 641 OFFCURVE",
"636 628 OFFCURVE",
"632 617 CURVE",
"627 605 OFFCURVE",
"623 593 OFFCURVE",
"623 581 CURVE SMOOTH",
"623 565 OFFCURVE",
"628 550 OFFCURVE",
"636 539 CURVE SMOOTH",
"645 527 OFFCURVE",
"657 519 OFFCURVE",
"670 519 CURVE SMOOTH",
"688 519 OFFCURVE",
"708 530 OFFCURVE",
"729 561 CURVE",
"744 588 OFFCURVE",
"750 615 OFFCURVE",
"750 643 CURVE SMOOTH",
"750 713 OFFCURVE",
"730 763 OFFCURVE",
"697 796 CURVE SMOOTH",
"664 830 OFFCURVE",
"619 845 OFFCURVE",
"566 845 CURVE SMOOTH",
"482 845 OFFCURVE",
"396 815 OFFCURVE",
"319 764 CURVE SMOOTH",
"242 712 OFFCURVE",
"174 637 OFFCURVE",
"125 547 CURVE SMOOTH",
"76 457 OFFCURVE",
"47 351 OFFCURVE",
"47 235 CURVE SMOOTH",
"47 147 OFFCURVE",
"75 65 OFFCURVE",
"125 5 CURVE SMOOTH",
"175 -56 OFFCURVE",
"247 -94 OFFCURVE",
"334 -94 CURVE SMOOTH",
"410 -94 OFFCURVE",
"466 -82 OFFCURVE",
"511 -62 CURVE SMOOTH",
"555 -43 OFFCURVE",
"588 -17 OFFCURVE",
"620 12 CURVE",
"604 -50 OFFCURVE",
"583 -115 OFFCURVE",
"556 -166 CURVE SMOOTH",
"530 -216 OFFCURVE",
"500 -250 OFFCURVE",
"469 -250 CURVE SMOOTH",
"441 -250 OFFCURVE",
"418 -241 OFFCURVE",
"397 -232 CURVE SMOOTH",
"375 -224 OFFCURVE",
"356 -215 OFFCURVE",
"334 -215 CURVE SMOOTH",
"315 -215 OFFCURVE",
"303 -228 OFFCURVE",
"294 -243 CURVE SMOOTH",
"285 -258 OFFCURVE",
"281 -276 OFFCURVE",
"281 -286 CURVE SMOOTH",
"281 -305 OFFCURVE",
"293 -319 OFFCURVE",
"311 -330 CURVE SMOOTH",
"328 -341 OFFCURVE",
"352 -349 OFFCURVE",
"375 -353 CURVE SMOOTH",
"397 -357 OFFCURVE",
"419 -359 OFFCURVE",
"434 -359 CURVE SMOOTH",
"515 -359 OFFCURVE",
"577 -326 OFFCURVE",
"624 -273 CURVE SMOOTH",
"671 -221 OFFCURVE",
"703 -149 OFFCURVE",
"722 -71 CURVE SMOOTH",
"742 7 OFFCURVE",
"750 91 OFFCURVE",
"750 167 CURVE SMOOTH"
);
}
);
width = 750;
}
);
note = G;
unicode = 0047;
},
{
glyphname = H;
lastChange = "2016-07-18 14:46:18 +0000";
layers = (
{
layerId = "ECEFE970-1BBB-4E0A-A452-CEB55884B4A3";
paths = (
{
closed = 1;
nodes = (
"889 367 OFFCURVE",
"900 368 OFFCURVE",
"912 369 CURVE SMOOTH",
"923 370 OFFCURVE",
"934 371 OFFCURVE",
"946 373 CURVE SMOOTH",
"956 374 OFFCURVE",
"963 374 OFFCURVE",
"968 375 CURVE SMOOTH",
"973 375 OFFCURVE",
"977 375 OFFCURVE",
"979 375 CURVE",
"980 375 OFFCURVE",
"982 375 OFFCURVE",
"982 376 CURVE",
"983 376 OFFCURVE",
"984 376 OFFCURVE",
"985 376 CURVE",
"987 376 OFFCURVE",
"990 377 OFFCURVE",
"994 377 CURVE SMOOTH",
"998 378 OFFCURVE",
"1004 378 OFFCURVE",
"1013 379 CURVE",
"1021 380 OFFCURVE",
"1032 382 OFFCURVE",
"1041 388 CURVE",
"1050 393 OFFCURVE",
"1056 402 OFFCURVE",
"1056 416 CURVE SMOOTH",
"1056 428 OFFCURVE",
"1054 438 OFFCURVE",
"1047 445 CURVE SMOOTH",
"1041 452 OFFCURVE",
"1029 456 OFFCURVE",
"1009 456 CURVE SMOOTH",
"1004 456 OFFCURVE",
"998 456 OFFCURVE",
"991 455 CURVE SMOOTH",
"975 454 OFFCURVE",
"943 451 OFFCURVE",
"902 449 CURVE",
"918 499 OFFCURVE",
"936 550 OFFCURVE",
"953 599 CURVE SMOOTH",
"970 647 OFFCURVE",
"987 694 OFFCURVE",
"1002 734 CURVE SMOOTH",
"1011 757 OFFCURVE",
"1012 777 OFFCURVE",
"1012 792 CURVE SMOOTH",
"1012 810 OFFCURVE",
"1006 822 OFFCURVE",
"996 831 CURVE SMOOTH",
"986 838 OFFCURVE",
"973 842 OFFCURVE",
"959 842 CURVE SMOOTH",
"926 842 OFFCURVE",
"902 818 OFFCURVE",
"887 781 CURVE SMOOTH",
"842 669 OFFCURVE",
"801 550 OFFCURVE",
"768 441 CURVE",
"684 437 OFFCURVE",
"595 432 OFFCURVE",
"528 428 CURVE",
"546 487 OFFCURVE",
"563 545 OFFCURVE",
"575 596 CURVE SMOOTH",
"586 646 OFFCURVE",
"594 689 OFFCURVE",
"594 719 CURVE SMOOTH",
"594 781 OFFCURVE",
"574 824 OFFCURVE",
"542 852 CURVE SMOOTH",
"511 879 OFFCURVE",
"467 891 OFFCURVE",
"422 891 CURVE SMOOTH",
"391 891 OFFCURVE",
"354 883 OFFCURVE",
"317 868 CURVE SMOOTH",
"280 854 OFFCURVE",
"244 832 OFFCURVE",
"217 806 CURVE SMOOTH",
"190 780 OFFCURVE",
"173 749 OFFCURVE",
"173 715 CURVE SMOOTH",
"173 703 OFFCURVE",
"173 692 OFFCURVE",
"175 684 CURVE SMOOTH",
"176 675 OFFCURVE",
"178 670 OFFCURVE",
"181 670 CURVE SMOOTH",
"191 670 OFFCURVE",
"204 675 OFFCURVE",
"219 688 CURVE SMOOTH",
"262 723 OFFCURVE",
"298 746 OFFCURVE",
"330 761 CURVE SMOOTH",
"361 775 OFFCURVE",
"387 781 OFFCURVE",
"406 781 CURVE SMOOTH",
"430 781 OFFCURVE",
"446 772 OFFCURVE",
"457 757 CURVE SMOOTH",
"467 742 OFFCURVE",
"471 720 OFFCURVE",
"471 695 CURVE SMOOTH",
"471 664 OFFCURVE",
"464 628 OFFCURVE",
"453 594 CURVE SMOOTH",
"435 540 OFFCURVE",
"414 484 OFFCURVE",
"390 423 CURVE",
"343 423 LINE SMOOTH",
"308 423 OFFCURVE",
"279 423 OFFCURVE",
"248 421 CURVE",
"236 436 OFFCURVE",
"227 447 OFFCURVE",
"219 454 CURVE",
"212 460 OFFCURVE",
"205 463 OFFCURVE",
"199 463 CURVE SMOOTH",
"188 463 OFFCURVE",
"184 456 OFFCURVE",
"184 442 CURVE SMOOTH",
"184 433 OFFCURVE",
"186 424 OFFCURVE",
"188 413 CURVE",
"202 375 OFFCURVE",
"225 352 OFFCURVE",
"252 338 CURVE SMOOTH",
"280 325 OFFCURVE",
"314 320 OFFCURVE",
"350 320 CURVE",
"316 232 OFFCURVE",
"283 140 OFFCURVE",
"256 40 CURVE SMOOTH",
"254 35 OFFCURVE",
"254 30 OFFCURVE",
"254 25 CURVE SMOOTH",
"254 8 OFFCURVE",
"261 -6 OFFCURVE",
"273 -16 CURVE SMOOTH",
"285 -25 OFFCURVE",
"300 -31 OFFCURVE",
"316 -31 CURVE SMOOTH",
"328 -31 OFFCURVE",
"342 -23 OFFCURVE",
"357 -9 CURVE SMOOTH",
"372 5 OFFCURVE",
"387 29 OFFCURVE",
"403 64 CURVE",
"408 77 OFFCURVE",
"414 94 OFFCURVE",
"421 113 CURVE SMOOTH",
"428 132 OFFCURVE",
"436 153 OFFCURVE",
"444 176 CURVE SMOOTH",
"461 222 OFFCURVE",
"479 275 OFFCURVE",
"497 330 CURVE",
"577 337 OFFCURVE",
"655 344 OFFCURVE",
"742 354 CURVE",
"729 305 OFFCURVE",
"718 262 OFFCURVE",
"711 225 CURVE SMOOTH",
"703 188 OFFCURVE",
"699 160 OFFCURVE",
"699 141 CURVE SMOOTH",
"699 86 OFFCURVE",
"715 43 OFFCURVE",
"741 14 CURVE SMOOTH",
"767 -16 OFFCURVE",
"803 -31 OFFCURVE",
"844 -31 CURVE SMOOTH",
"879 -31 OFFCURVE",
"923 -18 OFFCURVE",
"970 9 CURVE SMOOTH",
"1016 35 OFFCURVE",
"1066 74 OFFCURVE",
"1115 125 CURVE",
"1106 147 OFFCURVE",
"1100 165 OFFCURVE",
"1095 177 CURVE",
"1090 189 OFFCURVE",
"1086 199 OFFCURVE",
"1084 205 CURVE SMOOTH",
"1081 212 OFFCURVE",
"1079 217 OFFCURVE",
"1078 219 CURVE",
"1034 174 OFFCURVE",
"998 143 OFFCURVE",
"969 123 CURVE SMOOTH",
"939 103 OFFCURVE",
"917 93 OFFCURVE",
"900 93 CURVE SMOOTH",
"857 93 OFFCURVE",
"840 120 OFFCURVE",
"840 164 CURVE SMOOTH",
"840 215 OFFCURVE",
"855 286 OFFCURVE",
"878 366 CURVE"
);
}
);
width = 1031;
}
);
note = H;
unicode = 0048;
},
{
glyphname = I;
lastChange = "2016-07-18 14:46:18 +0000";
layers = (
{
layerId = "ECEFE970-1BBB-4E0A-A452-CEB55884B4A3";
paths = (
{
closed = 1;
nodes = (
"162 689 OFFCURVE",
"171 693 OFFCURVE",
"179 696 CURVE SMOOTH",
"187 699 OFFCURVE",
"194 702 OFFCURVE",
"201 705 CURVE SMOOTH",
"215 709 OFFCURVE",
"227 713 OFFCURVE",
"241 716 CURVE SMOOTH",
"255 720 OFFCURVE",
"273 722 OFFCURVE",
"297 725 CURVE",
"282 683 OFFCURVE",
"265 626 OFFCURVE",
"247 559 CURVE SMOOTH",
"229 492 OFFCURVE",
"209 415 OFFCURVE",
"190 333 CURVE SMOOTH",
"170 251 OFFCURVE",
"149 165 OFFCURVE",
"129 80 CURVE",
"116 79 OFFCURVE",
"102 77 OFFCURVE",
"85 74 CURVE SMOOTH",
"52 69 OFFCURVE",
"22 61 OFFCURVE",
"1 51 CURVE",
"-9 45 OFFCURVE",
"-15 40 OFFCURVE",
"-16 35 CURVE SMOOTH",
"-17 26 OFFCURVE",
"-19 20 OFFCURVE",
"-22 14 CURVE SMOOTH",
"-30 3 OFFCURVE",
"-38 -4 OFFCURVE",
"-44 -8 CURVE SMOOTH",
"-47 -11 OFFCURVE",
"-49 -12 OFFCURVE",
"-49 -13 CURVE SMOOTH",
"-49 -14 OFFCURVE",
"-43 -14 OFFCURVE",
"-33 -15 CURVE SMOOTH",
"-23 -15 OFFCURVE",
"-10 -15 OFFCURVE",
"7 -15 CURVE SMOOTH",
"41 -16 OFFCURVE",
"88 -16 OFFCURVE",
"135 -16 CURVE SMOOTH",
"159 -16 OFFCURVE",
"183 -16 OFFCURVE",
"207 -16 CURVE SMOOTH",
"230 -16 OFFCURVE",
"252 -16 OFFCURVE",
"273 -16 CURVE SMOOTH",
"293 -16 OFFCURVE",
"312 -16 OFFCURVE",
"327 -16 CURVE SMOOTH",
"342 -16 OFFCURVE",
"353 -16 OFFCURVE",
"359 -16 CURVE",
"383 -2 OFFCURVE",
"395 11 OFFCURVE",
"395 24 CURVE SMOOTH",
"395 31 OFFCURVE",
"392 37 OFFCURVE",
"386 42 CURVE",
"375 53 OFFCURVE",
"358 61 OFFCURVE",
"337 66 CURVE SMOOTH",
"317 71 OFFCURVE",
"298 74 OFFCURVE",
"284 76 CURVE",
"277 76 OFFCURVE",
"272 77 OFFCURVE",
"271 77 CURVE",
"282 121 OFFCURVE",
"292 161 OFFCURVE",
"302 195 CURVE SMOOTH",
"319 265 OFFCURVE",
"333 319 OFFCURVE",
"343 366 CURVE SMOOTH",
"353 412 OFFCURVE",
"362 454 OFFCURVE",
"372 495 CURVE SMOOTH",
"376 516 OFFCURVE",
"381 538 OFFCURVE",
"387 562 CURVE SMOOTH",
"398 609 OFFCURVE",
"411 664 OFFCURVE",
"429 734 CURVE",
"440 733 OFFCURVE",
"451 733 OFFCURVE",
"461 733 CURVE SMOOTH",
"509 733 OFFCURVE",
"535 740 OFFCURVE",
"548 751 CURVE SMOOTH",
"562 762 OFFCURVE",
"563 776 OFFCURVE",
"563 790 CURVE SMOOTH",
"563 804 OFFCURVE",
"562 818 OFFCURVE",
"543 828 CURVE SMOOTH",
"534 833 OFFCURVE",
"521 837 OFFCURVE",
"503 840 CURVE SMOOTH",
"485 843 OFFCURVE",
"459 845 OFFCURVE",
"427 845 CURVE SMOOTH",
"353 845 OFFCURVE",
"296 837 OFFCURVE",
"254 825 CURVE SMOOTH",
"212 813 OFFCURVE",
"186 798 OFFCURVE",
"168 784 CURVE SMOOTH",
"151 770 OFFCURVE",
"145 756 OFFCURVE",
"145 749 CURVE SMOOTH",
"145 729 OFFCURVE",
"146 713 OFFCURVE",
"146 702 CURVE",
"147 690 OFFCURVE",
"148 685 OFFCURVE",
"149 685 CURVE",
"149 685 OFFCURVE",
"149 685 OFFCURVE",
"151 686 CURVE SMOOTH"
);
}
);
width = 421;
}
);
note = I;
unicode = 0049;
},
{
glyphname = J;
lastChange = "2016-07-18 14:46:18 +0000";
layers = (
{
layerId = "ECEFE970-1BBB-4E0A-A452-CEB55884B4A3";
paths = (
{
closed = 1;
nodes = (
"281 -207 OFFCURVE",
"301 -268 OFFCURVE",
"333 -309 CURVE SMOOTH",
"366 -350 OFFCURVE",
"411 -371 OFFCURVE",
"462 -371 CURVE SMOOTH",
"512 -371 OFFCURVE",
"566 -352 OFFCURVE",
"621 -313 CURVE SMOOTH",
"675 -273 OFFCURVE",
"729 -215 OFFCURVE",
"777 -135 CURVE SMOOTH",
"824 -56 OFFCURVE",
"865 44 OFFCURVE",
"894 165 CURVE",
"952 140 OFFCURVE",
"1002 125 OFFCURVE",
"1039 125 CURVE SMOOTH",
"1047 125 OFFCURVE",
"1055 126 OFFCURVE",
"1060 129 CURVE",
"1064 131 OFFCURVE",
"1072 135 OFFCURVE",
"1080 141 CURVE SMOOTH",
"1087 146 OFFCURVE",
"1094 153 OFFCURVE",
"1094 159 CURVE SMOOTH",
"1094 163 OFFCURVE",
"1092 166 OFFCURVE",
"1087 170 CURVE SMOOTH",
"1079 178 OFFCURVE",
"1066 187 OFFCURVE",
"1054 194 CURVE SMOOTH",
"1047 197 OFFCURVE",
"1042 201 OFFCURVE",
"1038 203 CURVE SMOOTH",
"996 227 OFFCURVE",
"955 250 OFFCURVE",
"916 274 CURVE",
"930 362 OFFCURVE",
"938 457 OFFCURVE",
"938 563 CURVE SMOOTH",
"938 709 OFFCURVE",
"910 812 OFFCURVE",
"868 876 CURVE SMOOTH",
"825 941 OFFCURVE",
"769 970 OFFCURVE",
"710 970 CURVE SMOOTH",
"666 970 OFFCURVE",
"622 954 OFFCURVE",
"581 925 CURVE SMOOTH",
"541 896 OFFCURVE",
"504 854 OFFCURVE",
"479 803 CURVE SMOOTH",
"453 752 OFFCURVE",
"438 691 OFFCURVE",
"438 625 CURVE SMOOTH",
"438 573 OFFCURVE",
"459 521 OFFCURVE",
"495 469 CURVE SMOOTH",
"531 417 OFFCURVE",
"581 367 OFFCURVE",
"636 322 CURVE",
"528 289 OFFCURVE",
"440 221 OFFCURVE",
"378 140 CURVE SMOOTH",
"316 58 OFFCURVE",
"281 -37 OFFCURVE",
"281 -125 CURVE SMOOTH"
);
},
{
closed = 1;
nodes = (
"406 -115 OFFCURVE",
"423 -61 OFFCURVE",
"453 -7 CURVE SMOOTH",
"482 47 OFFCURVE",
"524 102 OFFCURVE",
"576 146 CURVE SMOOTH",
"628 191 OFFCURVE",
"688 225 OFFCURVE",
"755 238 CURVE",
"773 227 LINE",
"738 59 OFFCURVE",
"686 -62 OFFCURVE",
"631 -141 CURVE SMOOTH",
"577 -220 OFFCURVE",
"520 -257 OFFCURVE",
"477 -257 CURVE SMOOTH",
"434 -257 OFFCURVE",
"406 -223 OFFCURVE",
"406 -156 CURVE SMOOTH"
);
},
{
closed = 1;
nodes = (
"563 688 OFFCURVE",
"572 722 OFFCURVE",
"588 753 CURVE SMOOTH",
"603 784 OFFCURVE",
"625 812 OFFCURVE",
"648 833 CURVE SMOOTH",
"671 853 OFFCURVE",
"697 865 OFFCURVE",
"721 865 CURVE SMOOTH",
"746 865 OFFCURVE",
"769 852 OFFCURVE",
"786 818 CURVE SMOOTH",
"802 785 OFFCURVE",
"813 733 OFFCURVE",
"813 656 CURVE SMOOTH",
"813 543 OFFCURVE",
"806 444 OFFCURVE",
"794 354 CURVE",
"726 402 OFFCURVE",
"668 452 OFFCURVE",
"627 502 CURVE SMOOTH",
"586 553 OFFCURVE",
"563 604 OFFCURVE",
"563 656 CURVE SMOOTH"
);
}
);
width = 953;
}
);
note = J;
unicode = 004A;
},
{
glyphname = K;
lastChange = "2016-07-18 14:46:18 +0000";
layers = (
{
layerId = "ECEFE970-1BBB-4E0A-A452-CEB55884B4A3";
paths = (
{
closed = 1;
nodes = (
"601 750 OFFCURVE",
"601 770 OFFCURVE",
"601 797 CURVE SMOOTH",
"601 807 OFFCURVE",
"599 819 OFFCURVE",
"589 828 CURVE SMOOTH",
"580 837 OFFCURVE",
"565 844 OFFCURVE",
"540 844 CURVE SMOOTH",
"496 844 OFFCURVE",
"435 840 OFFCURVE",
"373 826 CURVE SMOOTH",
"310 812 OFFCURVE",
"245 786 OFFCURVE",
"194 742 CURVE SMOOTH",
"143 699 OFFCURVE",
"104 636 OFFCURVE",
"94 548 CURVE",
"94 548 OFFCURVE",
"94 547 OFFCURVE",
"94 547 CURVE SMOOTH",
"94 542 LINE SMOOTH",
"94 536 OFFCURVE",
"96 525 OFFCURVE",
"107 517 CURVE SMOOTH",
"118 508 OFFCURVE",
"137 500 OFFCURVE",
"174 500 CURVE SMOOTH",
"202 500 OFFCURVE",
"217 507 OFFCURVE",
"225 516 CURVE SMOOTH",
"233 523 OFFCURVE",
"234 532 OFFCURVE",
"234 536 CURVE SMOOTH",
"234 567 OFFCURVE",
"242 604 OFFCURVE",
"260 638 CURVE SMOOTH",
"277 672 OFFCURVE",
"303 704 OFFCURVE",
"339 728 CURVE SMOOTH",
"376 751 OFFCURVE",
"422 766 OFFCURVE",
"479 766 CURVE",
"473 725 LINE",
"463 624 OFFCURVE",
"448 518 OFFCURVE",
"426 422 CURVE SMOOTH",
"405 326 OFFCURVE",
"376 240 OFFCURVE",
"338 178 CURVE SMOOTH",
"301 116 OFFCURVE",
"253 78 OFFCURVE",
"195 78 CURVE SMOOTH",
"173 78 OFFCURVE",
"150 85 OFFCURVE",
"127 95 CURVE",
"126 96 OFFCURVE",
"125 96 OFFCURVE",
"123 96 CURVE SMOOTH",
"113 96 OFFCURVE",
"104 90 OFFCURVE",
"96 83 CURVE SMOOTH",
"88 77 OFFCURVE",
"82 68 OFFCURVE",
"80 64 CURVE SMOOTH",
"75 57 OFFCURVE",
"71 49 OFFCURVE",
"67 42 CURVE SMOOTH",
"63 35 OFFCURVE",
"61 26 OFFCURVE",
"61 18 CURVE SMOOTH",
"61 0 OFFCURVE",
"86 -13 OFFCURVE",
"118 -21 CURVE SMOOTH",
"149 -28 OFFCURVE",
"187 -31 OFFCURVE",
"212 -31 CURVE SMOOTH",
"286 -31 OFFCURVE",
"352 -4 OFFCURVE",
"409 57 CURVE SMOOTH",
"466 117 OFFCURVE",
"512 211 OFFCURVE",
"547 344 CURVE",
"561 328 OFFCURVE",
"573 311 OFFCURVE",
"583 292 CURVE SMOOTH",
"605 254 OFFCURVE",
"623 212 OFFCURVE",
"641 170 CURVE SMOOTH",
"649 149 OFFCURVE",
"658 129 OFFCURVE",
"667 109 CURVE SMOOTH",
"687 70 OFFCURVE",
"708 35 OFFCURVE",
"736 10 CURVE SMOOTH",
"765 -16 OFFCURVE",
"800 -31 OFFCURVE",
"847 -31 CURVE SMOOTH",
"868 -31 OFFCURVE",
"889 -29 OFFCURVE",
"909 -25 CURVE SMOOTH",
"950 -17 OFFCURVE",
"987 -2 OFFCURVE",
"1017 12 CURVE SMOOTH",
"1047 27 OFFCURVE",
"1070 40 OFFCURVE",
"1082 48 CURVE",
"1088 52 OFFCURVE",
"1091 54 OFFCURVE",
"1091 54 CURVE",
"1035 149 LINE",
"1009 128 OFFCURVE",
"977 111 OFFCURVE",
"946 98 CURVE SMOOTH",
"915 85 OFFCURVE",
"884 78 OFFCURVE",
"859 78 CURVE SMOOTH",
"819 78 OFFCURVE",
"788 105 OFFCURVE",
"757 158 CURVE SMOOTH",
"726 211 OFFCURVE",
"695 289 OFFCURVE",
"656 391 CURVE",
"750 391 OFFCURVE",
"821 403 OFFCURVE",
"875 427 CURVE SMOOTH",
"928 452 OFFCURVE",
"963 488 OFFCURVE",
"985 537 CURVE SMOOTH",
"1007 585 OFFCURVE",
"1016 646 OFFCURVE",
"1016 720 CURVE",
"1015 730 OFFCURVE",
"1015 742 OFFCURVE",
"1015 754 CURVE",
"1015 766 OFFCURVE",
"1015 776 OFFCURVE",
"1014 783 CURVE SMOOTH",
"1014 790 OFFCURVE",
"1012 801 OFFCURVE",
"1003 811 CURVE SMOOTH",
"994 820 OFFCURVE",
"979 828 OFFCURVE",
"953 828 CURVE",
"936 827 OFFCURVE",
"923 825 OFFCURVE",
"915 822 CURVE SMOOTH",
"906 820 OFFCURVE",
"900 816 OFFCURVE",
"896 811 CURVE SMOOTH",
"890 801 OFFCURVE",
"891 783 OFFCURVE",
"891 750 CURVE SMOOTH",
"891 670 OFFCURVE",
"878 614 OFFCURVE",
"855 575 CURVE SMOOTH",
"831 535 OFFCURVE",
"795 513 OFFCURVE",
"749 500 CURVE SMOOTH",
"703 487 OFFCURVE",
"646 484 OFFCURVE",
"578 484 CURVE",
"580 510 OFFCURVE",
"582 538 OFFCURVE",
"584 565 CURVE SMOOTH",
"588 613 OFFCURVE",
"593 674 OFFCURVE",
"599 731 CURVE SMOOTH"
);
}
);
width = 938;
}
);
note = K;
unicode = 004B;
},
{
glyphname = L;
lastChange = "2016-07-18 14:46:18 +0000";
layers = (
{
layerId = "ECEFE970-1BBB-4E0A-A452-CEB55884B4A3";
paths = (
{
closed = 1;
nodes = (
"-86 152 OFFCURVE",
"-88 139 OFFCURVE",
"-88 127 CURVE SMOOTH",
"-88 112 OFFCURVE",
"-83 96 OFFCURVE",
"-75 83 CURVE SMOOTH",
"-66 71 OFFCURVE",
"-56 63 OFFCURVE",
"-45 63 CURVE SMOOTH",
"-40 63 OFFCURVE",
"-27 69 OFFCURVE",
"-7 81 CURVE SMOOTH",
"12 93 OFFCURVE",
"36 109 OFFCURVE",
"64 130 CURVE",
"64 88 OFFCURVE",
"70 50 OFFCURVE",
"88 22 CURVE SMOOTH",
"106 -6 OFFCURVE",
"136 -24 OFFCURVE",
"184 -24 CURVE SMOOTH",
"215 -24 OFFCURVE",
"250 -20 OFFCURVE",
"283 -14 CURVE SMOOTH",
"315 -8 OFFCURVE",
"347 1 OFFCURVE",
"376 9 CURVE SMOOTH",
"409 20 OFFCURVE",
"442 31 OFFCURVE",
"474 43 CURVE",
"489 46 OFFCURVE",
"501 55 OFFCURVE",
"509 65 CURVE SMOOTH",
"517 76 OFFCURVE",
"521 88 OFFCURVE",
"521 102 CURVE SMOOTH",
"521 116 OFFCURVE",
"517 130 OFFCURVE",
"509 141 CURVE SMOOTH",
"501 151 OFFCURVE",
"489 158 OFFCURVE",
"473 158 CURVE SMOOTH",
"469 158 OFFCURVE",
"463 157 OFFCURVE",
"458 156 CURVE SMOOTH",
"294 109 LINE SMOOTH",
"270 102 OFFCURVE",
"250 98 OFFCURVE",
"235 98 CURVE SMOOTH",
"216 98 OFFCURVE",
"205 100 OFFCURVE",
"198 103 CURVE SMOOTH",
"191 106 OFFCURVE",
"189 111 OFFCURVE",
"189 117 CURVE SMOOTH",
"189 118 OFFCURVE",
"189 120 OFFCURVE",
"189 122 CURVE SMOOTH",
"189 125 OFFCURVE",
"189 128 OFFCURVE",
"190 135 CURVE",
"190 141 OFFCURVE",
"190 149 OFFCURVE",
"191 161 CURVE SMOOTH",
"191 172 OFFCURVE",
"192 188 OFFCURVE",
"192 208 CURVE",
"263 251 OFFCURVE",
"331 309 OFFCURVE",
"388 371 CURVE SMOOTH",
"444 434 OFFCURVE",
"492 502 OFFCURVE",
"526 570 CURVE SMOOTH",
"559 638 OFFCURVE",
"578 705 OFFCURVE",
"578 766 CURVE SMOOTH",
"578 815 OFFCURVE",
"566 852 OFFCURVE",
"547 877 CURVE SMOOTH",
"527 902 OFFCURVE",
"500 914 OFFCURVE",
"467 914 CURVE SMOOTH",
"422 914 OFFCURVE",
"369 891 OFFCURVE",
"316 845 CURVE SMOOTH",
"263 798 OFFCURVE",
"210 729 OFFCURVE",
"167 637 CURVE SMOOTH",
"124 545 OFFCURVE",
"90 431 OFFCURVE",
"76 294 CURVE SMOOTH",
"72 261 LINE",
"57 250 OFFCURVE",
"41 239 OFFCURVE",
"25 228 CURVE SMOOTH",
"-6 206 OFFCURVE",
"-35 188 OFFCURVE",
"-55 174 CURVE SMOOTH",
"-65 167 OFFCURVE",
"-72 163 OFFCURVE",
"-76 160 CURVE SMOOTH"
);
},
{
closed = 1;
nodes = (
"209 421 OFFCURVE",
"230 505 OFFCURVE",
"257 576 CURVE SMOOTH",
"284 646 OFFCURVE",
"316 704 OFFCURVE",
"347 745 CURVE SMOOTH",
"377 785 OFFCURVE",
"406 808 OFFCURVE",
"427 808 CURVE SMOOTH",
"445 808 OFFCURVE",
"456 792 OFFCURVE",
"456 754 CURVE SMOOTH",
"456 744 OFFCURVE",
"455 732 OFFCURVE",
"453 719 CURVE SMOOTH",
"448 680 OFFCURVE",
"429 636 OFFCURVE",
"403 589 CURVE SMOOTH",
"376 543 OFFCURVE",
"342 496 OFFCURVE",
"307 452 CURVE SMOOTH",
"271 407 OFFCURVE",
"234 366 OFFCURVE",
"201 331 CURVE"
);
}
);
width = 484;
}
);
note = L;
unicode = 004C;
},
{
glyphname = Lslash;
lastChange = "2016-07-18 14:46:18 +0000";
layers = (
{
layerId = "ECEFE970-1BBB-4E0A-A452-CEB55884B4A3";
paths = (
{
closed = 1;
nodes = (
"-86 152 OFFCURVE",
"-88 139 OFFCURVE",
"-88 127 CURVE SMOOTH",
"-88 112 OFFCURVE",
"-83 96 OFFCURVE",
"-75 83 CURVE SMOOTH",
"-66 71 OFFCURVE",
"-56 63 OFFCURVE",
"-45 63 CURVE SMOOTH",
"-40 63 OFFCURVE",
"-27 69 OFFCURVE",
"-7 81 CURVE SMOOTH",
"12 93 OFFCURVE",
"36 109 OFFCURVE",
"64 130 CURVE",
"64 88 OFFCURVE",
"70 50 OFFCURVE",
"88 22 CURVE SMOOTH",
"106 -6 OFFCURVE",
"136 -24 OFFCURVE",
"184 -24 CURVE SMOOTH",
"215 -24 OFFCURVE",
"250 -20 OFFCURVE",
"283 -14 CURVE SMOOTH",
"315 -8 OFFCURVE",
"347 1 OFFCURVE",
"376 9 CURVE SMOOTH",
"409 20 OFFCURVE",
"442 31 OFFCURVE",
"474 43 CURVE",
"489 46 OFFCURVE",
"501 55 OFFCURVE",
"509 65 CURVE SMOOTH",
"517 76 OFFCURVE",
"521 88 OFFCURVE",
"521 102 CURVE SMOOTH",
"521 116 OFFCURVE",
"517 130 OFFCURVE",
"509 141 CURVE SMOOTH",
"501 151 OFFCURVE",
"489 158 OFFCURVE",
"473 158 CURVE SMOOTH",
"469 158 OFFCURVE",
"463 157 OFFCURVE",
"458 156 CURVE SMOOTH",
"294 109 LINE SMOOTH",
"270 102 OFFCURVE",
"250 98 OFFCURVE",
"235 98 CURVE SMOOTH",
"216 98 OFFCURVE",
"205 100 OFFCURVE",
"198 103 CURVE SMOOTH",
"191 106 OFFCURVE",
"189 111 OFFCURVE",
"189 117 CURVE SMOOTH",
"189 122 LINE SMOOTH",
"189 125 OFFCURVE",
"189 128 OFFCURVE",
"190 135 CURVE",
"190 141 OFFCURVE",
"190 149 OFFCURVE",
"191 161 CURVE SMOOTH",
"191 172 OFFCURVE",
"192 188 OFFCURVE",
"192 208 CURVE",
"228 230 OFFCURVE",
"262 255 OFFCURVE",
"295 283 CURVE SMOOTH",
"361 338 OFFCURVE",
"418 401 OFFCURVE",
"465 468 CURVE SMOOTH",
"470 476 OFFCURVE",
"475 482 OFFCURVE",
"479 489 CURVE",
"514 497 OFFCURVE",
"545 503 OFFCURVE",
"573 510 CURVE SMOOTH",
"602 516 OFFCURVE",
"626 521 OFFCURVE",
"646 526 CURVE SMOOTH",
"667 530 OFFCURVE",
"681 534 OFFCURVE",
"688 535 CURVE SMOOTH",
"708 540 OFFCURVE",
"722 548 OFFCURVE",
"729 557 CURVE SMOOTH",
"737 565 OFFCURVE",
"739 576 OFFCURVE",
"739 585 CURVE SMOOTH",
"739 604 OFFCURVE",
"734 616 OFFCURVE",
"727 623 CURVE SMOOTH",
"719 630 OFFCURVE",
"709 632 OFFCURVE",
"700 632 CURVE SMOOTH",
"694 632 OFFCURVE",
"688 632 OFFCURVE",
"684 630 CURVE",
"655 624 OFFCURVE",
"602 612 OFFCURVE",
"539 598 CURVE",
"560 646 OFFCURVE",
"578 705 OFFCURVE",
"578 766 CURVE SMOOTH",
"578 815 OFFCURVE",
"566 852 OFFCURVE",
"547 877 CURVE SMOOTH",
"527 902 OFFCURVE",
"500 914 OFFCURVE",
"467 914 CURVE SMOOTH",
"444 914 OFFCURVE",
"420 908 OFFCURVE",
"395 897 CURVE SMOOTH",
"343 874 OFFCURVE",
"289 827 OFFCURVE",
"238 758 CURVE SMOOTH",
"187 689 OFFCURVE",
"146 602 OFFCURVE",
"117 506 CURVE",
"116 506 OFFCURVE",
"115 506 OFFCURVE",
"113 505 CURVE",
"85 499 OFFCURVE",
"61 494 OFFCURVE",
"42 490 CURVE SMOOTH",
"21 485 OFFCURVE",
"9 483 OFFCURVE",
"2 481 CURVE SMOOTH",
"-13 478 OFFCURVE",
"-23 472 OFFCURVE",
"-29 465 CURVE SMOOTH",
"-35 458 OFFCURVE",
"-37 451 OFFCURVE",
"-37 443 CURVE SMOOTH",
"-37 437 OFFCURVE",
"-34 423 OFFCURVE",
"-27 411 CURVE SMOOTH",
"-21 399 OFFCURVE",
"-10 388 OFFCURVE",
"9 388 CURVE SMOOTH",
"13 388 OFFCURVE",
"18 389 OFFCURVE",
"22 390 CURVE SMOOTH",
"37 393 OFFCURVE",
"56 397 OFFCURVE",
"81 402 CURVE",
"84 403 OFFCURVE",
"88 404 OFFCURVE",
"92 405 CURVE",
"85 370 OFFCURVE",
"80 333 OFFCURVE",
"76 294 CURVE SMOOTH",
"72 261 LINE",
"57 250 OFFCURVE",
"41 239 OFFCURVE",
"25 228 CURVE SMOOTH",
"-6 206 OFFCURVE",
"-35 188 OFFCURVE",
"-55 174 CURVE SMOOTH",
"-65 167 OFFCURVE",
"-72 163 OFFCURVE",
"-76 160 CURVE SMOOTH"
);
},
{
closed = 1;
nodes = (
"292 544 OFFCURVE",
"267 539 OFFCURVE",
"242 533 CURVE",
"247 548 OFFCURVE",
"251 562 OFFCURVE",
"257 576 CURVE SMOOTH",
"284 646 OFFCURVE",
"316 704 OFFCURVE",
"347 745 CURVE SMOOTH",
"377 785 OFFCURVE",
"406 808 OFFCURVE",
"427 808 CURVE SMOOTH",
"445 808 OFFCURVE",
"456 792 OFFCURVE",
"456 754 CURVE SMOOTH",
"456 744 OFFCURVE",
"455 732 OFFCURVE",
"453 719 CURVE SMOOTH",
"448 680 OFFCURVE",
"429 636 OFFCURVE",
"402 589 CURVE",
"398 581 OFFCURVE",
"393 573 OFFCURVE",
"388 565 CURVE",
"365 560 OFFCURVE",
"342 555 OFFCURVE",
"318 550 CURVE SMOOTH"
);
},
{
closed = 1;
nodes = (
"204 366 OFFCURVE",
"209 399 OFFCURVE",
"215 432 CURVE",
"248 438 OFFCURVE",
"280 446 OFFCURVE",
"307 452 CURVE",
"307 451 LINE",
"271 407 OFFCURVE",
"234 366 OFFCURVE",
"201 331 CURVE"
);
}
);
width = 484;
}
);
note = Lslash;
unicode = 0141;
},
{
glyphname = M;
lastChange = "2016-07-18 14:46:18 +0000";
layers = (
{
layerId = "ECEFE970-1BBB-4E0A-A452-CEB55884B4A3";
paths = (
{
closed = 1;
nodes = (
"219 79 OFFCURVE",
"226 113 OFFCURVE",
"234 148 CURVE SMOOTH",
"251 220 OFFCURVE",
"273 295 OFFCURVE",
"300 370 CURVE SMOOTH",
"326 444 OFFCURVE",
"354 513 OFFCURVE",
"383 572 CURVE SMOOTH",
"412 631 OFFCURVE",
"439 675 OFFCURVE",
"463 700 CURVE SMOOTH",
"475 712 OFFCURVE",
"485 719 OFFCURVE",
"494 719 CURVE SMOOTH",
"516 719 OFFCURVE",
"529 707 OFFCURVE",
"536 685 CURVE SMOOTH",
"543 663 OFFCURVE",
"544 630 OFFCURVE",
"544 590 CURVE SMOOTH",
"544 531 OFFCURVE",
"536 459 OFFCURVE",
"524 388 CURVE SMOOTH",
"512 317 OFFCURVE",
"497 246 OFFCURVE",
"485 188 CURVE SMOOTH",
"473 131 OFFCURVE",
"464 87 OFFCURVE",
"464 70 CURVE SMOOTH",
"464 45 OFFCURVE",
"471 28 OFFCURVE",
"481 17 CURVE",
"491 5 OFFCURVE",
"505 0 OFFCURVE",
"519 0 CURVE SMOOTH",
"534 0 OFFCURVE",
"550 3 OFFCURVE",
"564 11 CURVE SMOOTH",
"578 19 OFFCURVE",
"589 32 OFFCURVE",
"595 50 CURVE",
"606 115 OFFCURVE",
"620 189 OFFCURVE",
"636 264 CURVE SMOOTH",
"651 339 OFFCURVE",
"669 415 OFFCURVE",
"691 482 CURVE SMOOTH",
"712 549 OFFCURVE",
"735 608 OFFCURVE",
"763 651 CURVE SMOOTH",
"790 693 OFFCURVE",
"820 719 OFFCURVE",
"855 719 CURVE SMOOTH",
"873 719 OFFCURVE",
"884 709 OFFCURVE",
"890 693 CURVE SMOOTH",
"896 676 OFFCURVE",
"897 652 OFFCURVE",
"897 623 CURVE SMOOTH",
"897 599 OFFCURVE",
"896 573 OFFCURVE",
"892 547 CURVE SMOOTH",
"886 495 OFFCURVE",
"875 441 OFFCURVE",
"864 387 CURVE SMOOTH",
"858 360 OFFCURVE",
"853 333 OFFCURVE",
"847 307 CURVE SMOOTH",
"836 255 OFFCURVE",
"827 205 OFFCURVE",
"824 162 CURVE SMOOTH",
"824 156 OFFCURVE",
"823 150 OFFCURVE",
"823 145 CURVE SMOOTH",
"823 98 OFFCURVE",
"840 62 OFFCURVE",
"866 37 CURVE SMOOTH",
"892 13 OFFCURVE",
"927 0 OFFCURVE",
"962 0 CURVE SMOOTH",
"999 0 OFFCURVE",
"1036 10 OFFCURVE",
"1072 36 CURVE SMOOTH",
"1107 61 OFFCURVE",
"1142 100 OFFCURVE",
"1175 157 CURVE",
"1166 182 OFFCURVE",
"1158 201 OFFCURVE",
"1153 214 CURVE SMOOTH",
"1147 228 OFFCURVE",
"1144 237 OFFCURVE",
"1142 243 CURVE SMOOTH",
"1139 249 OFFCURVE",
"1137 252 OFFCURVE",
"1137 253 CURVE",
"1120 226 OFFCURVE",
"1103 202 OFFCURVE",
"1086 181 CURVE SMOOTH",
"1071 163 OFFCURVE",
"1055 145 OFFCURVE",
"1038 132 CURVE SMOOTH",
"1021 118 OFFCURVE",
"1004 109 OFFCURVE",
"989 109 CURVE SMOOTH",
"962 109 OFFCURVE",
"948 125 OFFCURVE",
"948 164 CURVE SMOOTH",
"948 179 OFFCURVE",
"950 198 OFFCURVE",
"954 219 CURVE SMOOTH",
"961 261 OFFCURVE",
"973 311 OFFCURVE",
"986 366 CURVE SMOOTH",
"992 394 OFFCURVE",
"998 422 OFFCURVE",
"1003 451 CURVE SMOOTH",
"1015 508 OFFCURVE",
"1023 568 OFFCURVE",
"1023 624 CURVE SMOOTH",
"1023 684 OFFCURVE",
"1012 740 OFFCURVE",
"991 780 CURVE SMOOTH",
"970 820 OFFCURVE",
"938 845 OFFCURVE",
"899 845 CURVE SMOOTH",
"842 845 OFFCURVE",
"788 815 OFFCURVE",
"741 762 CURVE SMOOTH",
"695 708 OFFCURVE",
"657 630 OFFCURVE",
"632 534 CURVE",
"622 533 LINE",
"625 556 OFFCURVE",
"627 577 OFFCURVE",
"630 597 CURVE SMOOTH",
"631 605 OFFCURVE",
"632 613 OFFCURVE",
"633 622 CURVE",
"634 630 OFFCURVE",
"635 637 OFFCURVE",
"636 645 CURVE SMOOTH",
"638 659 OFFCURVE",
"639 670 OFFCURVE",
"639 676 CURVE SMOOTH",
"639 733 OFFCURVE",
"628 774 OFFCURVE",
"610 802 CURVE SMOOTH",
"592 829 OFFCURVE",
"565 842 OFFCURVE",
"536 842 CURVE SMOOTH",
"495 842 OFFCURVE",
"454 819 OFFCURVE",
"414 778 CURVE SMOOTH",
"374 738 OFFCURVE",
"335 681 OFFCURVE",
"302 612 CURVE SMOOTH",
"269 542 OFFCURVE",
"240 461 OFFCURVE",
"219 375 CURVE",
"229 422 OFFCURVE",
"240 478 OFFCURVE",
"249 532 CURVE SMOOTH",
"257 585 OFFCURVE",
"264 636 OFFCURVE",
"264 672 CURVE SMOOTH",
"264 720 OFFCURVE",
"258 760 OFFCURVE",
"243 788 CURVE SMOOTH",
"227 815 OFFCURVE",
"201 831 OFFCURVE",
"161 831 CURVE SMOOTH",
"129 831 OFFCURVE",
"94 819 OFFCURVE",
"62 789 CURVE SMOOTH",
"28 757 OFFCURVE",
"-2 707 OFFCURVE",
"-25 630 CURVE",
"-27 628 OFFCURVE",
"-27 627 OFFCURVE",
"-27 625 CURVE SMOOTH",
"-27 618 OFFCURVE",
"-25 608 OFFCURVE",
"-22 601 CURVE SMOOTH",
"-19 593 OFFCURVE",
"-16 586 OFFCURVE",
"-12 586 CURVE SMOOTH",
"-2 586 OFFCURVE",
"7 590 OFFCURVE",
"11 600 CURVE",
"32 628 OFFCURVE",
"58 653 OFFCURVE",
"83 671 CURVE SMOOTH",
"107 689 OFFCURVE",
"131 701 OFFCURVE",
"146 701 CURVE SMOOTH",
"151 701 OFFCURVE",
"155 700 OFFCURVE",
"158 697 CURVE SMOOTH",
"163 691 OFFCURVE",
"164 683 OFFCURVE",
"164 673 CURVE SMOOTH",
"164 669 OFFCURVE",
"164 665 OFFCURVE",
"164 662 CURVE",
"162 628 OFFCURVE",
"159 597 OFFCURVE",
"157 567 CURVE SMOOTH",
"154 537 OFFCURVE",
"152 509 OFFCURVE",
"149 481 CURVE SMOOTH",
"144 425 OFFCURVE",
"137 371 OFFCURVE",
"127 313 CURVE SMOOTH",
"117 254 OFFCURVE",
"104 189 OFFCURVE",
"85 113 CURVE SMOOTH",
"80 90 OFFCURVE",
"78 69 OFFCURVE",
"78 42 CURVE SMOOTH",
"78 29 OFFCURVE",
"85 18 OFFCURVE",
"98 11 CURVE SMOOTH",
"110 3 OFFCURVE",
"126 0 OFFCURVE",
"144 0 CURVE SMOOTH",
"158 0 OFFCURVE",
"174 2 OFFCURVE",
"188 9 CURVE SMOOTH",
"202 17 OFFCURVE",
"212 28 OFFCURVE",
"215 48 CURVE SMOOTH"
);
}
);
width = 1062;
}
);
note = M;
unicode = 004D;
},
{
glyphname = N;
lastChange = "2016-07-18 14:46:18 +0000";
layers = (
{
layerId = "ECEFE970-1BBB-4E0A-A452-CEB55884B4A3";
paths = (
{
closed = 1;
nodes = (
"231 429 OFFCURVE",
"248 485 OFFCURVE",
"260 539 CURVE SMOOTH",
"272 591 OFFCURVE",
"280 642 OFFCURVE",
"280 685 CURVE SMOOTH",
"280 728 OFFCURVE",
"272 763 OFFCURVE",
"253 789 CURVE SMOOTH",
"233 813 OFFCURVE",
"203 828 OFFCURVE",
"156 828 CURVE SMOOTH",
"125 828 OFFCURVE",
"93 814 OFFCURVE",
"63 783 CURVE SMOOTH",
"31 751 OFFCURVE",
"3 701 OFFCURVE",
"-19 627 CURVE",
"-20 626 OFFCURVE",
"-21 625 OFFCURVE",
"-21 623 CURVE SMOOTH",
"-21 615 OFFCURVE",
"-15 606 OFFCURVE",
"-7 598 CURVE SMOOTH",
"1 590 OFFCURVE",
"11 584 OFFCURVE",
"19 584 CURVE SMOOTH",
"29 584 OFFCURVE",
"39 588 OFFCURVE",
"42 598 CURVE",
"60 631 OFFCURVE",
"81 662 OFFCURVE",
"101 684 CURVE SMOOTH",
"121 705 OFFCURVE",
"140 718 OFFCURVE",
"153 718 CURVE SMOOTH",
"158 718 OFFCURVE",
"162 717 OFFCURVE",
"165 714 CURVE SMOOTH",
"169 708 OFFCURVE",
"171 700 OFFCURVE",
"171 690 CURVE SMOOTH",
"171 686 OFFCURVE",
"171 682 OFFCURVE",
"171 679 CURVE",
"168 646 OFFCURVE",
"166 616 OFFCURVE",
"163 587 CURVE SMOOTH",
"157 530 OFFCURVE",
"149 477 OFFCURVE",
"140 423 CURVE SMOOTH",
"130 369 OFFCURVE",
"119 312 OFFCURVE",
"105 249 CURVE SMOOTH",
"98 217 OFFCURVE",
"90 183 OFFCURVE",
"82 146 CURVE SMOOTH",
"77 123 OFFCURVE",
"74 103 OFFCURVE",
"74 75 CURVE SMOOTH",
"74 49 OFFCURVE",
"82 28 OFFCURVE",
"94 15 CURVE SMOOTH",
"106 0 OFFCURVE",
"123 -7 OFFCURVE",
"140 -7 CURVE SMOOTH",
"169 -7 OFFCURVE",
"193 6 OFFCURVE",
"211 42 CURVE",
"233 106 OFFCURVE",
"258 182 OFFCURVE",
"285 258 CURVE SMOOTH",
"311 333 OFFCURVE",
"339 410 OFFCURVE",
"369 479 CURVE SMOOTH",
"397 546 OFFCURVE",
"427 607 OFFCURVE",
"456 650 CURVE SMOOTH",
"485 693 OFFCURVE",
"513 719 OFFCURVE",
"539 719 CURVE SMOOTH",
"554 719 OFFCURVE",
"563 706 OFFCURVE",
"567 691 CURVE SMOOTH",
"571 676 OFFCURVE",
"572 658 OFFCURVE",
"572 648 CURVE SMOOTH",
"572 629 OFFCURVE",
"570 610 OFFCURVE",
"566 590 CURVE SMOOTH",
"558 550 OFFCURVE",
"546 507 OFFCURVE",
"532 462 CURVE SMOOTH",
"524 440 OFFCURVE",
"518 417 OFFCURVE",
"512 394 CURVE SMOOTH",
"500 346 OFFCURVE",
"491 297 OFFCURVE",
"491 247 CURVE SMOOTH",
"491 208 OFFCURVE",
"495 166 OFFCURVE",
"505 126 CURVE SMOOTH",
"515 87 OFFCURVE",
"532 50 OFFCURVE",
"557 23 CURVE SMOOTH",
"582 -3 OFFCURVE",
"616 -20 OFFCURVE",
"662 -20 CURVE SMOOTH",
"697 -20 OFFCURVE",
"733 -11 OFFCURVE",
"769 5 CURVE SMOOTH",
"805 21 OFFCURVE",
"839 42 OFFCURVE",
"870 67 CURVE SMOOTH",
"901 92 OFFCURVE",
"928 120 OFFCURVE",
"949 148 CURVE",
"919 254 LINE",
"919 253 OFFCURVE",
"916 250 OFFCURVE",
"910 242 CURVE SMOOTH",
"903 233 OFFCURVE",
"894 224 OFFCURVE",
"882 212 CURVE SMOOTH",
"859 188 OFFCURVE",
"828 158 OFFCURVE",
"794 135 CURVE SMOOTH",
"761 111 OFFCURVE",
"725 93 OFFCURVE",
"693 93 CURVE SMOOTH",
"671 93 OFFCURVE",
"656 103 OFFCURVE",
"645 118 CURVE SMOOTH",
"634 133 OFFCURVE",
"628 153 OFFCURVE",
"625 173 CURVE SMOOTH",
"622 192 OFFCURVE",
"621 212 OFFCURVE",
"621 228 CURVE SMOOTH",
"621 252 OFFCURVE",
"623 278 OFFCURVE",
"626 305 CURVE SMOOTH",
"632 359 OFFCURVE",
"641 416 OFFCURVE",
"652 473 CURVE SMOOTH",
"658 501 OFFCURVE",
"663 529 OFFCURVE",
"667 556 CURVE SMOOTH",
"677 609 OFFCURVE",
"684 658 OFFCURVE",
"684 697 CURVE SMOOTH",
"684 730 OFFCURVE",
"676 766 OFFCURVE",
"659 795 CURVE SMOOTH",
"642 824 OFFCURVE",
"615 844 OFFCURVE",
"578 844 CURVE SMOOTH",
"545 844 OFFCURVE",
"510 835 OFFCURVE",
"473 810 CURVE SMOOTH",
"436 785 OFFCURVE",
"396 742 OFFCURVE",
"354 672 CURVE SMOOTH",
"313 602 OFFCURVE",
"269 504 OFFCURVE",
"224 372 CURVE",
"215 375 LINE"
);
}
);
width = 792;
}
);
note = N;
unicode = 004E;
},
{
glyphname = O;
lastChange = "2016-07-18 14:46:18 +0000";
layers = (
{
layerId = "ECEFE970-1BBB-4E0A-A452-CEB55884B4A3";
paths = (
{
closed = 1;
nodes = (
"455 -94 OFFCURVE",
"534 -54 OFFCURVE",
"599 8 CURVE SMOOTH",
"663 71 OFFCURVE",
"713 156 OFFCURVE",
"746 248 CURVE SMOOTH",
"779 339 OFFCURVE",
"797 437 OFFCURVE",
"797 524 CURVE SMOOTH",
"797 629 OFFCURVE",
"768 719 OFFCURVE",
"715 782 CURVE SMOOTH",
"662 845 OFFCURVE",
"583 882 OFFCURVE",
"486 882 CURVE SMOOTH",
"413 882 OFFCURVE",
"350 862 OFFCURVE",
"295 828 CURVE SMOOTH",
"240 793 OFFCURVE",
"194 745 OFFCURVE",
"158 689 CURVE SMOOTH",
"121 633 OFFCURVE",
"93 569 OFFCURVE",
"75 504 CURVE SMOOTH",
"56 438 OFFCURVE",
"47 372 OFFCURVE",
"47 309 CURVE SMOOTH",
"47 191 OFFCURVE",
"77 91 OFFCURVE",
"132 20 CURVE SMOOTH",
"187 -52 OFFCURVE",
"265 -94 OFFCURVE",
"362 -94 CURVE SMOOTH"
);
},
{
closed = 1;
nodes = (
"311 25 OFFCURVE",
"261 53 OFFCURVE",
"226 100 CURVE SMOOTH",
"191 146 OFFCURVE",
"172 211 OFFCURVE",
"172 285 CURVE SMOOTH",
"172 353 OFFCURVE",
"189 429 OFFCURVE",
"218 500 CURVE SMOOTH",
"248 572 OFFCURVE",
"290 639 OFFCURVE",
"339 688 CURVE SMOOTH",
"388 737 OFFCURVE",
"445 769 OFFCURVE",
"505 769 CURVE SMOOTH",
"561 769 OFFCURVE",
"603 744 OFFCURVE",
"631 703 CURVE SMOOTH",
"658 662 OFFCURVE",
"672 605 OFFCURVE",
"672 543 CURVE SMOOTH",
"672 500 OFFCURVE",
"667 446 OFFCURVE",
"655 390 CURVE SMOOTH",
"643 333 OFFCURVE",
"625 274 OFFCURVE",
"601 220 CURVE SMOOTH",
"577 166 OFFCURVE",
"546 117 OFFCURVE",
"509 82 CURVE SMOOTH",
"471 47 OFFCURVE",
"426 25 OFFCURVE",
"374 25 CURVE SMOOTH"
);
}
);
width = 797;
}
);
note = O;
unicode = 004F;
},
{
glyphname = Oslash;
lastChange = "2016-07-18 14:46:18 +0000";
layers = (
{
layerId = "ECEFE970-1BBB-4E0A-A452-CEB55884B4A3";
paths = (
{
closed = 1;
nodes = (
"455 -94 OFFCURVE",
"534 -54 OFFCURVE",
"599 8 CURVE SMOOTH",
"663 71 OFFCURVE",
"713 156 OFFCURVE",
"746 248 CURVE SMOOTH",
"779 339 OFFCURVE",
"797 437 OFFCURVE",
"797 524 CURVE SMOOTH",
"797 612 OFFCURVE",
"779 689 OFFCURVE",
"746 752 CURVE SMOOTH",
"712 814 OFFCURVE",
"663 860 OFFCURVE",
"601 885 CURVE",
"603 891 OFFCURVE",
"608 911 OFFCURVE",
"613 932 CURVE SMOOTH",
"619 952 OFFCURVE",
"624 974 OFFCURVE",
"624 983 CURVE",
"625 986 OFFCURVE",
"625 988 OFFCURVE",
"625 991 CURVE SMOOTH",
"625 993 OFFCURVE",
"625 996 OFFCURVE",
"625 998 CURVE SMOOTH",
"625 1017 OFFCURVE",
"622 1030 OFFCURVE",
"604 1030 CURVE SMOOTH",
"586 1030 OFFCURVE",
"571 1021 OFFCURVE",
"559 1006 CURVE SMOOTH",
"546 991 OFFCURVE",
"536 971 OFFCURVE",
"530 950 CURVE SMOOTH",
"518 905 LINE",
"507 906 OFFCURVE",
"497 906 OFFCURVE",
"486 906 CURVE SMOOTH",
"389 906 OFFCURVE",
"308 869 OFFCURVE",
"243 809 CURVE SMOOTH",
"178 750 OFFCURVE",
"129 667 OFFCURVE",
"96 579 CURVE SMOOTH",
"63 491 OFFCURVE",
"47 396 OFFCURVE",
"47 309 CURVE SMOOTH",
"47 218 OFFCURVE",
"65 137 OFFCURVE",
"99 72 CURVE SMOOTH",
"132 7 OFFCURVE",
"181 -42 OFFCURVE",
"243 -69 CURVE",
"230 -113 OFFCURVE",
"226 -146 OFFCURVE",
"226 -168 CURVE SMOOTH",
"226 -190 OFFCURVE",
"229 -202 OFFCURVE",
"236 -208 CURVE",
"242 -214 OFFCURVE",
"250 -215 OFFCURVE",
"260 -215 CURVE SMOOTH",
"268 -215 OFFCURVE",
"276 -213 OFFCURVE",
"284 -206 CURVE SMOOTH",
"292 -198 OFFCURVE",
"302 -184 OFFCURVE",
"310 -160 CURVE",
"330 -92 LINE",
"340 -93 OFFCURVE",
"351 -94 OFFCURVE",
"362 -94 CURVE SMOOTH"
);
},
{
closed = 1;
nodes = (
"372 16 OFFCURVE",
"370 16 OFFCURVE",
"368 16 CURVE SMOOTH",
"365 16 OFFCURVE",
"363 16 OFFCURVE",
"361 16 CURVE",
"375 63 OFFCURVE",
"388 111 OFFCURVE",
"402 159 CURVE SMOOTH",
"416 208 OFFCURVE",
"429 255 OFFCURVE",
"442 303 CURVE SMOOTH",
"455 350 OFFCURVE",
"468 396 OFFCURVE",
"480 442 CURVE SMOOTH",
"505 533 OFFCURVE",
"528 617 OFFCURVE",
"548 691 CURVE SMOOTH",
"559 729 OFFCURVE",
"568 763 OFFCURVE",
"576 794 CURVE",
"608 776 OFFCURVE",
"632 745 OFFCURVE",
"648 705 CURVE SMOOTH",
"664 665 OFFCURVE",
"672 615 OFFCURVE",
"672 563 CURVE SMOOTH",
"672 518 OFFCURVE",
"667 461 OFFCURVE",
"655 401 CURVE SMOOTH",
"643 342 OFFCURVE",
"625 278 OFFCURVE",
"601 222 CURVE SMOOTH",
"577 165 OFFCURVE",
"546 113 OFFCURVE",
"509 76 CURVE SMOOTH",
"471 39 OFFCURVE",
"426 16 OFFCURVE",
"374 16 CURVE SMOOTH"
);
},
{
closed = 1;
nodes = (
"242 66 OFFCURVE",
"216 100 OFFCURVE",
"199 141 CURVE SMOOTH",
"181 182 OFFCURVE",
"172 230 OFFCURVE",
"172 285 CURVE SMOOTH",
"172 356 OFFCURVE",
"188 438 OFFCURVE",
"216 514 CURVE SMOOTH",
"244 590 OFFCURVE",
"285 663 OFFCURVE",
"332 717 CURVE SMOOTH",
"379 771 OFFCURVE",
"434 808 OFFCURVE",
"492 812 CURVE",
"471 738 OFFCURVE",
"446 650 OFFCURVE",
"420 558 CURVE SMOOTH",
"394 465 OFFCURVE",
"367 369 OFFCURVE",
"341 280 CURVE SMOOTH",
"329 235 OFFCURVE",
"317 193 OFFCURVE",
"306 153 CURVE SMOOTH",
"294 113 OFFCURVE",
"284 77 OFFCURVE",
"275 44 CURVE"
);
}
);
width = 738;
}
);
note = Oslash;
unicode = 00D8;
},
{
glyphname = OE;
lastChange = "2016-07-18 14:46:18 +0000";
layers = (
{
layerId = "ECEFE970-1BBB-4E0A-A452-CEB55884B4A3";
paths = (
{
closed = 1;
nodes = (
"1214 205 OFFCURVE",
"1182 177 OFFCURVE",
"1141 152 CURVE SMOOTH",
"1100 126 OFFCURVE",
"1051 104 OFFCURVE",
"1000 88 CURVE SMOOTH",
"950 72 OFFCURVE",
"898 63 OFFCURVE",
"852 63 CURVE SMOOTH",
"813 63 OFFCURVE",
"779 70 OFFCURVE",
"755 90 CURVE SMOOTH",
"730 110 OFFCURVE",
"715 142 OFFCURVE",
"715 190 CURVE SMOOTH",
"715 198 OFFCURVE",
"717 211 OFFCURVE",
"721 229 CURVE SMOOTH",
"724 246 OFFCURVE",
"728 266 OFFCURVE",
"732 286 CURVE SMOOTH",
"738 309 OFFCURVE",
"744 333 OFFCURVE",
"750 359 CURVE",
"993 359 LINE SMOOTH",
"1015 359 OFFCURVE",
"1030 365 OFFCURVE",
"1040 375 CURVE SMOOTH",
"1049 384 OFFCURVE",
"1054 396 OFFCURVE",
"1054 408 CURVE SMOOTH",
"1054 419 OFFCURVE",
"1050 431 OFFCURVE",
"1043 439 CURVE SMOOTH",
"1037 447 OFFCURVE",
"1027 453 OFFCURVE",
"1016 453 CURVE SMOOTH",
"766 453 LINE",
"797 625 LINE SMOOTH",
"805 671 OFFCURVE",
"829 706 OFFCURVE",
"860 728 CURVE SMOOTH",
"892 750 OFFCURVE",
"933 760 OFFCURVE",
"976 760 CURVE SMOOTH",
"1013 760 OFFCURVE",
"1051 753 OFFCURVE",
"1088 738 CURVE SMOOTH",
"1125 723 OFFCURVE",
"1159 701 OFFCURVE",
"1188 672 CURVE",
"1234 766 LINE",
"1147 829 OFFCURVE",
"1056 864 OFFCURVE",
"969 864 CURVE SMOOTH",
"884 864 OFFCURVE",
"807 830 OFFCURVE",
"750 750 CURVE",
"727 797 OFFCURVE",
"688 836 OFFCURVE",
"642 863 CURVE SMOOTH",
"595 891 OFFCURVE",
"541 906 OFFCURVE",
"486 906 CURVE SMOOTH",
"389 906 OFFCURVE",
"308 869 OFFCURVE",
"243 809 CURVE SMOOTH",
"178 750 OFFCURVE",
"129 667 OFFCURVE",
"96 579 CURVE SMOOTH",
"63 491 OFFCURVE",
"47 396 OFFCURVE",
"47 309 CURVE SMOOTH",
"47 191 OFFCURVE",
"77 91 OFFCURVE",
"132 20 CURVE SMOOTH",
"187 -52 OFFCURVE",
"265 -94 OFFCURVE",
"362 -94 CURVE SMOOTH",
"416 -94 OFFCURVE",
"469 -78 OFFCURVE",
"516 -53 CURVE SMOOTH",
"563 -27 OFFCURVE",
"602 8 OFFCURVE",
"625 47 CURVE",
"648 16 OFFCURVE",
"682 -8 OFFCURVE",
"722 -23 CURVE SMOOTH",
"761 -39 OFFCURVE",
"807 -47 OFFCURVE",
"854 -47 CURVE SMOOTH",
"924 -47 OFFCURVE",
"1000 -32 OFFCURVE",
"1072 -4 CURVE SMOOTH",
"1144 24 OFFCURVE",
"1212 66 OFFCURVE",
"1265 122 CURVE",
"1231 233 LINE"
);
},
{
closed = 1;
nodes = (
"311 16 OFFCURVE",
"261 44 OFFCURVE",
"226 93 CURVE SMOOTH",
"191 141 OFFCURVE",
"172 208 OFFCURVE",
"172 285 CURVE SMOOTH",
"172 358 OFFCURVE",
"189 441 OFFCURVE",
"218 520 CURVE SMOOTH",
"248 598 OFFCURVE",
"290 671 OFFCURVE",
"339 725 CURVE SMOOTH",
"388 779 OFFCURVE",
"445 813 OFFCURVE",
"505 813 CURVE SMOOTH",
"554 813 OFFCURVE",
"592 794 OFFCURVE",
"620 761 CURVE SMOOTH",
"648 729 OFFCURVE",
"666 682 OFFCURVE",
"672 625 CURVE",
"578 172 LINE",
"554 127 OFFCURVE",
"525 88 OFFCURVE",
"491 61 CURVE SMOOTH",
"457 33 OFFCURVE",
"417 16 OFFCURVE",
"374 16 CURVE SMOOTH"
);
}
);
width = 1126;
}
);
note = OE;
unicode = 0152;
},
{
glyphname = P;
lastChange = "2016-07-18 14:46:18 +0000";
layers = (
{
layerId = "ECEFE970-1BBB-4E0A-A452-CEB55884B4A3";
paths = (
{
closed = 1;
nodes = (
"384 890 OFFCURVE",
"310 862 OFFCURVE",
"248 813 CURVE SMOOTH",
"185 763 OFFCURVE",
"134 693 OFFCURVE",
"99 609 CURVE SMOOTH",
"63 525 OFFCURVE",
"44 429 OFFCURVE",
"44 326 CURVE SMOOTH",
"44 266 OFFCURVE",
"50 196 OFFCURVE",
"63 129 CURVE SMOOTH",
"77 63 OFFCURVE",
"99 -1 OFFCURVE",
"130 -48 CURVE SMOOTH",
"162 -95 OFFCURVE",
"204 -125 OFFCURVE",
"257 -125 CURVE SMOOTH",
"307 -125 OFFCURVE",
"350 -104 OFFCURVE",
"384 -73 CURVE SMOOTH",
"418 -42 OFFCURVE",
"443 2 OFFCURVE",
"461 49 CURVE SMOOTH",
"479 96 OFFCURVE",
"488 146 OFFCURVE",
"490 192 CURVE SMOOTH",
"490 194 OFFCURVE",
"490 197 OFFCURVE",
"490 203 CURVE",
"490 208 OFFCURVE",
"490 214 OFFCURVE",
"491 221 CURVE",
"491 228 OFFCURVE",
"491 236 OFFCURVE",
"491 244 CURVE SMOOTH",
"492 252 OFFCURVE",
"492 261 OFFCURVE",
"492 270 CURVE SMOOTH",
"493 290 OFFCURVE",
"494 311 OFFCURVE",
"495 335 CURVE",
"597 351 OFFCURVE",
"673 391 OFFCURVE",
"723 444 CURVE SMOOTH",
"772 497 OFFCURVE",
"797 561 OFFCURVE",
"797 625 CURVE SMOOTH",
"797 693 OFFCURVE",
"769 760 OFFCURVE",
"714 809 CURVE SMOOTH",
"660 858 OFFCURVE",
"577 890 OFFCURVE",
"468 890 CURVE SMOOTH"
);
},
{
closed = 1;
nodes = (
"175 403 OFFCURVE",
"184 474 OFFCURVE",
"204 539 CURVE SMOOTH",
"224 604 OFFCURVE",
"254 663 OFFCURVE",
"296 706 CURVE SMOOTH",
"337 749 OFFCURVE",
"391 775 OFFCURVE",
"457 775 CURVE SMOOTH",
"544 775 OFFCURVE",
"601 753 OFFCURVE",
"635 722 CURVE SMOOTH",
"670 690 OFFCURVE",
"682 650 OFFCURVE",
"682 614 CURVE SMOOTH",
"682 577 OFFCURVE",
"668 541 OFFCURVE",
"638 511 CURVE SMOOTH",
"607 482 OFFCURVE",
"562 459 OFFCURVE",
"498 450 CURVE",
"502 488 LINE",
"532 614 LINE",
"532 615 OFFCURVE",
"532 616 OFFCURVE",
"532 617 CURVE",
"532 618 OFFCURVE",
"532 619 OFFCURVE",
"532 622 CURVE SMOOTH",
"532 638 OFFCURVE",
"524 648 OFFCURVE",
"515 654 CURVE",
"504 660 OFFCURVE",
"491 662 OFFCURVE",
"479 662 CURVE SMOOTH",
"441 662 OFFCURVE",
"416 641 OFFCURVE",
"399 611 CURVE SMOOTH",
"383 582 OFFCURVE",
"375 545 OFFCURVE",
"372 513 CURVE SMOOTH",
"368 480 OFFCURVE",
"369 453 OFFCURVE",
"369 444 CURVE",
"363 446 OFFCURVE",
"356 448 OFFCURVE",
"349 450 CURVE SMOOTH",
"337 455 OFFCURVE",
"319 462 OFFCURVE",
"297 474 CURVE SMOOTH",
"289 478 OFFCURVE",
"284 481 OFFCURVE",
"278 481 CURVE SMOOTH",
"268 481 OFFCURVE",
"263 475 OFFCURVE",
"260 466 CURVE SMOOTH",
"257 458 OFFCURVE",
"257 445 OFFCURVE",
"257 434 CURVE SMOOTH",
"257 412 OFFCURVE",
"259 396 OFFCURVE",
"275 381 CURVE SMOOTH",
"291 366 OFFCURVE",
"319 351 OFFCURVE",
"374 329 CURVE",
"374 306 LINE SMOOTH",
"374 276 OFFCURVE",
"373 231 OFFCURVE",
"368 185 CURVE SMOOTH",
"364 138 OFFCURVE",
"355 89 OFFCURVE",
"339 52 CURVE SMOOTH",
"324 15 OFFCURVE",
"301 -10 OFFCURVE",
"268 -10 CURVE SMOOTH",
"236 -10 OFFCURVE",
"215 20 OFFCURVE",
"202 63 CURVE SMOOTH",
"188 105 OFFCURVE",
"181 161 OFFCURVE",
"178 212 CURVE SMOOTH",
"174 263 OFFCURVE",
"175 312 OFFCURVE",
"175 338 CURVE SMOOTH"
);
}
);
width = 704;
}
);
note = P;
unicode = 0050;
},
{
glyphname = Thorn;
lastChange = "2016-07-18 14:46:18 +0000";
layers = (
{
layerId = "ECEFE970-1BBB-4E0A-A452-CEB55884B4A3";
paths = (
{
closed = 1;
nodes = (
"545 204 OFFCURVE",
"621 235 OFFCURVE",
"671 275 CURVE SMOOTH",
"721 315 OFFCURVE",
"745 363 OFFCURVE",
"745 414 CURVE SMOOTH",
"745 474 OFFCURVE",
"723 533 OFFCURVE",
"680 580 CURVE SMOOTH",
"636 627 OFFCURVE",
"571 662 OFFCURVE",
"485 674 CURVE",
"492 740 LINE",
"527 906 LINE",
"527 907 OFFCURVE",
"527 908 OFFCURVE",
"527 909 CURVE",
"527 910 OFFCURVE",
"527 911 OFFCURVE",
"527 914 CURVE SMOOTH",
"527 930 OFFCURVE",
"521 940 OFFCURVE",
"513 946 CURVE",
"505 952 OFFCURVE",
"494 954 OFFCURVE",
"484 954 CURVE SMOOTH",
"453 954 OFFCURVE",
"431 936 OFFCURVE",
"414 909 CURVE SMOOTH",
"397 882 OFFCURVE",
"387 847 OFFCURVE",
"380 813 CURVE SMOOTH",
"373 780 OFFCURVE",
"370 748 OFFCURVE",
"369 727 CURVE SMOOTH",
"369 726 OFFCURVE",
"369 720 OFFCURVE",
"368 711 CURVE",
"367 702 OFFCURVE",
"366 690 OFFCURVE",
"364 675 CURVE",
"269 662 OFFCURVE",
"189 613 OFFCURVE",
"133 536 CURVE SMOOTH",
"78 458 OFFCURVE",
"46 351 OFFCURVE",
"46 223 CURVE SMOOTH",
"46 170 OFFCURVE",
"51 109 OFFCURVE",
"61 50 CURVE SMOOTH",
"71 -9 OFFCURVE",
"89 -64 OFFCURVE",
"113 -105 CURVE SMOOTH",
"137 -147 OFFCURVE",
"169 -173 OFFCURVE",
"210 -173 CURVE SMOOTH",
"286 -173 OFFCURVE",
"334 -149 OFFCURVE",
"370 -92 CURVE SMOOTH",
"404 -34 OFFCURVE",
"425 57 OFFCURVE",
"443 192 CURVE"
);
},
{
closed = 1;
nodes = (
"177 312 OFFCURVE",
"190 384 OFFCURVE",
"218 442 CURVE SMOOTH",
"247 500 OFFCURVE",
"291 543 OFFCURVE",
"353 558 CURVE",
"349 519 OFFCURVE",
"345 477 OFFCURVE",
"342 438 CURVE SMOOTH",
"338 399 OFFCURVE",
"334 365 OFFCURVE",
"332 339 CURVE SMOOTH",
"331 327 OFFCURVE",
"330 316 OFFCURVE",
"329 309 CURVE SMOOTH",
"329 301 OFFCURVE",
"328 297 OFFCURVE",
"328 297 CURVE",
"322 297 OFFCURVE",
"315 298 OFFCURVE",
"308 299 CURVE",
"303 300 OFFCURVE",
"299 301 OFFCURVE",
"294 301 CURVE",
"286 306 OFFCURVE",
"281 309 OFFCURVE",
"275 309 CURVE SMOOTH",
"265 309 OFFCURVE",
"260 303 OFFCURVE",
"257 294 CURVE SMOOTH",
"254 285 OFFCURVE",
"254 273 OFFCURVE",
"254 261 CURVE SMOOTH",
"254 247 OFFCURVE",
"255 237 OFFCURVE",
"264 228 CURVE SMOOTH",
"273 219 OFFCURVE",
"290 209 OFFCURVE",
"322 196 CURVE",
"322 178 OFFCURVE",
"319 144 OFFCURVE",
"313 106 CURVE SMOOTH",
"306 69 OFFCURVE",
"296 27 OFFCURVE",
"281 -5 CURVE SMOOTH",
"266 -37 OFFCURVE",
"246 -59 OFFCURVE",
"221 -59 CURVE SMOOTH",
"213 -59 OFFCURVE",
"207 -53 OFFCURVE",
"202 -42 CURVE SMOOTH",
"191 -20 OFFCURVE",
"185 18 OFFCURVE",
"182 62 CURVE SMOOTH",
"178 106 OFFCURVE",
"177 152 OFFCURVE",
"177 190 CURVE SMOOTH",
"177 209 OFFCURVE",
"177 224 OFFCURVE",
"177 236 CURVE SMOOTH"
);
},
{
closed = 1;
nodes = (
"630 381 OFFCURVE",
"616 360 OFFCURVE",
"586 343 CURVE SMOOTH",
"556 326 OFFCURVE",
"510 313 OFFCURVE",
"446 307 CURVE",
"473 559 LINE",
"533 549 OFFCURVE",
"573 525 OFFCURVE",
"597 496 CURVE SMOOTH",
"622 467 OFFCURVE",
"630 433 OFFCURVE",
"630 402 CURVE SMOOTH"
);
}
);
width = 594;
}
);
note = Thorn;
unicode = 00DE;
},
{
glyphname = Q;
lastChange = "2016-07-18 14:46:18 +0000";
layers = (
{
layerId = "ECEFE970-1BBB-4E0A-A452-CEB55884B4A3";
paths = (
{
closed = 1;
nodes = (
"797 635 OFFCURVE",
"768 733 OFFCURVE",
"714 800 CURVE SMOOTH",
"661 868 OFFCURVE",
"583 906 OFFCURVE",
"486 906 CURVE SMOOTH",
"390 906 OFFCURVE",
"309 870 OFFCURVE",
"244 810 CURVE SMOOTH",
"179 750 OFFCURVE",
"129 669 OFFCURVE",
"97 581 CURVE SMOOTH",
"63 492 OFFCURVE",
"47 395 OFFCURVE",
"47 307 CURVE SMOOTH",
"47 211 OFFCURVE",
"67 122 OFFCURVE",
"112 52 CURVE SMOOTH",
"157 -18 OFFCURVE",
"226 -68 OFFCURVE",
"325 -85 CURVE",
"341 -101 OFFCURVE",
"351 -131 OFFCURVE",
"364 -166 CURVE SMOOTH",
"377 -201 OFFCURVE",
"392 -239 OFFCURVE",
"417 -268 CURVE SMOOTH",
"441 -298 OFFCURVE",
"474 -319 OFFCURVE",
"523 -319 CURVE SMOOTH",
"544 -319 OFFCURVE",
"564 -316 OFFCURVE",
"583 -311 CURVE SMOOTH",
"621 -299 OFFCURVE",
"655 -282 OFFCURVE",
"683 -262 CURVE SMOOTH",
"710 -243 OFFCURVE",
"730 -225 OFFCURVE",
"741 -213 CURVE SMOOTH",
"747 -208 OFFCURVE",
"750 -205 OFFCURVE",
"750 -205 CURVE SMOOTH",
"751 -203 OFFCURVE",
"753 -200 OFFCURVE",
"755 -197 CURVE",
"757 -193 OFFCURVE",
"758 -188 OFFCURVE",
"758 -179 CURVE SMOOTH",
"758 -166 OFFCURVE",
"755 -150 OFFCURVE",
"749 -136 CURVE SMOOTH",
"742 -123 OFFCURVE",
"730 -112 OFFCURVE",
"713 -109 CURVE",
"709 -109 OFFCURVE",
"702 -108 OFFCURVE",
"695 -114 CURVE",
"682 -129 OFFCURVE",
"669 -142 OFFCURVE",
"655 -153 CURVE SMOOTH",
"631 -173 OFFCURVE",
"600 -192 OFFCURVE",
"569 -192 CURVE SMOOTH",
"553 -192 OFFCURVE",
"539 -189 OFFCURVE",
"526 -182 CURVE SMOOTH",
"501 -168 OFFCURVE",
"479 -146 OFFCURVE",
"456 -117 CURVE SMOOTH",
"444 -103 OFFCURVE",
"430 -87 OFFCURVE",
"415 -72 CURVE",
"503 -61 OFFCURVE",
"575 -17 OFFCURVE",
"631 45 CURVE SMOOTH",
"688 107 OFFCURVE",
"729 188 OFFCURVE",
"757 272 CURVE SMOOTH",
"784 356 OFFCURVE",
"797 443 OFFCURVE",
"797 520 CURVE SMOOTH"
);
},
{
closed = 1;
nodes = (
"315 31 OFFCURVE",
"269 60 OFFCURVE",
"237 108 CURVE SMOOTH",
"205 156 OFFCURVE",
"188 223 OFFCURVE",
"188 299 CURVE SMOOTH",
"188 372 OFFCURVE",
"203 453 OFFCURVE",
"230 529 CURVE SMOOTH",
"257 605 OFFCURVE",
"296 675 OFFCURVE",
"341 728 CURVE SMOOTH",
"387 780 OFFCURVE",
"440 813 OFFCURVE",
"495 813 CURVE SMOOTH",
"550 813 OFFCURVE",
"590 785 OFFCURVE",
"617 739 CURVE SMOOTH",
"644 692 OFFCURVE",
"656 627 OFFCURVE",
"656 553 CURVE SMOOTH",
"656 510 OFFCURVE",
"651 455 OFFCURVE",
"640 398 CURVE SMOOTH",
"629 341 OFFCURVE",
"612 282 OFFCURVE",
"589 228 CURVE SMOOTH",
"566 173 OFFCURVE",
"538 124 OFFCURVE",
"502 88 CURVE SMOOTH",
"466 53 OFFCURVE",
"423 31 OFFCURVE",
"374 31 CURVE SMOOTH"
);
}
);
width = 738;
}
);
note = Q;
unicode = 0051;
},
{
glyphname = R;
lastChange = "2016-07-18 14:46:18 +0000";
layers = (
{
layerId = "ECEFE970-1BBB-4E0A-A452-CEB55884B4A3";
paths = (
{
closed = 1;
nodes = (
"891 665 OFFCURVE",
"874 706 OFFCURVE",
"847 740 CURVE SMOOTH",
"820 773 OFFCURVE",
"781 799 OFFCURVE",
"738 817 CURVE SMOOTH",
"694 834 OFFCURVE",
"645 844 OFFCURVE",
"596 844 CURVE SMOOTH",
"486 844 OFFCURVE",
"387 813 OFFCURVE",
"303 761 CURVE SMOOTH",
"219 708 OFFCURVE",
"151 635 OFFCURVE",
"104 549 CURVE SMOOTH",
"57 463 OFFCURVE",
"31 365 OFFCURVE",
"31 264 CURVE SMOOTH",
"31 208 OFFCURVE",
"40 150 OFFCURVE",
"58 97 CURVE SMOOTH",
"75 44 OFFCURVE",
"101 -3 OFFCURVE",
"136 -38 CURVE SMOOTH",
"170 -73 OFFCURVE",
"213 -94 OFFCURVE",
"266 -94 CURVE SMOOTH",
"336 -94 OFFCURVE",
"383 -51 OFFCURVE",
"416 28 CURVE SMOOTH",
"448 106 OFFCURVE",
"465 221 OFFCURVE",
"479 363 CURVE",
"509 363 LINE SMOOTH",
"522 363 OFFCURVE",
"533 357 OFFCURVE",
"541 346 CURVE SMOOTH",
"558 322 OFFCURVE",
"570 283 OFFCURVE",
"580 234 CURVE SMOOTH",
"585 209 OFFCURVE",
"590 184 OFFCURVE",
"596 158 CURVE SMOOTH",
"608 107 OFFCURVE",
"623 56 OFFCURVE",
"646 17 CURVE SMOOTH",
"669 -21 OFFCURVE",
"702 -47 OFFCURVE",
"750 -47 CURVE SMOOTH",
"771 -47 OFFCURVE",
"792 -44 OFFCURVE",
"812 -40 CURVE SMOOTH",
"853 -31 OFFCURVE",
"890 -17 OFFCURVE",
"920 0 CURVE SMOOTH",
"950 15 OFFCURVE",
"973 29 OFFCURVE",
"985 38 CURVE SMOOTH",
"991 42 OFFCURVE",
"994 44 OFFCURVE",
"994 44 CURVE",
"938 140 LINE",
"914 117 OFFCURVE",
"886 98 OFFCURVE",
"859 84 CURVE SMOOTH",
"831 70 OFFCURVE",
"804 63 OFFCURVE",
"782 63 CURVE SMOOTH",
"770 63 OFFCURVE",
"760 66 OFFCURVE",
"753 74 CURVE SMOOTH",
"739 88 OFFCURVE",
"730 113 OFFCURVE",
"723 146 CURVE SMOOTH",
"720 162 OFFCURVE",
"716 178 OFFCURVE",
"711 196 CURVE SMOOTH",
"703 231 OFFCURVE",
"692 269 OFFCURVE",
"672 302 CURVE SMOOTH",
"651 334 OFFCURVE",
"622 362 OFFCURVE",
"576 379 CURVE",
"651 383 OFFCURVE",
"710 401 OFFCURVE",
"757 426 CURVE SMOOTH",
"804 451 OFFCURVE",
"837 483 OFFCURVE",
"859 517 CURVE SMOOTH",
"880 550 OFFCURVE",
"891 585 OFFCURVE",
"891 617 CURVE SMOOTH"
);
},
{
closed = 1;
nodes = (
"646 734 OFFCURVE",
"690 720 OFFCURVE",
"720 698 CURVE SMOOTH",
"750 675 OFFCURVE",
"766 645 OFFCURVE",
"766 613 CURVE SMOOTH",
"766 580 OFFCURVE",
"751 543 OFFCURVE",
"711 514 CURVE SMOOTH",
"670 485 OFFCURVE",
"604 464 OFFCURVE",
"498 462 CURVE",
"500 489 OFFCURVE",
"504 512 OFFCURVE",
"507 533 CURVE SMOOTH",
"511 553 OFFCURVE",
"512 569 OFFCURVE",
"513 582 CURVE",
"513 586 LINE SMOOTH",
"513 609 OFFCURVE",
"505 625 OFFCURVE",
"472 625 CURVE SMOOTH",
"447 625 OFFCURVE",
"431 613 OFFCURVE",
"418 596 CURVE SMOOTH",
"406 579 OFFCURVE",
"399 557 OFFCURVE",
"395 536 CURVE SMOOTH",
"391 515 OFFCURVE",
"390 495 OFFCURVE",
"389 485 CURVE SMOOTH",
"389 475 LINE",
"385 475 OFFCURVE",
"371 477 OFFCURVE",
"355 479 CURVE SMOOTH",
"340 481 OFFCURVE",
"325 483 OFFCURVE",
"320 483 CURVE SMOOTH",
"310 483 OFFCURVE",
"304 477 OFFCURVE",
"301 469 CURVE SMOOTH",
"297 461 OFFCURVE",
"297 451 OFFCURVE",
"297 444 CURVE SMOOTH",
"297 417 OFFCURVE",
"324 398 OFFCURVE",
"375 375 CURVE",
"375 359 OFFCURVE",
"374 330 OFFCURVE",
"372 293 CURVE SMOOTH",
"370 257 OFFCURVE",
"366 214 OFFCURVE",
"359 173 CURVE SMOOTH",
"353 132 OFFCURVE",
"343 92 OFFCURVE",
"330 63 CURVE SMOOTH",
"317 34 OFFCURVE",
"300 16 OFFCURVE",
"278 16 CURVE SMOOTH",
"235 16 OFFCURVE",
"204 44 OFFCURVE",
"185 87 CURVE SMOOTH",
"165 129 OFFCURVE",
"156 185 OFFCURVE",
"156 238 CURVE SMOOTH",
"156 306 OFFCURVE",
"168 384 OFFCURVE",
"196 458 CURVE SMOOTH",
"224 531 OFFCURVE",
"269 601 OFFCURVE",
"333 651 CURVE SMOOTH",
"396 702 OFFCURVE",
"480 734 OFFCURVE",
"587 734 CURVE SMOOTH"
);
}
);
width = 830;
}
);
note = R;
unicode = 0052;
},
{
glyphname = S;
lastChange = "2016-07-18 14:46:18 +0000";
layers = (
{
layerId = "ECEFE970-1BBB-4E0A-A452-CEB55884B4A3";
paths = (
{
closed = 1;
nodes = (
"358 666 OFFCURVE",
"372 693 OFFCURVE",
"401 715 CURVE SMOOTH",
"430 736 OFFCURVE",
"473 750 OFFCURVE",
"531 750 CURVE SMOOTH",
"584 750 OFFCURVE",
"629 742 OFFCURVE",
"661 725 CURVE SMOOTH",
"692 708 OFFCURVE",
"711 683 OFFCURVE",
"711 650 CURVE SMOOTH",
"711 628 OFFCURVE",
"703 604 OFFCURVE",
"686 575 CURVE SMOOTH",
"667 545 OFFCURVE",
"660 522 OFFCURVE",
"660 505 CURVE SMOOTH",
"660 482 OFFCURVE",
"673 471 OFFCURVE",
"693 471 CURVE SMOOTH",
"719 471 OFFCURVE",
"754 490 OFFCURVE",
"781 531 CURVE SMOOTH",
"809 574 OFFCURVE",
"821 612 OFFCURVE",
"821 649 CURVE SMOOTH",
"821 712 OFFCURVE",
"788 764 OFFCURVE",
"737 801 CURVE SMOOTH",
"686 838 OFFCURVE",
"619 859 OFFCURVE",
"551 859 CURVE SMOOTH",
"444 859 OFFCURVE",
"365 831 OFFCURVE",
"312 789 CURVE SMOOTH",
"259 747 OFFCURVE",
"232 691 OFFCURVE",
"232 637 CURVE SMOOTH",
"232 578 OFFCURVE",
"260 533 OFFCURVE",
"301 496 CURVE SMOOTH",
"342 459 OFFCURVE",
"397 429 OFFCURVE",
"452 401 CURVE SMOOTH",
"507 373 OFFCURVE",
"562 347 OFFCURVE",
"604 316 CURVE SMOOTH",
"645 285 OFFCURVE",
"672 250 OFFCURVE",
"672 203 CURVE SMOOTH",
"672 153 OFFCURVE",
"641 114 OFFCURVE",
"596 87 CURVE SMOOTH",
"551 61 OFFCURVE",
"492 47 OFFCURVE",
"435 47 CURVE SMOOTH",
"387 47 OFFCURVE",
"340 57 OFFCURVE",
"306 79 CURVE SMOOTH",
"271 100 OFFCURVE",
"249 133 OFFCURVE",
"249 179 CURVE SMOOTH",
"249 189 OFFCURVE",
"249 199 OFFCURVE",
"250 208 CURVE SMOOTH",
"253 225 OFFCURVE",
"256 240 OFFCURVE",
"259 252 CURVE SMOOTH",
"260 258 OFFCURVE",
"261 264 OFFCURVE",
"261 270 CURVE SMOOTH",
"261 293 OFFCURVE",
"245 305 OFFCURVE",
"224 305 CURVE SMOOTH",
"204 305 OFFCURVE",
"179 294 OFFCURVE",
"159 273 CURVE SMOOTH",
"139 251 OFFCURVE",
"124 220 OFFCURVE",
"124 178 CURVE SMOOTH",
"124 98 OFFCURVE",
"163 38 OFFCURVE",
"223 -2 CURVE SMOOTH",
"283 -42 OFFCURVE",
"363 -63 OFFCURVE",
"444 -63 CURVE SMOOTH",
"502 -63 OFFCURVE",
"561 -52 OFFCURVE",
"613 -33 CURVE SMOOTH",
"665 -13 OFFCURVE",
"711 17 OFFCURVE",
"744 56 CURVE SMOOTH",
"777 95 OFFCURVE",
"797 145 OFFCURVE",
"797 203 CURVE SMOOTH",
"797 235 OFFCURVE",
"791 264 OFFCURVE",
"778 289 CURVE SMOOTH",
"753 339 OFFCURVE",
"710 378 OFFCURVE",
"658 410 CURVE SMOOTH",
"605 441 OFFCURVE",
"549 469 OFFCURVE",
"497 495 CURVE SMOOTH",
"471 508 OFFCURVE",
"447 521 OFFCURVE",
"427 536 CURVE SMOOTH",
"385 565 OFFCURVE",
"358 598 OFFCURVE",
"358 641 CURVE SMOOTH"
);
}
);
width = 828;
}
);
note = S;
unicode = 0053;
},
{
glyphname = T;
lastChange = "2016-07-18 14:46:18 +0000";
layers = (
{
layerId = "ECEFE970-1BBB-4E0A-A452-CEB55884B4A3";
paths = (
{
closed = 1;
nodes = (
"98 638 OFFCURVE",
"101 627 OFFCURVE",
"107 618 CURVE SMOOTH",
"117 603 OFFCURVE",
"137 587 OFFCURVE",
"176 587 CURVE SMOOTH",
"195 587 OFFCURVE",
"210 590 OFFCURVE",
"221 597 CURVE SMOOTH",
"242 609 OFFCURVE",
"251 625 OFFCURVE",
"253 639 CURVE",
"253 645 OFFCURVE",
"254 649 OFFCURVE",
"254 649 CURVE SMOOTH",
"254 674 OFFCURVE",
"268 692 OFFCURVE",
"290 705 CURVE SMOOTH",
"311 718 OFFCURVE",
"341 726 OFFCURVE",
"375 732 CURVE SMOOTH",
"408 737 OFFCURVE",
"444 740 OFFCURVE",
"479 743 CURVE",
"439 619 OFFCURVE",
"405 520 OFFCURVE",
"375 436 CURVE SMOOTH",
"346 352 OFFCURVE",
"322 284 OFFCURVE",
"303 222 CURVE SMOOTH",
"284 160 OFFCURVE",
"270 104 OFFCURVE",
"262 45 CURVE",
"260 38 OFFCURVE",
"259 31 OFFCURVE",
"259 24 CURVE SMOOTH",
"259 -15 OFFCURVE",
"286 -31 OFFCURVE",
"323 -31 CURVE SMOOTH",
"335 -31 OFFCURVE",
"350 -23 OFFCURVE",
"364 -10 CURVE SMOOTH",
"377 4 OFFCURVE",
"388 23 OFFCURVE",
"394 45 CURVE SMOOTH",
"400 69 OFFCURVE",
"408 98 OFFCURVE",
"417 131 CURVE SMOOTH",
"427 165 OFFCURVE",
"437 202 OFFCURVE",
"448 241 CURVE SMOOTH",
"470 320 OFFCURVE",
"495 409 OFFCURVE",
"517 497 CURVE SMOOTH",
"539 584 OFFCURVE",
"558 670 OFFCURVE",
"569 743 CURVE",
"636 739 OFFCURVE",
"698 732 OFFCURVE",
"757 726 CURVE SMOOTH",
"816 719 OFFCURVE",
"870 713 OFFCURVE",
"920 713 CURVE SMOOTH",
"935 713 OFFCURVE",
"948 720 OFFCURVE",
"958 730 CURVE SMOOTH",
"968 740 OFFCURVE",
"974 753 OFFCURVE",
"974 766 CURVE SMOOTH",
"974 787 OFFCURVE",
"963 806 OFFCURVE",
"932 812 CURVE SMOOTH",
"797 836 OFFCURVE",
"673 844 OFFCURVE",
"560 844 CURVE SMOOTH",
"476 844 OFFCURVE",
"397 840 OFFCURVE",
"329 830 CURVE SMOOTH",
"260 820 OFFCURVE",
"202 802 OFFCURVE",
"162 773 CURVE SMOOTH",
"121 744 OFFCURVE",
"97 704 OFFCURVE",
"97 649 CURVE"
);
}
);
width = 750;
}
);
note = T;
unicode = 0054;
},
{
glyphname = U;
lastChange = "2016-07-18 14:46:18 +0000";
layers = (
{
layerId = "ECEFE970-1BBB-4E0A-A452-CEB55884B4A3";
paths = (
{
closed = 1;
nodes = (
"605 680 OFFCURVE",
"595 591 OFFCURVE",
"580 506 CURVE SMOOTH",
"564 421 OFFCURVE",
"545 340 OFFCURVE",
"520 270 CURVE SMOOTH",
"495 199 OFFCURVE",
"465 140 OFFCURVE",
"432 98 CURVE SMOOTH",
"398 56 OFFCURVE",
"360 31 OFFCURVE",
"318 31 CURVE SMOOTH",
"263 31 OFFCURVE",
"227 54 OFFCURVE",
"204 91 CURVE SMOOTH",
"181 128 OFFCURVE",
"172 180 OFFCURVE",
"172 238 CURVE SMOOTH",
"172 267 OFFCURVE",
"174 296 OFFCURVE",
"178 328 CURVE SMOOTH",
"186 391 OFFCURVE",
"200 455 OFFCURVE",
"216 516 CURVE SMOOTH",
"232 576 OFFCURVE",
"248 629 OFFCURVE",
"262 670 CURVE SMOOTH",
"268 690 OFFCURVE",
"273 707 OFFCURVE",
"277 719 CURVE",
"279 724 OFFCURVE",
"280 729 OFFCURVE",
"280 734 CURVE SMOOTH",
"281 738 OFFCURVE",
"281 743 OFFCURVE",
"282 747 CURVE",
"282 750 LINE SMOOTH",
"282 771 OFFCURVE",
"275 782 OFFCURVE",
"262 789 CURVE SMOOTH",
"249 795 OFFCURVE",
"230 797 OFFCURVE",
"205 797 CURVE SMOOTH",
"192 797 OFFCURVE",
"180 796 OFFCURVE",
"167 786 CURVE SMOOTH",
"155 776 OFFCURVE",
"142 756 OFFCURVE",
"130 719 CURVE SMOOTH",
"110 665 OFFCURVE",
"89 596 OFFCURVE",
"74 521 CURVE SMOOTH",
"58 446 OFFCURVE",
"47 365 OFFCURVE",
"47 287 CURVE SMOOTH",
"47 189 OFFCURVE",
"62 98 OFFCURVE",
"102 31 CURVE SMOOTH",
"141 -36 OFFCURVE",
"205 -78 OFFCURVE",
"303 -78 CURVE SMOOTH",
"384 -78 OFFCURVE",
"461 -43 OFFCURVE",
"528 23 CURVE SMOOTH",
"594 90 OFFCURVE",
"649 188 OFFCURVE",
"688 315 CURVE SMOOTH",
"728 442 OFFCURVE",
"750 598 OFFCURVE",
"750 778 CURVE SMOOTH",
"750 804 OFFCURVE",
"745 820 OFFCURVE",
"736 831 CURVE",
"726 840 OFFCURVE",
"712 844 OFFCURVE",
"695 844 CURVE SMOOTH",
"675 844 OFFCURVE",
"654 841 OFFCURVE",
"639 830 CURVE SMOOTH",
"623 818 OFFCURVE",
"611 799 OFFCURVE",
"609 766 CURVE SMOOTH"
);
}
);
width = 675;
}
);
note = U;
unicode = 0055;
},
{
glyphname = V;
lastChange = "2016-07-18 14:46:18 +0000";
layers = (
{
layerId = "ECEFE970-1BBB-4E0A-A452-CEB55884B4A3";
paths = (
{
closed = 1;
nodes = (
"46 213 OFFCURVE",
"48 193 OFFCURVE",
"48 172 CURVE SMOOTH",
"49 152 OFFCURVE",
"50 132 OFFCURVE",
"52 114 CURVE SMOOTH",
"55 77 OFFCURVE",
"61 44 OFFCURVE",
"75 21 CURVE SMOOTH",
"90 -2 OFFCURVE",
"113 -16 OFFCURVE",
"152 -16 CURVE SMOOTH",
"181 -16 OFFCURVE",
"210 -2 OFFCURVE",
"241 34 CURVE SMOOTH",
"272 70 OFFCURVE",
"305 129 OFFCURVE",
"344 219 CURVE",
"342 208 OFFCURVE",
"341 197 OFFCURVE",
"341 187 CURVE SMOOTH",
"341 148 OFFCURVE",
"354 117 OFFCURVE",
"377 95 CURVE SMOOTH",
"401 73 OFFCURVE",
"436 60 OFFCURVE",
"480 60 CURVE SMOOTH",
"527 60 OFFCURVE",
"582 88 OFFCURVE",
"636 131 CURVE",
"647 232 LINE",
"631 217 OFFCURVE",
"615 204 OFFCURVE",
"599 192 CURVE SMOOTH",
"585 182 OFFCURVE",
"571 172 OFFCURVE",
"557 165 CURVE SMOOTH",
"543 157 OFFCURVE",
"530 152 OFFCURVE",
"520 152 CURVE SMOOTH",
"477 152 OFFCURVE",
"445 164 OFFCURVE",
"425 182 CURVE SMOOTH",
"404 200 OFFCURVE",
"395 224 OFFCURVE",
"395 249 CURVE SMOOTH",
"395 265 OFFCURVE",
"398 282 OFFCURVE",
"406 297 CURVE SMOOTH",
"434 347 OFFCURVE",
"465 405 OFFCURVE",
"495 463 CURVE SMOOTH",
"524 521 OFFCURVE",
"553 579 OFFCURVE",
"573 627 CURVE SMOOTH",
"594 676 OFFCURVE",
"607 717 OFFCURVE",
"607 740 CURVE SMOOTH",
"607 773 OFFCURVE",
"593 796 OFFCURVE",
"569 796 CURVE SMOOTH",
"549 796 OFFCURVE",
"530 790 OFFCURVE",
"514 779 CURVE SMOOTH",
"499 768 OFFCURVE",
"487 753 OFFCURVE",
"482 737 CURVE",
"165 127 LINE",
"143 708 LINE",
"143 730 OFFCURVE",
"141 749 OFFCURVE",
"132 762 CURVE SMOOTH",
"123 774 OFFCURVE",
"108 781 OFFCURVE",
"84 781 CURVE SMOOTH",
"72 781 OFFCURVE",
"55 781 OFFCURVE",
"41 771 CURVE SMOOTH",
"27 761 OFFCURVE",
"15 741 OFFCURVE",
"15 701 CURVE SMOOTH",
"15 688 OFFCURVE",
"16 671 OFFCURVE",
"17 651 CURVE SMOOTH",
"18 610 OFFCURVE",
"21 561 OFFCURVE",
"24 508 CURVE SMOOTH",
"28 455 OFFCURVE",
"31 403 OFFCURVE",
"35 356 CURVE SMOOTH",
"37 333 OFFCURVE",
"38 313 OFFCURVE",
"40 294 CURVE SMOOTH",
"41 276 OFFCURVE",
"42 262 OFFCURVE",
"43 251 CURVE SMOOTH",
"44 241 OFFCURVE",
"44 235 OFFCURVE",
"44 234 CURVE"
);
}
);
width = 516;
}
);
note = V;
unicode = 0056;
},
{
glyphname = W;
lastChange = "2016-07-18 14:46:18 +0000";
layers = (
{
layerId = "ECEFE970-1BBB-4E0A-A452-CEB55884B4A3";
paths = (
{
closed = 1;
nodes = (
"422 772 OFFCURVE",
"417 783 OFFCURVE",
"410 790 CURVE",
"401 795 OFFCURVE",
"389 797 OFFCURVE",
"375 797 CURVE SMOOTH",
"357 797 OFFCURVE",
"340 796 OFFCURVE",
"323 787 CURVE SMOOTH",
"306 776 OFFCURVE",
"290 756 OFFCURVE",
"274 719 CURVE SMOOTH",
"247 651 OFFCURVE",
"225 579 OFFCURVE",
"210 506 CURVE SMOOTH",
"196 433 OFFCURVE",
"188 359 OFFCURVE",
"188 291 CURVE SMOOTH",
"188 178 OFFCURVE",
"207 94 OFFCURVE",
"237 38 CURVE SMOOTH",
"266 -19 OFFCURVE",
"307 -47 OFFCURVE",
"350 -47 CURVE SMOOTH",
"424 -47 OFFCURVE",
"486 -23 OFFCURVE",
"534 37 CURVE SMOOTH",
"582 98 OFFCURVE",
"617 195 OFFCURVE",
"641 344 CURVE",
"640 333 OFFCURVE",
"638 321 OFFCURVE",
"637 307 CURVE SMOOTH",
"635 293 OFFCURVE",
"634 279 OFFCURVE",
"634 263 CURVE SMOOTH",
"634 178 OFFCURVE",
"646 100 OFFCURVE",
"673 44 CURVE SMOOTH",
"700 -12 OFFCURVE",
"743 -47 OFFCURVE",
"805 -47 CURVE SMOOTH",
"854 -47 OFFCURVE",
"900 -27 OFFCURVE",
"942 7 CURVE SMOOTH",
"984 41 OFFCURVE",
"1021 90 OFFCURVE",
"1054 150 CURVE",
"1058 119 OFFCURVE",
"1068 96 OFFCURVE",
"1083 82 CURVE SMOOTH",
"1097 68 OFFCURVE",
"1116 61 OFFCURVE",
"1138 61 CURVE SMOOTH",
"1183 61 OFFCURVE",
"1236 95 OFFCURVE",
"1284 150 CURVE",
"1276 251 LINE",
"1266 225 OFFCURVE",
"1250 203 OFFCURVE",
"1231 187 CURVE SMOOTH",
"1213 171 OFFCURVE",
"1193 162 OFFCURVE",
"1174 162 CURVE SMOOTH",
"1155 162 OFFCURVE",
"1138 167 OFFCURVE",
"1126 179 CURVE SMOOTH",
"1114 190 OFFCURVE",
"1106 208 OFFCURVE",
"1106 233 CURVE SMOOTH",
"1106 239 OFFCURVE",
"1108 251 OFFCURVE",
"1112 270 CURVE SMOOTH",
"1116 289 OFFCURVE",
"1121 313 OFFCURVE",
"1127 341 CURVE SMOOTH",
"1139 397 OFFCURVE",
"1154 469 OFFCURVE",
"1167 542 CURVE SMOOTH",
"1178 616 OFFCURVE",
"1188 692 OFFCURVE",
"1188 755 CURVE SMOOTH",
"1188 778 OFFCURVE",
"1182 792 OFFCURVE",
"1172 801 CURVE SMOOTH",
"1163 810 OFFCURVE",
"1149 813 OFFCURVE",
"1133 813 CURVE SMOOTH",
"1112 813 OFFCURVE",
"1091 810 OFFCURVE",
"1076 799 CURVE SMOOTH",
"1060 788 OFFCURVE",
"1049 769 OFFCURVE",
"1047 735 CURVE SMOOTH",
"1045 704 OFFCURVE",
"1041 645 OFFCURVE",
"1032 574 CURVE SMOOTH",
"1024 503 OFFCURVE",
"1011 421 OFFCURVE",
"994 343 CURVE SMOOTH",
"977 265 OFFCURVE",
"955 191 OFFCURVE",
"926 137 CURVE SMOOTH",
"898 82 OFFCURVE",
"864 47 OFFCURVE",
"822 47 CURVE SMOOTH",
"798 47 OFFCURVE",
"782 65 OFFCURVE",
"772 98 CURVE SMOOTH",
"762 131 OFFCURVE",
"758 179 OFFCURVE",
"758 238 CURVE SMOOTH",
"758 267 OFFCURVE",
"760 298 OFFCURVE",
"762 332 CURVE SMOOTH",
"768 400 OFFCURVE",
"776 472 OFFCURVE",
"786 538 CURVE SMOOTH",
"795 604 OFFCURVE",
"803 658 OFFCURVE",
"809 692 CURVE SMOOTH",
"811 708 OFFCURVE",
"813 718 OFFCURVE",
"813 720 CURVE SMOOTH",
"813 734 OFFCURVE",
"809 745 OFFCURVE",
"800 753 CURVE SMOOTH",
"790 761 OFFCURVE",
"775 766 OFFCURVE",
"750 766 CURVE SMOOTH",
"724 766 OFFCURVE",
"705 760 OFFCURVE",
"689 746 CURVE SMOOTH",
"674 732 OFFCURVE",
"664 708 OFFCURVE",
"656 672 CURVE SMOOTH",
"635 562 OFFCURVE",
"611 462 OFFCURVE",
"583 375 CURVE SMOOTH",
"568 326 OFFCURVE",
"550 276 OFFCURVE",
"531 232 CURVE SMOOTH",
"511 188 OFFCURVE",
"489 149 OFFCURVE",
"466 122 CURVE SMOOTH",
"442 95 OFFCURVE",
"417 78 OFFCURVE",
"391 78 CURVE SMOOTH",
"364 78 OFFCURVE",
"345 96 OFFCURVE",
"332 126 CURVE SMOOTH",
"318 155 OFFCURVE",
"313 196 OFFCURVE",
"313 243 CURVE SMOOTH",
"313 299 OFFCURVE",
"325 367 OFFCURVE",
"341 436 CURVE SMOOTH",
"357 504 OFFCURVE",
"377 572 OFFCURVE",
"394 629 CURVE SMOOTH",
"410 686 OFFCURVE",
"422 731 OFFCURVE",
"422 753 CURVE SMOOTH"
);
}
);
width = 1171;
}
);
note = W;
unicode = 0057;
},
{
glyphname = X;
lastChange = "2016-07-18 14:46:18 +0000";
layers = (
{
layerId = "ECEFE970-1BBB-4E0A-A452-CEB55884B4A3";
paths = (
{
closed = 1;
nodes = (
"467 441 OFFCURVE",
"464 437 OFFCURVE",
"457 428 CURVE SMOOTH",
"449 419 OFFCURVE",
"439 407 OFFCURVE",
"426 392 CURVE SMOOTH",
"414 376 OFFCURVE",
"399 358 OFFCURVE",
"383 338 CURVE SMOOTH",
"366 318 OFFCURVE",
"349 296 OFFCURVE",
"331 274 CURVE SMOOTH",
"313 252 OFFCURVE",
"294 230 OFFCURVE",
"276 208 CURVE SMOOTH",
"239 162 OFFCURVE",
"206 122 OFFCURVE",
"181 90 CURVE SMOOTH",
"155 59 OFFCURVE",
"128 32 OFFCURVE",
"128 -2 CURVE SMOOTH",
"128 -31 OFFCURVE",
"150 -51 OFFCURVE",
"195 -51 CURVE SMOOTH",
"227 -51 OFFCURVE",
"259 -37 OFFCURVE",
"274 -15 CURVE SMOOTH",
"286 0 OFFCURVE",
"305 29 OFFCURVE",
"329 64 CURVE SMOOTH",
"353 100 OFFCURVE",
"380 141 OFFCURVE",
"406 180 CURVE SMOOTH",
"437 226 OFFCURVE",
"470 275 OFFCURVE",
"505 328 CURVE",
"526 227 OFFCURVE",
"544 153 OFFCURVE",
"564 100 CURVE SMOOTH",
"583 47 OFFCURVE",
"603 14 OFFCURVE",
"627 -5 CURVE SMOOTH",
"651 -25 OFFCURVE",
"680 -31 OFFCURVE",
"716 -31 CURVE SMOOTH",
"748 -31 OFFCURVE",
"787 -18 OFFCURVE",
"829 9 CURVE SMOOTH",
"870 35 OFFCURVE",
"915 74 OFFCURVE",
"958 125 CURVE",
"965 133 OFFCURVE",
"969 141 OFFCURVE",
"969 151 CURVE SMOOTH",
"969 165 OFFCURVE",
"963 180 OFFCURVE",
"954 191 CURVE SMOOTH",
"945 203 OFFCURVE",
"934 210 OFFCURVE",
"922 210 CURVE SMOOTH",
"916 210 OFFCURVE",
"911 208 OFFCURVE",
"906 203 CURVE",
"848 114 OFFCURVE",
"799 78 OFFCURVE",
"759 78 CURVE SMOOTH",
"744 78 OFFCURVE",
"731 81 OFFCURVE",
"721 88 CURVE SMOOTH",
"700 102 OFFCURVE",
"686 130 OFFCURVE",
"676 171 CURVE SMOOTH",
"666 211 OFFCURVE",
"655 265 OFFCURVE",
"641 332 CURVE SMOOTH",
"634 365 OFFCURVE",
"625 401 OFFCURVE",
"615 440 CURVE",
"643 480 OFFCURVE",
"671 521 OFFCURVE",
"699 559 CURVE SMOOTH",
"727 596 OFFCURVE",
"754 628 OFFCURVE",
"777 652 CURVE SMOOTH",
"800 675 OFFCURVE",
"818 689 OFFCURVE",
"832 689 CURVE SMOOTH",
"834 689 OFFCURVE",
"836 688 OFFCURVE",
"838 684 CURVE",
"840 676 OFFCURVE",
"841 665 OFFCURVE",
"841 652 CURVE",
"840 645 OFFCURVE",
"840 639 OFFCURVE",
"841 633 CURVE",
"841 622 OFFCURVE",
"844 614 OFFCURVE",
"850 614 CURVE SMOOTH",
"905 614 OFFCURVE",
"943 646 OFFCURVE",
"943 708 CURVE SMOOTH",
"943 739 OFFCURVE",
"936 771 OFFCURVE",
"924 795 CURVE SMOOTH",
"912 819 OFFCURVE",
"895 835 OFFCURVE",
"875 835 CURVE SMOOTH",
"853 835 OFFCURVE",
"824 819 OFFCURVE",
"791 792 CURVE SMOOTH",
"758 765 OFFCURVE",
"721 727 OFFCURVE",
"684 684 CURVE SMOOTH",
"647 641 OFFCURVE",
"610 593 OFFCURVE",
"579 545 CURVE",
"561 633 OFFCURVE",
"536 695 OFFCURVE",
"507 740 CURVE SMOOTH",
"478 784 OFFCURVE",
"446 811 OFFCURVE",
"413 825 CURVE SMOOTH",
"379 840 OFFCURVE",
"345 844 OFFCURVE",
"313 844 CURVE SMOOTH",
"275 844 OFFCURVE",
"243 832 OFFCURVE",
"220 809 CURVE SMOOTH",
"196 785 OFFCURVE",
"183 750 OFFCURVE",
"183 701 CURVE SMOOTH",
"183 694 OFFCURVE",
"184 680 OFFCURVE",
"187 664 CURVE SMOOTH",
"188 648 OFFCURVE",
"192 630 OFFCURVE",
"197 616 CURVE SMOOTH",
"201 603 OFFCURVE",
"208 593 OFFCURVE",
"214 593 CURVE SMOOTH",
"218 593 OFFCURVE",
"223 598 OFFCURVE",
"229 607 CURVE SMOOTH",
"236 623 OFFCURVE",
"245 637 OFFCURVE",
"254 650 CURVE SMOOTH",
"273 677 OFFCURVE",
"291 698 OFFCURVE",
"305 710 CURVE",
"311 716 OFFCURVE",
"315 719 OFFCURVE",
"317 719 CURVE SMOOTH",
"350 719 OFFCURVE",
"375 702 OFFCURVE",
"396 675 CURVE SMOOTH",
"415 647 OFFCURVE",
"430 611 OFFCURVE",
"440 572 CURVE SMOOTH",
"450 533 OFFCURVE",
"457 492 OFFCURVE",
"462 456 CURVE",
"467 441 LINE"
);
}
);
width = 828;
}
);
note = X;
unicode = 0058;
},
{
glyphname = Y;
lastChange = "2016-07-18 14:46:18 +0000";
layers = (
{
layerId = "ECEFE970-1BBB-4E0A-A452-CEB55884B4A3";
paths = (
{
closed = 1;
nodes = (
"604 334 OFFCURVE",
"627 373 OFFCURVE",
"650 411 CURVE SMOOTH",
"695 487 OFFCURVE",
"732 556 OFFCURVE",
"759 611 CURVE SMOOTH",
"786 666 OFFCURVE",
"803 701 OFFCURVE",
"803 728 CURVE SMOOTH",
"803 748 OFFCURVE",
"796 762 OFFCURVE",
"786 770 CURVE SMOOTH",
"776 778 OFFCURVE",
"762 782 OFFCURVE",
"749 782 CURVE SMOOTH",
"723 782 OFFCURVE",
"697 771 OFFCURVE",
"689 756 CURVE SMOOTH",
"681 741 OFFCURVE",
"671 722 OFFCURVE",
"660 699 CURVE SMOOTH",
"647 675 OFFCURVE",
"634 648 OFFCURVE",
"619 619 CURVE SMOOTH",
"589 561 OFFCURVE",
"553 492 OFFCURVE",
"515 422 CURVE",
"472 520 OFFCURVE",
"427 610 OFFCURVE",
"375 675 CURVE SMOOTH",
"322 739 OFFCURVE",
"261 779 OFFCURVE",
"187 779 CURVE SMOOTH",
"160 779 OFFCURVE",
"141 772 OFFCURVE",
"128 763 CURVE SMOOTH",
"116 753 OFFCURVE",
"110 741 OFFCURVE",
"110 729 CURVE SMOOTH",
"110 694 OFFCURVE",
"114 659 OFFCURVE",
"121 633 CURVE SMOOTH",
"128 607 OFFCURVE",
"139 590 OFFCURVE",
"152 590 CURVE SMOOTH",
"159 590 OFFCURVE",
"166 591 OFFCURVE",
"166 602 CURVE SMOOTH",
"166 605 OFFCURVE",
"165 610 OFFCURVE",
"165 615 CURVE SMOOTH",
"164 620 OFFCURVE",
"164 625 OFFCURVE",
"164 629 CURVE SMOOTH",
"164 638 OFFCURVE",
"165 647 OFFCURVE",
"170 653 CURVE SMOOTH",
"176 660 OFFCURVE",
"185 664 OFFCURVE",
"200 664 CURVE SMOOTH",
"229 664 OFFCURVE",
"259 645 OFFCURVE",
"288 612 CURVE SMOOTH",
"316 579 OFFCURVE",
"343 534 OFFCURVE",
"369 482 CURVE SMOOTH",
"395 430 OFFCURVE",
"418 372 OFFCURVE",
"441 315 CURVE",
"435 304 OFFCURVE",
"428 290 OFFCURVE",
"420 274 CURVE SMOOTH",
"413 258 OFFCURVE",
"404 241 OFFCURVE",
"394 223 CURVE SMOOTH",
"375 188 OFFCURVE",
"350 151 OFFCURVE",
"319 124 CURVE SMOOTH",
"288 97 OFFCURVE",
"249 78 OFFCURVE",
"200 78 CURVE SMOOTH",
"183 78 OFFCURVE",
"163 83 OFFCURVE",
"143 96 CURVE",
"140 97 OFFCURVE",
"138 98 OFFCURVE",
"136 98 CURVE SMOOTH",
"125 98 OFFCURVE",
"121 89 OFFCURVE",
"121 79 CURVE SMOOTH",
"121 69 OFFCURVE",
"125 58 OFFCURVE",
"128 53 CURVE",
"131 45 OFFCURVE",
"148 28 OFFCURVE",
"170 12 CURVE SMOOTH",
"192 -3 OFFCURVE",
"220 -17 OFFCURVE",
"246 -17 CURVE SMOOTH",
"275 -17 OFFCURVE",
"300 -12 OFFCURVE",
"327 3 CURVE SMOOTH",
"354 18 OFFCURVE",
"383 42 OFFCURVE",
"419 82 CURVE SMOOTH",
"454 121 OFFCURVE",
"497 174 OFFCURVE",
"550 247 CURVE",
"579 295 LINE SMOOTH"
);
}
);
width = 719;
}
);
note = Y;
unicode = 0059;
},
{
glyphname = Z;
lastChange = "2016-07-18 14:46:18 +0000";
layers = (
{
layerId = "ECEFE970-1BBB-4E0A-A452-CEB55884B4A3";
paths = (
{
closed = 1;
nodes = (
"321 640 OFFCURVE",
"332 640 OFFCURVE",
"342 640 CURVE SMOOTH",
"350 640 OFFCURVE",
"358 640 OFFCURVE",
"367 640 CURVE SMOOTH",
"375 641 OFFCURVE",
"382 641 OFFCURVE",
"390 641 CURVE",
"31 172 LINE",
"-8 134 OFFCURVE",
"-23 101 OFFCURVE",
"-23 76 CURVE SMOOTH",
"-23 44 OFFCURVE",
"1 25 OFFCURVE",
"36 25 CURVE SMOOTH",
"63 25 OFFCURVE",
"98 37 OFFCURVE",
"131 66 CURVE",
"164 51 OFFCURVE",
"193 38 OFFCURVE",
"218 28 CURVE SMOOTH",
"268 7 OFFCURVE",
"304 -5 OFFCURVE",
"325 -11 CURVE SMOOTH",
"336 -13 OFFCURVE",
"344 -15 OFFCURVE",
"348 -15 CURVE SMOOTH",
"405 -15 OFFCURVE",
"461 4 OFFCURVE",
"510 27 CURVE SMOOTH",
"559 51 OFFCURVE",
"600 79 OFFCURVE",
"624 99 CURVE",
"629 105 OFFCURVE",
"632 114 OFFCURVE",
"632 125 CURVE SMOOTH",
"632 140 OFFCURVE",
"625 156 OFFCURVE",
"615 168 CURVE SMOOTH",
"605 181 OFFCURVE",
"591 189 OFFCURVE",
"577 189 CURVE SMOOTH",
"569 189 OFFCURVE",
"563 187 OFFCURVE",
"555 182 CURVE",
"543 175 OFFCURVE",
"530 167 OFFCURVE",
"517 158 CURVE SMOOTH",
"502 149 OFFCURVE",
"487 141 OFFCURVE",
"470 133 CURVE SMOOTH",
"436 117 OFFCURVE",
"395 104 OFFCURVE",
"342 104 CURVE SMOOTH",
"334 104 OFFCURVE",
"326 105 OFFCURVE",
"315 108 CURVE SMOOTH",
"295 113 OFFCURVE",
"273 121 OFFCURVE",
"253 130 CURVE SMOOTH",
"232 139 OFFCURVE",
"215 146 OFFCURVE",
"205 152 CURVE",
"200 154 OFFCURVE",
"197 156 OFFCURVE",
"197 156 CURVE",
"199 167 LINE",
"203 172 OFFCURVE",
"210 182 OFFCURVE",
"219 198 CURVE SMOOTH",
"229 213 OFFCURVE",
"240 233 OFFCURVE",
"255 257 CURVE SMOOTH",
"284 305 OFFCURVE",
"325 368 OFFCURVE",
"376 437 CURVE SMOOTH",
"428 505 OFFCURVE",
"491 581 OFFCURVE",
"567 654 CURVE",
"576 660 OFFCURVE",
"583 665 OFFCURVE",
"587 669 CURVE",
"591 673 OFFCURVE",
"594 676 OFFCURVE",
"594 678 CURVE",
"596 689 OFFCURVE",
"598 700 OFFCURVE",
"598 710 CURVE SMOOTH",
"598 741 OFFCURVE",
"586 761 OFFCURVE",
"559 761 CURVE SMOOTH",
"558 761 OFFCURVE",
"556 760 OFFCURVE",
"552 760 CURVE SMOOTH",
"549 759 OFFCURVE",
"543 758 OFFCURVE",
"534 758 CURVE SMOOTH",
"524 757 OFFCURVE",
"511 756 OFFCURVE",
"494 756 CURVE SMOOTH",
"476 755 OFFCURVE",
"453 755 OFFCURVE",
"423 755 CURVE SMOOTH",
"414 755 OFFCURVE",
"403 755 OFFCURVE",
"393 755 CURVE SMOOTH",
"382 755 OFFCURVE",
"371 755 OFFCURVE",
"359 755 CURVE SMOOTH",
"326 756 OFFCURVE",
"296 767 OFFCURVE",
"268 777 CURVE SMOOTH",
"238 787 OFFCURVE",
"211 797 OFFCURVE",
"182 797 CURVE SMOOTH",
"157 797 OFFCURVE",
"127 789 OFFCURVE",
"100 760 CURVE SMOOTH",
"73 730 OFFCURVE",
"50 679 OFFCURVE",
"39 595 CURVE SMOOTH",
"37 586 OFFCURVE",
"36 578 OFFCURVE",
"36 570 CURVE SMOOTH",
"36 552 OFFCURVE",
"41 541 OFFCURVE",
"53 541 CURVE SMOOTH",
"60 541 OFFCURVE",
"68 544 OFFCURVE",
"78 552 CURVE SMOOTH",
"87 559 OFFCURVE",
"96 572 OFFCURVE",
"105 592 CURVE SMOOTH",
"120 624 OFFCURVE",
"132 645 OFFCURVE",
"144 658 CURVE SMOOTH",
"155 670 OFFCURVE",
"166 675 OFFCURVE",
"177 675 CURVE SMOOTH",
"191 675 OFFCURVE",
"208 668 OFFCURVE",
"229 661 CURVE SMOOTH",
"250 653 OFFCURVE",
"275 645 OFFCURVE",
"310 641 CURVE SMOOTH"
);
}
);
width = 500;
}
);
note = Z;
unicode = 005A;
},
{
color = 3;
glyphname = a;
lastChange = "2016-07-18 18:38:06 +0000";
layers = (
{
background = {
paths = (
{
closed = 1;
nodes = (
"1246 206 OFFCURVE",
"1231 186 OFFCURVE",
"1213 168 CURVE SMOOTH",
"1199 154 OFFCURVE",
"1184 139 OFFCURVE",
"1169 128 CURVE SMOOTH",
"1153 117 OFFCURVE",
"1138 109 OFFCURVE",
"1125 109 CURVE SMOOTH",
"1107 109 OFFCURVE",
"1103 127 OFFCURVE",
"1103 158 CURVE SMOOTH",
"1103 194 OFFCURVE",
"1110 235 OFFCURVE",
"1118 275 CURVE SMOOTH",
"1126 315 OFFCURVE",
"1134 354 OFFCURVE",
"1134 386 CURVE SMOOTH",
"1134 406 OFFCURVE",
"1130 417 OFFCURVE",
"1124 423 CURVE SMOOTH",
"1117 430 OFFCURVE",
"1108 431 OFFCURVE",
"1099 431 CURVE SMOOTH",
"1095 431 OFFCURVE",
"1091 431 OFFCURVE",
"1088 431 CURVE",
"1084 431 OFFCURVE",
"1080 431 OFFCURVE",
"1077 431 CURVE SMOOTH",
"1072 431 OFFCURVE",
"1068 431 OFFCURVE",
"1065 432 CURVE SMOOTH",
"1056 435 OFFCURVE",
"1048 435 OFFCURVE",
"1043 442 CURVE SMOOTH",
"1040 446 OFFCURVE",
"1037 450 OFFCURVE",
"1035 454 CURVE",
"1029 461 OFFCURVE",
"1022 468 OFFCURVE",
"1006 468 CURVE SMOOTH",
"962 468 OFFCURVE",
"918 447 OFFCURVE",
"879 415 CURVE SMOOTH",
"839 382 OFFCURVE",
"806 337 OFFCURVE",
"782 288 CURVE SMOOTH",
"758 239 OFFCURVE",
"743 186 OFFCURVE",
"743 137 CURVE SMOOTH",
"743 94 OFFCURVE",
"758 60 OFFCURVE",
"781 36 CURVE SMOOTH",
"804 12 OFFCURVE",
"835 -1 OFFCURVE",
"866 -1 CURVE SMOOTH",
"895 -1 OFFCURVE",
"925 10 OFFCURVE",
"952 25 CURVE SMOOTH",
"979 40 OFFCURVE",
"1003 61 OFFCURVE",
"1018 79 CURVE",
"1039 26 OFFCURVE",
"1066 -2 OFFCURVE",
"1109 -2 CURVE SMOOTH",
"1145 -2 OFFCURVE",
"1182 18 OFFCURVE",
"1213 43 CURVE SMOOTH",
"1244 68 OFFCURVE",
"1270 99 OFFCURVE",
"1285 120 CURVE",
"1262 228 LINE"
);
},
{
closed = 1;
nodes = (
"868 187 OFFCURVE",
"876 221 OFFCURVE",
"890 253 CURVE SMOOTH",
"904 285 OFFCURVE",
"923 315 OFFCURVE",
"945 338 CURVE SMOOTH",
"968 362 OFFCURVE",
"993 375 OFFCURVE",
"1020 375 CURVE",
"990 231 LINE",
"988 210 OFFCURVE",
"979 176 OFFCURVE",
"964 147 CURVE SMOOTH",
"949 118 OFFCURVE",
"930 94 OFFCURVE",
"906 94 CURVE SMOOTH",
"891 94 OFFCURVE",
"882 102 OFFCURVE",
"876 114 CURVE SMOOTH",
"870 126 OFFCURVE",
"868 142 OFFCURVE",
"868 158 CURVE SMOOTH"
);
},
{
closed = 1;
nodes = (
"522 172 OFFCURVE",
"463 105 OFFCURVE",
"430 105 CURVE SMOOTH",
"414 105 OFFCURVE",
"403 118 OFFCURVE",
"403 138 CURVE SMOOTH",
"403 214 OFFCURVE",
"441 352 OFFCURVE",
"441 388 CURVE SMOOTH",
"441 416 OFFCURVE",
"426 433 OFFCURVE",
"392 433 CURVE SMOOTH",
"378 433 OFFCURVE",
"364 432 OFFCURVE",
"350 430 CURVE",
"338 456 OFFCURVE",
"328 468 OFFCURVE",
"306 468 CURVE SMOOTH",
"172 468 OFFCURVE",
"43 320 OFFCURVE",
"43 157 CURVE SMOOTH",
"43 61 OFFCURVE",
"95 -5 OFFCURVE",
"176 -5 CURVE SMOOTH",
"239 -5 OFFCURVE",
"281 37 OFFCURVE",
"307 79 CURVE",
"326 26 OFFCURVE",
"366 -6 OFFCURVE",
"409 -6 CURVE SMOOTH",
"472 -6 OFFCURVE",
"542 60 OFFCURVE",
"585 120 CURVE",
"562 228 LINE"
);
},
{
closed = 1;
nodes = (
"168 270 OFFCURVE",
"238 375 OFFCURVE",
"320 375 CURVE",
"285 201 LINE SMOOTH",
"271 131 OFFCURVE",
"240 90 OFFCURVE",
"212 90 CURVE SMOOTH",
"182 90 OFFCURVE",
"168 116 OFFCURVE",
"168 158 CURVE SMOOTH"
);
}
);
};
layerId = "ECEFE970-1BBB-4E0A-A452-CEB55884B4A3";
paths = (
{
closed = 1;
nodes = (
"522 172 OFFCURVE",
"463 105 OFFCURVE",
"430 105 CURVE SMOOTH",
"414 105 OFFCURVE",
"403 118 OFFCURVE",
"403 138 CURVE SMOOTH",
"403 214 OFFCURVE",
"441 352 OFFCURVE",
"441 388 CURVE SMOOTH",
"441 416 OFFCURVE",
"426 433 OFFCURVE",
"392 433 CURVE SMOOTH",
"378 433 OFFCURVE",
"364 432 OFFCURVE",
"350 430 CURVE",
"338 456 OFFCURVE",
"328 468 OFFCURVE",
"306 468 CURVE SMOOTH",
"165 468 OFFCURVE",
"40 320 OFFCURVE",
"40 158 CURVE SMOOTH",
"40 61 OFFCURVE",
"92 -5 OFFCURVE",
"176 -5 CURVE SMOOTH",
"239 -5 OFFCURVE",
"281 37 OFFCURVE",
"307 79 CURVE",
"326 26 OFFCURVE",
"366 -5 OFFCURVE",
"409 -5 CURVE SMOOTH",
"472 -5 OFFCURVE",
"542 60 OFFCURVE",
"585 120 CURVE",
"562 228 LINE"
);
},
{
closed = 1;
nodes = (
"165 270 OFFCURVE",
"235 373 OFFCURVE",
"320 375 CURVE",
"283 191 LINE SMOOTH",
"271 131 OFFCURVE",
"240 95 OFFCURVE",
"212 95 CURVE SMOOTH",
"183 95 OFFCURVE",
"165 114 OFFCURVE",
"165 157 CURVE SMOOTH"
);
}
);
width = 470;
}
);
note = a;
unicode = 0061;
},
{
color = 3;
glyphname = b;
lastChange = "2016-07-18 18:39:49 +0000";
layers = (
{
background = {
paths = (
{
closed = 1;
nodes = (
"884 454 OFFCURVE",
"933 518 OFFCURVE",
"970 583 CURVE SMOOTH",
"1007 648 OFFCURVE",
"1032 715 OFFCURVE",
"1032 777 CURVE SMOOTH",
"1032 821 OFFCURVE",
"1028 861 OFFCURVE",
"1012 891 CURVE SMOOTH",
"997 919 OFFCURVE",
"967 938 OFFCURVE",
"918 938 CURVE SMOOTH",
"896 938 OFFCURVE",
"876 929 OFFCURVE",
"856 911 CURVE SMOOTH",
"817 876 OFFCURVE",
"786 814 OFFCURVE",
"760 738 CURVE SMOOTH",
"734 662 OFFCURVE",
"712 580 OFFCURVE",
"696 502 CURVE SMOOTH",
"680 423 OFFCURVE",
"668 343 OFFCURVE",
"658 265 CURVE SMOOTH",
"648 187 OFFCURVE",
"644 127 OFFCURVE",
"642 74 CURVE",
"665 60 OFFCURVE",
"689 48 OFFCURVE",
"715 37 CURVE SMOOTH",
"760 18 OFFCURVE",
"816 0 OFFCURVE",
"872 0 CURVE SMOOTH",
"884 0 LINE",
"896 5 OFFCURVE",
"908 10 OFFCURVE",
"918 15 CURVE SMOOTH",
"938 25 OFFCURVE",
"959 36 OFFCURVE",
"970 47 CURVE",
"1015 57 OFFCURVE",
"1056 70 OFFCURVE",
"1093 88 CURVE SMOOTH",
"1130 106 OFFCURVE",
"1166 129 OFFCURVE",
"1201 162 CURVE",
"1164 242 LINE",
"1150 229 OFFCURVE",
"1138 218 OFFCURVE",
"1126 208 CURVE SMOOTH",
"1102 188 OFFCURVE",
"1076 175 OFFCURVE",
"1052 161 CURVE SMOOTH",
"1040 154 OFFCURVE",
"1028 147 OFFCURVE",
"1017 141 CURVE",
"1036 170 OFFCURVE",
"1048 198 OFFCURVE",
"1055 227 CURVE SMOOTH",
"1062 255 OFFCURVE",
"1064 284 OFFCURVE",
"1064 317 CURVE SMOOTH",
"1064 356 OFFCURVE",
"1052 395 OFFCURVE",
"1031 422 CURVE SMOOTH",
"1010 450 OFFCURVE",
"980 469 OFFCURVE",
"942 469 CURVE SMOOTH",
"912 469 OFFCURVE",
"883 438 OFFCURVE",
"847 393 CURVE",
"839 398 LINE"
);
},
{
closed = 1;
nodes = (
"916 357 OFFCURVE",
"932 350 OFFCURVE",
"942 339 CURVE SMOOTH",
"952 328 OFFCURVE",
"954 313 OFFCURVE",
"954 296 CURVE SMOOTH",
"954 271 OFFCURVE",
"951 241 OFFCURVE",
"944 211 CURVE SMOOTH",
"937 181 OFFCURVE",
"927 151 OFFCURVE",
"913 130 CURVE SMOOTH",
"899 108 OFFCURVE",
"880 94 OFFCURVE",
"858 94 CURVE SMOOTH",
"849 94 OFFCURVE",
"839 95 OFFCURVE",
"829 96 CURVE SMOOTH",
"808 98 OFFCURVE",
"788 104 OFFCURVE",
"767 110 CURVE",
"768 121 OFFCURVE",
"769 133 OFFCURVE",
"770 146 CURVE SMOOTH",
"772 169 OFFCURVE",
"776 199 OFFCURVE",
"782 234 CURVE SMOOTH",
"790 278 OFFCURVE",
"805 309 OFFCURVE",
"825 329 CURVE SMOOTH",
"844 348 OFFCURVE",
"868 357 OFFCURVE",
"891 357 CURVE SMOOTH"
);
},
{
closed = 1;
nodes = (
"937 782 OFFCURVE",
"933 759 OFFCURVE",
"928 737 CURVE SMOOTH",
"918 692 OFFCURVE",
"898 648 OFFCURVE",
"877 607 CURVE SMOOTH",
"856 566 OFFCURVE",
"834 526 OFFCURVE",
"812 490 CURVE SMOOTH",
"801 472 OFFCURVE",
"791 454 OFFCURVE",
"782 437 CURVE",
"784 448 OFFCURVE",
"787 462 OFFCURVE",
"790 479 CURVE SMOOTH",
"796 514 OFFCURVE",
"806 557 OFFCURVE",
"816 604 CURVE SMOOTH",
"826 650 OFFCURVE",
"839 696 OFFCURVE",
"853 738 CURVE SMOOTH",
"867 779 OFFCURVE",
"879 812 OFFCURVE",
"894 830 CURVE SMOOTH",
"901 838 OFFCURVE",
"907 844 OFFCURVE",
"914 844 CURVE SMOOTH",
"925 844 OFFCURVE",
"931 835 OFFCURVE",
"935 826 CURVE",
"938 817 OFFCURVE",
"939 807 OFFCURVE",
"939 805 CURVE"
);
},
{
closed = 1;
nodes = (
"-338 282 LINE",
"-338 194 OFFCURVE",
"-414 105 OFFCURVE",
"-462 105 CURVE SMOOTH",
"-500 105 OFFCURVE",
"-516 171 OFFCURVE",
"-516 281 CURVE SMOOTH",
"-516 553 OFFCURVE",
"-440 822 OFFCURVE",
"-396 829 CURVE",
"-382 824 OFFCURVE",
"-364 799 OFFCURVE",
"-364 775 CURVE SMOOTH",
"-364 664 OFFCURVE",
"-451 502 OFFCURVE",
"-548 391 CURVE",
"-524 319 LINE",
"-321 547 OFFCURVE",
"-264 681 OFFCURVE",
"-264 805 CURVE SMOOTH",
"-264 881 OFFCURVE",
"-327 934 OFFCURVE",
"-369 940 CURVE",
"-566 920 OFFCURVE",
"-641 530 OFFCURVE",
"-641 305 CURVE SMOOTH",
"-641 108 OFFCURVE",
"-590 -5 OFFCURVE",
"-471 -5 CURVE SMOOTH",
"-361 -5 OFFCURVE",
"-228 143 OFFCURVE",
"-228 282 CURVE SMOOTH",
"-228 371 OFFCURVE",
"-268 446 OFFCURVE",
"-330 460 CURVE"
);
},
{
closed = 1;
nodes = (
"-99 281 OFFCURVE",
"-117 306 CURVE",
"-165 291 OFFCURVE",
"-213 279 OFFCURVE",
"-252 279 CURVE",
"-330 460 LINE",
"-380 446 OFFCURVE",
"-424 395 OFFCURVE",
"-424 325 CURVE SMOOTH",
"-424 253 OFFCURVE",
"-369 175 OFFCURVE",
"-259 175 CURVE SMOOTH",
"-200 175 OFFCURVE",
"-127 188 OFFCURVE",
"-89 202 CURVE",
"-90 241 OFFCURVE"
);
},
{
closed = 1;
nodes = (
"363 282 LINE",
"363 194 OFFCURVE",
"287 105 OFFCURVE",
"239 105 CURVE SMOOTH",
"201 105 OFFCURVE",
"185 171 OFFCURVE",
"185 281 CURVE SMOOTH",
"185 553 OFFCURVE",
"261 841 OFFCURVE",
"309 841 CURVE SMOOTH",
"326 841 OFFCURVE",
"337 818 OFFCURVE",
"337 775 CURVE SMOOTH",
"337 664 OFFCURVE",
"250 504 OFFCURVE",
"153 411 CURVE",
"177 319 LINE",
"358 516 OFFCURVE",
"434 660 OFFCURVE",
"434 788 CURVE SMOOTH",
"434 881 OFFCURVE",
"394 940 OFFCURVE",
"332 940 CURVE SMOOTH",
"150 940 OFFCURVE",
"60 530 OFFCURVE",
"60 305 CURVE SMOOTH",
"60 108 OFFCURVE",
"111 -5 OFFCURVE",
"230 -5 CURVE SMOOTH",
"340 -5 OFFCURVE",
"469 143 OFFCURVE",
"469 282 CURVE SMOOTH",
"469 371 OFFCURVE",
"426 464 OFFCURVE",
"371 464 CURVE"
);
},
{
closed = 1;
nodes = (
"598 310 LINE",
"536 295 OFFCURVE",
"488 283 OFFCURVE",
"449 283 CURVE",
"371 464 LINE",
"330 464 OFFCURVE",
"282 399 OFFCURVE",
"282 329 CURVE SMOOTH",
"282 257 OFFCURVE",
"332 179 OFFCURVE",
"442 179 CURVE SMOOTH",
"501 179 OFFCURVE",
"564 192 OFFCURVE",
"598 206 CURVE"
);
}
);
};
layerId = "ECEFE970-1BBB-4E0A-A452-CEB55884B4A3";
paths = (
{
closed = 1;
nodes = (
"348 282 LINE",
"348 194 OFFCURVE",
"272 105 OFFCURVE",
"239 105 CURVE SMOOTH",
"201 105 OFFCURVE",
"185 171 OFFCURVE",
"185 281 CURVE SMOOTH",
"185 553 OFFCURVE",
"261 841 OFFCURVE",
"309 841 CURVE SMOOTH",
"326 841 OFFCURVE",
"337 818 OFFCURVE",
"337 775 CURVE SMOOTH",
"337 661 OFFCURVE",
"250 507 OFFCURVE",
"153 414 CURVE",
"177 326 LINE",
"358 523 OFFCURVE",
"434 660 OFFCURVE",
"434 798 CURVE SMOOTH",
"434 881 OFFCURVE",
"394 940 OFFCURVE",
"332 940 CURVE SMOOTH",
"150 940 OFFCURVE",
"60 530 OFFCURVE",
"60 305 CURVE SMOOTH",
"60 108 OFFCURVE",
"111 -5 OFFCURVE",
"230 -5 CURVE SMOOTH",
"325 -5 OFFCURVE",
"454 143 OFFCURVE",
"454 282 CURVE SMOOTH",
"454 368 OFFCURVE",
"411 457 OFFCURVE",
"356 457 CURVE"
);
},
{
closed = 1;
nodes = (
"582 310 LINE",
"520 295 OFFCURVE",
"470 283 OFFCURVE",
"434 283 CURVE",
"356 457 LINE",
"315 457 OFFCURVE",
"271 396 OFFCURVE",
"271 329 CURVE SMOOTH",
"271 257 OFFCURVE",
"320 179 OFFCURVE",
"427 179 CURVE SMOOTH",
"483 179 OFFCURVE",
"548 192 OFFCURVE",
"582 206 CURVE"
);
}
);
width = 467;
}
);
note = b;
unicode = 0062;
},
{
color = 3;
glyphname = c;
lastChange = "2016-07-18 18:44:02 +0000";
layers = (
{
background = {
paths = (
{
closed = 1;
nodes = (
"957 0 OFFCURVE",
"991 12 OFFCURVE",
"1022 29 CURVE SMOOTH",
"1053 46 OFFCURVE",
"1082 69 OFFCURVE",
"1105 93 CURVE SMOOTH",
"1132 122 OFFCURVE",
"1160 151 OFFCURVE",
"1185 186 CURVE",
"1151 243 LINE",
"1126 211 OFFCURVE",
"1090 174 OFFCURVE",
"1052 145 CURVE SMOOTH",
"1014 116 OFFCURVE",
"975 94 OFFCURVE",
"943 94 CURVE SMOOTH",
"912 94 OFFCURVE",
"892 109 OFFCURVE",
"880 131 CURVE SMOOTH",
"869 152 OFFCURVE",
"865 179 OFFCURVE",
"865 202 CURVE SMOOTH",
"865 218 OFFCURVE",
"866 242 OFFCURVE",
"871 268 CURVE SMOOTH",
"876 293 OFFCURVE",
"882 320 OFFCURVE",
"896 341 CURVE SMOOTH",
"909 361 OFFCURVE",
"927 375 OFFCURVE",
"954 375 CURVE SMOOTH",
"965 375 OFFCURVE",
"967 363 OFFCURVE",
"967 348 CURVE SMOOTH",
"967 342 OFFCURVE",
"967 336 OFFCURVE",
"967 330 CURVE SMOOTH",
"967 324 OFFCURVE",
"966 317 OFFCURVE",
"966 312 CURVE SMOOTH",
"966 283 OFFCURVE",
"972 266 OFFCURVE",
"1003 266 CURVE SMOOTH",
"1023 266 OFFCURVE",
"1040 277 OFFCURVE",
"1051 294 CURVE SMOOTH",
"1063 312 OFFCURVE",
"1068 334 OFFCURVE",
"1068 356 CURVE SMOOTH",
"1068 388 OFFCURVE",
"1055 417 OFFCURVE",
"1033 437 CURVE SMOOTH",
"1010 458 OFFCURVE",
"978 469 OFFCURVE",
"940 469 CURVE SMOOTH",
"897 469 OFFCURVE",
"860 452 OFFCURVE",
"831 425 CURVE SMOOTH",
"801 397 OFFCURVE",
"779 360 OFFCURVE",
"764 321 CURVE SMOOTH",
"749 282 OFFCURVE",
"740 239 OFFCURVE",
"740 202 CURVE SMOOTH",
"740 149 OFFCURVE",
"756 98 OFFCURVE",
"787 61 CURVE SMOOTH",
"818 24 OFFCURVE",
"862 0 OFFCURVE",
"922 0 CURVE SMOOTH"
);
},
{
closed = 1;
nodes = (
"-284 -5 OFFCURVE",
"-179 31 OFFCURVE",
"-117 120 CURVE",
"-140 228 LINE",
"-210 124 OFFCURVE",
"-293 95 OFFCURVE",
"-332 95 CURVE SMOOTH",
"-402 95 OFFCURVE",
"-435 135 OFFCURVE",
"-435 218 CURVE SMOOTH",
"-435 314 OFFCURVE",
"-393 368 OFFCURVE",
"-346 368 CURVE SMOOTH",
"-324 368 OFFCURVE",
"-315 358 OFFCURVE",
"-315 341 CURVE SMOOTH",
"-315 322 OFFCURVE",
"-324 305 OFFCURVE",
"-324 286 CURVE SMOOTH",
"-324 259 OFFCURVE",
"-308 244 OFFCURVE",
"-280 244 CURVE SMOOTH",
"-241 244 OFFCURVE",
"-219 289 OFFCURVE",
"-219 347 CURVE SMOOTH",
"-219 415 OFFCURVE",
"-259 466 OFFCURVE",
"-341 466 CURVE SMOOTH",
"-475 466 OFFCURVE",
"-560 338 OFFCURVE",
"-560 207 CURVE SMOOTH",
"-560 84 OFFCURVE",
"-488 -5 OFFCURVE",
"-349 -5 CURVE SMOOTH"
);
},
{
closed = 1;
nodes = (
"312 -5 OFFCURVE",
"418 31 OFFCURVE",
"481 120 CURVE",
"460 228 LINE",
"388 124 OFFCURVE",
"305 95 OFFCURVE",
"266 95 CURVE SMOOTH",
"196 95 OFFCURVE",
"163 135 OFFCURVE",
"165 218 CURVE SMOOTH",
"166 314 OFFCURVE",
"209 368 OFFCURVE",
"256 368 CURVE SMOOTH",
"278 368 OFFCURVE",
"287 358 OFFCURVE",
"287 341 CURVE SMOOTH",
"287 322 OFFCURVE",
"277 305 OFFCURVE",
"277 286 CURVE SMOOTH",
"276 259 OFFCURVE",
"292 244 OFFCURVE",
"320 244 CURVE SMOOTH",
"359 244 OFFCURVE",
"382 289 OFFCURVE",
"383 347 CURVE SMOOTH",
"384 415 OFFCURVE",
"345 466 OFFCURVE",
"263 466 CURVE SMOOTH",
"129 466 OFFCURVE",
"42 338 OFFCURVE",
"40 207 CURVE SMOOTH",
"37 84 OFFCURVE",
"108 -5 OFFCURVE",
"247 -5 CURVE SMOOTH"
);
}
);
};
layerId = "ECEFE970-1BBB-4E0A-A452-CEB55884B4A3";
paths = (
{
closed = 1;
nodes = (
"321 -5 OFFCURVE",
"423 31 OFFCURVE",
"486 120 CURVE",
"465 228 LINE",
"393 124 OFFCURVE",
"309 95 OFFCURVE",
"265 95 CURVE SMOOTH",
"200 95 OFFCURVE",
"167 135 OFFCURVE",
"167 211 CURVE SMOOTH",
"167 301 OFFCURVE",
"209 368 OFFCURVE",
"254 368 CURVE SMOOTH",
"270 368 OFFCURVE",
"279 358 OFFCURVE",
"279 341 CURVE SMOOTH",
"279 321 OFFCURVE",
"269 304 OFFCURVE",
"269 284 CURVE SMOOTH",
"269 256 OFFCURVE",
"286 244 OFFCURVE",
"311 244 CURVE SMOOTH",
"352 244 OFFCURVE",
"378 290 OFFCURVE",
"378 350 CURVE SMOOTH",
"378 416 OFFCURVE",
"338 466 OFFCURVE",
"262 466 CURVE SMOOTH",
"152 466 OFFCURVE",
"40 365 OFFCURVE",
"40 194 CURVE SMOOTH",
"40 79 OFFCURVE",
"113 -5 OFFCURVE",
"247 -5 CURVE SMOOTH"
);
}
);
width = 373;
}
);
note = c;
unicode = 0063;
},
{
color = 3;
glyphname = d;
lastChange = "2016-07-18 18:43:18 +0000";
layers = (
{
background = {
paths = (
{
closed = 1;
nodes = (
"1809 370 OFFCURVE",
"1809 366 OFFCURVE",
"1809 359 CURVE SMOOTH",
"1809 353 OFFCURVE",
"1810 344 OFFCURVE",
"1810 333 CURVE",
"1810 312 OFFCURVE",
"1811 284 OFFCURVE",
"1812 260 CURVE SMOOTH",
"1813 235 OFFCURVE",
"1814 214 OFFCURVE",
"1816 205 CURVE",
"1808 186 OFFCURVE",
"1800 169 OFFCURVE",
"1791 154 CURVE SMOOTH",
"1783 141 OFFCURVE",
"1773 128 OFFCURVE",
"1763 119 CURVE SMOOTH",
"1752 109 OFFCURVE",
"1741 103 OFFCURVE",
"1729 103 CURVE SMOOTH",
"1706 103 OFFCURVE",
"1693 110 OFFCURVE",
"1685 121 CURVE SMOOTH",
"1677 131 OFFCURVE",
"1675 145 OFFCURVE",
"1675 158 CURVE SMOOTH",
"1675 190 OFFCURVE",
"1687 233 OFFCURVE",
"1709 272 CURVE SMOOTH",
"1732 312 OFFCURVE",
"1765 348 OFFCURVE",
"1808 369 CURVE"
);
},
{
closed = 1;
nodes = (
"2110 192 OFFCURVE",
"2092 178 OFFCURVE",
"2073 164 CURVE SMOOTH",
"2058 153 OFFCURVE",
"2041 142 OFFCURVE",
"2025 133 CURVE SMOOTH",
"2009 124 OFFCURVE",
"1993 120 OFFCURVE",
"1981 120 CURVE SMOOTH",
"1968 120 OFFCURVE",
"1959 128 OFFCURVE",
"1954 142 CURVE SMOOTH",
"1949 155 OFFCURVE",
"1947 172 OFFCURVE",
"1947 191 CURVE SMOOTH",
"1947 206 OFFCURVE",
"1949 222 OFFCURVE",
"1952 238 CURVE SMOOTH",
"1955 253 OFFCURVE",
"1958 266 OFFCURVE",
"1962 275 CURVE",
"1979 316 OFFCURVE",
"1996 356 OFFCURVE",
"2014 394 CURVE SMOOTH",
"2032 432 OFFCURVE",
"2049 471 OFFCURVE",
"2064 509 CURVE SMOOTH",
"2095 587 OFFCURVE",
"2119 667 OFFCURVE",
"2127 759 CURVE SMOOTH",
"2128 771 OFFCURVE",
"2129 783 OFFCURVE",
"2129 794 CURVE SMOOTH",
"2129 831 OFFCURVE",
"2123 868 OFFCURVE",
"2110 894 CURVE SMOOTH",
"2097 920 OFFCURVE",
"2075 938 OFFCURVE",
"2045 938 CURVE SMOOTH",
"2003 938 OFFCURVE",
"1964 910 OFFCURVE",
"1929 865 CURVE SMOOTH",
"1894 819 OFFCURVE",
"1865 755 OFFCURVE",
"1844 682 CURVE SMOOTH",
"1823 608 OFFCURVE",
"1808 525 OFFCURVE",
"1806 442 CURVE",
"1757 438 OFFCURVE",
"1713 418 OFFCURVE",
"1676 391 CURVE SMOOTH",
"1639 364 OFFCURVE",
"1610 327 OFFCURVE",
"1589 287 CURVE SMOOTH",
"1568 247 OFFCURVE",
"1557 203 OFFCURVE",
"1557 161 CURVE SMOOTH",
"1557 120 OFFCURVE",
"1568 81 OFFCURVE",
"1588 50 CURVE SMOOTH",
"1608 19 OFFCURVE",
"1639 0 OFFCURVE",
"1681 0 CURVE SMOOTH",
"1711 0 OFFCURVE",
"1741 10 OFFCURVE",
"1770 26 CURVE SMOOTH",
"1799 42 OFFCURVE",
"1826 63 OFFCURVE",
"1850 87 CURVE",
"1866 49 OFFCURVE",
"1888 27 OFFCURVE",
"1910 16 CURVE SMOOTH",
"1932 5 OFFCURVE",
"1950 0 OFFCURVE",
"1959 0 CURVE SMOOTH",
"1975 0 OFFCURVE",
"1995 7 OFFCURVE",
"2015 16 CURVE SMOOTH",
"2035 25 OFFCURVE",
"2057 36 OFFCURVE",
"2076 48 CURVE SMOOTH",
"2098 62 OFFCURVE",
"2121 78 OFFCURVE",
"2144 96 CURVE",
"2130 208 LINE"
);
},
{
closed = 1;
nodes = (
"2035 688 OFFCURVE",
"2026 649 OFFCURVE",
"2015 610 CURVE SMOOTH",
"2004 570 OFFCURVE",
"1990 530 OFFCURVE",
"1977 494 CURVE SMOOTH",
"1962 452 OFFCURVE",
"1944 410 OFFCURVE",
"1926 368 CURVE",
"1926 373 LINE SMOOTH",
"1926 377 OFFCURVE",
"1926 384 OFFCURVE",
"1926 394 CURVE SMOOTH",
"1926 403 OFFCURVE",
"1926 414 OFFCURVE",
"1926 426 CURVE SMOOTH",
"1926 450 OFFCURVE",
"1929 480 OFFCURVE",
"1931 512 CURVE SMOOTH",
"1932 528 OFFCURVE",
"1936 568 OFFCURVE",
"1943 614 CURVE SMOOTH",
"1950 661 OFFCURVE",
"1959 713 OFFCURVE",
"1972 754 CURVE SMOOTH",
"1985 795 OFFCURVE",
"2002 824 OFFCURVE",
"2023 824 CURVE SMOOTH",
"2029 824 OFFCURVE",
"2033 821 OFFCURVE",
"2036 814 CURVE",
"2039 807 OFFCURVE",
"2041 795 OFFCURVE",
"2041 777 CURVE SMOOTH",
"2041 764 OFFCURVE",
"2040 746 OFFCURVE",
"2038 723 CURVE SMOOTH"
);
},
{
closed = 1;
nodes = (
"-185 172 OFFCURVE",
"-244 105 OFFCURVE",
"-277 105 CURVE SMOOTH",
"-293 105 OFFCURVE",
"-304 118 OFFCURVE",
"-304 138 CURVE SMOOTH",
"-304 214 OFFCURVE",
"-266 352 OFFCURVE",
"-266 388 CURVE SMOOTH",
"-266 416 OFFCURVE",
"-281 433 OFFCURVE",
"-315 433 CURVE SMOOTH",
"-329 433 OFFCURVE",
"-343 432 OFFCURVE",
"-357 430 CURVE",
"-369 456 OFFCURVE",
"-379 468 OFFCURVE",
"-401 468 CURVE SMOOTH",
"-542 468 OFFCURVE",
"-667 320 OFFCURVE",
"-667 158 CURVE SMOOTH",
"-667 61 OFFCURVE",
"-615 -5 OFFCURVE",
"-531 -5 CURVE SMOOTH",
"-468 -5 OFFCURVE",
"-426 37 OFFCURVE",
"-400 79 CURVE",
"-381 26 OFFCURVE",
"-341 -5 OFFCURVE",
"-298 -5 CURVE SMOOTH",
"-235 -5 OFFCURVE",
"-165 60 OFFCURVE",
"-122 120 CURVE",
"-145 228 LINE"
);
},
{
closed = 1;
nodes = (
"-542 270 OFFCURVE",
"-472 373 OFFCURVE",
"-387 375 CURVE",
"-424 191 LINE SMOOTH",
"-436 131 OFFCURVE",
"-467 92 OFFCURVE",
"-495 92 CURVE SMOOTH",
"-524 92 OFFCURVE",
"-542 111 OFFCURVE",
"-542 157 CURVE SMOOTH"
);
},
{
closed = 1;
nodes = (
"1330 424 OFFCURVE",
"1460 635 OFFCURVE",
"1460 788 CURVE SMOOTH",
"1460 881 OFFCURVE",
"1420 940 OFFCURVE",
"1358 940 CURVE SMOOTH",
"1176 940 OFFCURVE",
"1086 530 OFFCURVE",
"1086 272 CURVE SMOOTH",
"1086 136 OFFCURVE",
"1138 -5 OFFCURVE",
"1231 -5 CURVE SMOOTH",
"1294 -5 OFFCURVE",
"1364 60 OFFCURVE",
"1407 120 CURVE",
"1384 228 LINE",
"1344 172 OFFCURVE",
"1285 105 OFFCURVE",
"1252 105 CURVE SMOOTH",
"1230 105 OFFCURVE",
"1211 151 OFFCURVE",
"1211 293 CURVE SMOOTH",
"1211 552 OFFCURVE",
"1287 841 OFFCURVE",
"1335 841 CURVE SMOOTH",
"1350 841 OFFCURVE",
"1363 818 OFFCURVE",
"1363 775 CURVE SMOOTH",
"1363 699 OFFCURVE",
"1315 545 OFFCURVE",
"1178 307 CURVE",
"1153 270 LINE",
"1073 134 OFFCURVE",
"1037 92 OFFCURVE",
"1003 92 CURVE SMOOTH",
"977 92 OFFCURVE",
"959 111 OFFCURVE",
"959 157 CURVE SMOOTH",
"959 270 OFFCURVE",
"1029 373 OFFCURVE",
"1114 375 CURVE",
"1103 476 LINE",
"959 458 OFFCURVE",
"834 328 OFFCURVE",
"834 158 CURVE SMOOTH",
"834 61 OFFCURVE",
"886 -5 OFFCURVE",
"970 -5 CURVE SMOOTH",
"1048 -5 OFFCURVE",
"1112 64 OFFCURVE",
"1221 244 CURVE SMOOTH"
);
},
{
closed = 1;
nodes = (
"310 28 OFFCURVE",
"395 159 CURVE",
"533 339 OFFCURVE",
"660 601 OFFCURVE",
"660 768 CURVE SMOOTH",
"660 881 OFFCURVE",
"620 940 OFFCURVE",
"558 940 CURVE SMOOTH",
"376 940 OFFCURVE",
"286 530 OFFCURVE",
"286 292 CURVE SMOOTH",
"286 136 OFFCURVE",
"338 -5 OFFCURVE",
"436 -5 CURVE SMOOTH",
"504 -5 OFFCURVE",
"574 60 OFFCURVE",
"617 120 CURVE",
"594 228 LINE",
"554 172 OFFCURVE",
"495 105 OFFCURVE",
"457 105 CURVE SMOOTH",
"430 105 OFFCURVE",
"411 151 OFFCURVE",
"411 293 CURVE SMOOTH",
"411 552 OFFCURVE",
"487 842 OFFCURVE",
"535 842 CURVE SMOOTH",
"550 842 OFFCURVE",
"563 818 OFFCURVE",
"563 765 CURVE SMOOTH",
"563 616 OFFCURVE",
"480 423 OFFCURVE",
"378 263 CURVE",
"298 130 OFFCURVE",
"258 93 OFFCURVE",
"221 93 CURVE SMOOTH",
"190 93 OFFCURVE",
"165 119 OFFCURVE",
"165 170 CURVE SMOOTH",
"165 270 OFFCURVE",
"234 370 OFFCURVE",
"318 372 CURVE",
"309 473 LINE",
"165 455 OFFCURVE",
"40 328 OFFCURVE",
"40 158 CURVE SMOOTH",
"40 59 OFFCURVE",
"107 -5 OFFCURVE",
"194 -5 CURVE SMOOTH",
"256 -5 OFFCURVE"
);
}
);
};
layerId = "ECEFE970-1BBB-4E0A-A452-CEB55884B4A3";
paths = (
{
closed = 1;
nodes = (
"310 28 OFFCURVE",
"395 154 CURVE",
"533 339 OFFCURVE",
"641 601 OFFCURVE",
"641 768 CURVE SMOOTH",
"641 881 OFFCURVE",
"603 940 OFFCURVE",
"544 940 CURVE SMOOTH",
"366 940 OFFCURVE",
"286 530 OFFCURVE",
"286 292 CURVE SMOOTH",
"286 136 OFFCURVE",
"338 -5 OFFCURVE",
"443 -5 CURVE SMOOTH",
"517 -5 OFFCURVE",
"587 60 OFFCURVE",
"630 120 CURVE",
"607 228 LINE",
"567 172 OFFCURVE",
"508 105 OFFCURVE",
"464 105 CURVE SMOOTH",
"430 105 OFFCURVE",
"411 151 OFFCURVE",
"411 293 CURVE SMOOTH",
"411 552 OFFCURVE",
"477 842 OFFCURVE",
"521 842 CURVE SMOOTH",
"533 842 OFFCURVE",
"544 818 OFFCURVE",
"544 765 CURVE SMOOTH",
"544 616 OFFCURVE",
"480 423 OFFCURVE",
"378 268 CURVE",
"298 140 OFFCURVE",
"258 96 OFFCURVE",
"221 96 CURVE SMOOTH",
"190 96 OFFCURVE",
"165 122 OFFCURVE",
"165 172 CURVE SMOOTH",
"165 268 OFFCURVE",
"234 368 OFFCURVE",
"318 372 CURVE",
"309 473 LINE",
"165 453 OFFCURVE",
"40 326 OFFCURVE",
"40 160 CURVE SMOOTH",
"40 59 OFFCURVE",
"107 -5 OFFCURVE",
"194 -5 CURVE SMOOTH",
"256 -5 OFFCURVE"
);
}
);
width = 530;
}
);
note = d;
unicode = 0064;
},
{
glyphname = eth;
lastChange = "2016-07-18 14:46:18 +0000";
layers = (
{
layerId = "ECEFE970-1BBB-4E0A-A452-CEB55884B4A3";
paths = (
{
closed = 1;
nodes = (
"273 735 OFFCURVE",
"325 716 OFFCURVE",
"363 676 CURVE",
"282 641 LINE SMOOTH",
"257 630 OFFCURVE",
"250 617 OFFCURVE",
"250 604 CURVE SMOOTH",
"250 598 OFFCURVE",
"252 584 OFFCURVE",
"260 573 CURVE SMOOTH",
"268 561 OFFCURVE",
"280 550 OFFCURVE",
"297 550 CURVE SMOOTH",
"304 550 OFFCURVE",
"312 551 OFFCURVE",
"319 555 CURVE SMOOTH",
"334 562 OFFCURVE",
"350 568 OFFCURVE",
"365 575 CURVE SMOOTH",
"379 581 OFFCURVE",
"394 587 OFFCURVE",
"409 594 CURVE",
"420 559 OFFCURVE",
"426 520 OFFCURVE",
"426 473 CURVE SMOOTH",
"426 469 LINE",
"396 479 OFFCURVE",
"360 484 OFFCURVE",
"315 484 CURVE SMOOTH",
"270 484 OFFCURVE",
"224 467 OFFCURVE",
"182 440 CURVE SMOOTH",
"140 413 OFFCURVE",
"102 375 OFFCURVE",
"75 334 CURVE SMOOTH",
"48 292 OFFCURVE",
"31 247 OFFCURVE",
"31 203 CURVE SMOOTH",
"31 131 OFFCURVE",
"61 81 OFFCURVE",
"102 48 CURVE SMOOTH",
"144 15 OFFCURVE",
"198 0 OFFCURVE",
"249 0 CURVE SMOOTH",
"308 0 OFFCURVE",
"361 23 OFFCURVE",
"406 64 CURVE SMOOTH",
"451 105 OFFCURVE",
"486 163 OFFCURVE",
"511 232 CURVE SMOOTH",
"536 302 OFFCURVE",
"550 382 OFFCURVE",
"550 468 CURVE SMOOTH",
"550 530 OFFCURVE",
"540 589 OFFCURVE",
"519 642 CURVE",
"577 667 LINE SMOOTH",
"609 681 OFFCURVE",
"619 699 OFFCURVE",
"619 716 CURVE SMOOTH",
"619 733 OFFCURVE",
"613 745 OFFCURVE",
"606 753 CURVE",
"598 761 OFFCURVE",
"588 765 OFFCURVE",
"580 765 CURVE SMOOTH",
"570 765 OFFCURVE",
"562 763 OFFCURVE",
"555 759 CURVE SMOOTH",
"474 724 LINE",
"447 761 OFFCURVE",
"415 791 OFFCURVE",
"375 812 CURVE SMOOTH",
"336 833 OFFCURVE",
"291 844 OFFCURVE",
"240 844 CURVE SMOOTH",
"214 844 OFFCURVE",
"196 837 OFFCURVE",
"185 827 CURVE SMOOTH",
"173 817 OFFCURVE",
"169 804 OFFCURVE",
"169 790 CURVE SMOOTH",
"169 776 OFFCURVE",
"173 763 OFFCURVE",
"181 752 CURVE SMOOTH",
"188 742 OFFCURVE",
"198 735 OFFCURVE",
"208 735 CURVE SMOOTH"
);
},
{
closed = 1;
nodes = (
"220 94 OFFCURVE",
"189 107 OFFCURVE",
"169 127 CURVE SMOOTH",
"150 146 OFFCURVE",
"142 174 OFFCURVE",
"142 203 CURVE SMOOTH",
"142 250 OFFCURVE",
"166 292 OFFCURVE",
"201 324 CURVE SMOOTH",
"236 355 OFFCURVE",
"281 375 OFFCURVE",
"323 375 CURVE SMOOTH",
"364 375 OFFCURVE",
"392 366 OFFCURVE",
"414 356 CURVE",
"402 293 OFFCURVE",
"382 229 OFFCURVE",
"356 178 CURVE SMOOTH",
"331 128 OFFCURVE",
"299 94 OFFCURVE",
"265 94 CURVE SMOOTH"
);
}
);
width = 532;
}
);
note = eth;
unicode = 00F0;
},
{
color = 3;
glyphname = e;
lastChange = "2016-07-18 18:44:56 +0000";
layers = (
{
background = {
paths = (
{
closed = 1;
nodes = (
"876 0 OFFCURVE",
"914 10 OFFCURVE",
"950 24 CURVE SMOOTH",
"985 38 OFFCURVE",
"1018 59 OFFCURVE",
"1046 78 CURVE SMOOTH",
"1079 100 OFFCURVE",
"1108 127 OFFCURVE",
"1137 157 CURVE",
"1074 222 LINE",
"1048 197 OFFCURVE",
"1010 168 OFFCURVE",
"969 145 CURVE SMOOTH",
"928 122 OFFCURVE",
"883 104 OFFCURVE",
"844 104 CURVE SMOOTH",
"832 104 OFFCURVE",
"821 106 OFFCURVE",
"812 112 CURVE SMOOTH",
"802 119 OFFCURVE",
"793 130 OFFCURVE",
"783 148 CURVE",
"839 164 OFFCURVE",
"889 193 OFFCURVE",
"924 229 CURVE SMOOTH",
"959 265 OFFCURVE",
"981 306 OFFCURVE",
"981 346 CURVE SMOOTH",
"981 383 OFFCURVE",
"967 414 OFFCURVE",
"944 435 CURVE SMOOTH",
"921 456 OFFCURVE",
"889 468 OFFCURVE",
"852 468 CURVE SMOOTH",
"807 468 OFFCURVE",
"771 452 OFFCURVE",
"741 424 CURVE SMOOTH",
"712 397 OFFCURVE",
"690 360 OFFCURVE",
"675 321 CURVE SMOOTH",
"660 282 OFFCURVE",
"653 240 OFFCURVE",
"653 204 CURVE SMOOTH",
"653 149 OFFCURVE",
"668 99 OFFCURVE",
"699 62 CURVE SMOOTH",
"730 24 OFFCURVE",
"776 0 OFFCURVE",
"837 0 CURVE SMOOTH"
);
},
{
closed = 1;
nodes = (
"772 244 OFFCURVE",
"773 265 OFFCURVE",
"777 287 CURVE SMOOTH",
"781 308 OFFCURVE",
"789 331 OFFCURVE",
"802 347 CURVE SMOOTH",
"816 364 OFFCURVE",
"835 375 OFFCURVE",
"863 375 CURVE SMOOTH",
"879 375 OFFCURVE",
"891 354 OFFCURVE",
"891 325 CURVE SMOOTH",
"891 304 OFFCURVE",
"872 281 OFFCURVE",
"849 262 CURVE SMOOTH",
"825 243 OFFCURVE",
"795 229 OFFCURVE",
"772 229 CURVE"
);
},
{
closed = 1;
nodes = (
"-178 -5 OFFCURVE",
"-76 31 OFFCURVE",
"-13 120 CURVE",
"-34 228 LINE",
"-106 124 OFFCURVE",
"-190 95 OFFCURVE",
"-232 95 CURVE SMOOTH",
"-302 95 OFFCURVE",
"-333 135 OFFCURVE",
"-333 211 CURVE SMOOTH",
"-333 301 OFFCURVE",
"-291 368 OFFCURVE",
"-243 368 CURVE SMOOTH",
"-225 368 OFFCURVE",
"-216 358 OFFCURVE",
"-216 341 CURVE SMOOTH",
"-216 321 OFFCURVE",
"-226 304 OFFCURVE",
"-226 284 CURVE SMOOTH",
"-226 256 OFFCURVE",
"-209 244 OFFCURVE",
"-185 244 CURVE SMOOTH",
"-144 244 OFFCURVE",
"-118 290 OFFCURVE",
"-118 350 CURVE SMOOTH",
"-118 416 OFFCURVE",
"-158 466 OFFCURVE",
"-236 466 CURVE SMOOTH",
"-348 466 OFFCURVE",
"-460 365 OFFCURVE",
"-460 194 CURVE SMOOTH",
"-460 79 OFFCURVE",
"-387 -5 OFFCURVE",
"-253 -5 CURVE SMOOTH"
);
},
{
closed = 1;
nodes = (
"322 -5 OFFCURVE",
"424 31 OFFCURVE",
"487 120 CURVE",
"466 228 LINE",
"394 124 OFFCURVE",
"310 95 OFFCURVE",
"268 95 CURVE SMOOTH",
"198 95 OFFCURVE",
"165 137 OFFCURVE",
"165 211 CURVE SMOOTH",
"165 301 OFFCURVE",
"203 368 OFFCURVE",
"253 368 CURVE SMOOTH",
"277 368 OFFCURVE",
"292 352 OFFCURVE",
"292 326 CURVE SMOOTH",
"292 272 OFFCURVE",
"234 229 OFFCURVE",
"139 214 CURVE",
"159 136 LINE",
"325 176 OFFCURVE",
"400 248 OFFCURVE",
"400 339 CURVE SMOOTH",
"400 417 OFFCURVE",
"345 466 OFFCURVE",
"260 466 CURVE SMOOTH",
"148 466 OFFCURVE",
"40 364 OFFCURVE",
"40 197 CURVE SMOOTH",
"40 79 OFFCURVE",
"113 -5 OFFCURVE",
"247 -5 CURVE SMOOTH"
);
}
);
};
layerId = "ECEFE970-1BBB-4E0A-A452-CEB55884B4A3";
paths = (
{
closed = 1;
nodes = (
"338 -5 OFFCURVE",
"444 31 OFFCURVE",
"512 120 CURVE",
"491 228 LINE",
"409 124 OFFCURVE",
"330 95 OFFCURVE",
"276 95 CURVE SMOOTH",
"198 95 OFFCURVE",
"165 137 OFFCURVE",
"165 211 CURVE SMOOTH",
"165 301 OFFCURVE",
"203 368 OFFCURVE",
"253 368 CURVE SMOOTH",
"277 368 OFFCURVE",
"292 352 OFFCURVE",
"292 326 CURVE SMOOTH",
"292 272 OFFCURVE",
"234 229 OFFCURVE",
"139 214 CURVE",
"159 136 LINE",
"345 176 OFFCURVE",
"400 248 OFFCURVE",
"400 339 CURVE SMOOTH",
"400 417 OFFCURVE",
"345 466 OFFCURVE",
"260 466 CURVE SMOOTH",
"148 466 OFFCURVE",
"40 364 OFFCURVE",
"40 197 CURVE SMOOTH",
"40 79 OFFCURVE",
"115 -5 OFFCURVE",
"255 -5 CURVE SMOOTH"
);
}
);
width = 399;
}
);
note = e;
unicode = 0065;
},
{
glyphname = f;
lastChange = "2016-07-18 19:10:16 +0000";
layers = (
{
background = {
paths = (
{
closed = 1;
nodes = (
"1712 -58 OFFCURVE",
"1715 -102 OFFCURVE",
"1722 -143 CURVE SMOOTH",
"1729 -184 OFFCURVE",
"1742 -222 OFFCURVE",
"1761 -250 CURVE SMOOTH",
"1780 -277 OFFCURVE",
"1806 -295 OFFCURVE",
"1842 -295 CURVE SMOOTH",
"1860 -295 OFFCURVE",
"1876 -291 OFFCURVE",
"1890 -284 CURVE SMOOTH",
"1918 -270 OFFCURVE",
"1940 -244 OFFCURVE",
"1956 -212 CURVE SMOOTH",
"1972 -181 OFFCURVE",
"1983 -146 OFFCURVE",
"1991 -113 CURVE SMOOTH",
"1999 -80 OFFCURVE",
"2001 -52 OFFCURVE",
"2003 -33 CURVE",
"2004 -23 OFFCURVE",
"2004 -17 OFFCURVE",
"2004 -14 CURVE SMOOTH",
"2004 11 OFFCURVE",
"2001 36 OFFCURVE",
"1994 61 CURVE SMOOTH",
"1981 109 OFFCURVE",
"1964 151 OFFCURVE",
"1940 194 CURVE",
"1963 195 OFFCURVE",
"1986 197 OFFCURVE",
"2009 201 CURVE SMOOTH",
"2049 208 OFFCURVE",
"2098 219 OFFCURVE",
"2141 243 CURVE",
"2152 361 LINE",
"2137 347 OFFCURVE",
"2120 334 OFFCURVE",
"2100 324 CURVE SMOOTH",
"2066 307 OFFCURVE",
"2017 287 OFFCURVE",
"1952 287 CURVE SMOOTH",
"1946 287 OFFCURVE",
"1942 289 OFFCURVE",
"1938 291 CURVE",
"1933 292 OFFCURVE",
"1929 294 OFFCURVE",
"1920 294 CURVE SMOOTH",
"1913 294 OFFCURVE",
"1908 293 OFFCURVE",
"1895 287 CURVE",
"1896 294 LINE",
"1937 346 OFFCURVE",
"1976 406 OFFCURVE",
"2011 467 CURVE SMOOTH",
"2046 528 OFFCURVE",
"2076 590 OFFCURVE",
"2098 647 CURVE SMOOTH",
"2120 704 OFFCURVE",
"2133 754 OFFCURVE",
"2133 793 CURVE SMOOTH",
"2133 835 OFFCURVE",
"2117 864 OFFCURVE",
"2097 881 CURVE SMOOTH",
"2076 898 OFFCURVE",
"2051 906 OFFCURVE",
"2029 906 CURVE SMOOTH",
"2001 906 OFFCURVE",
"1975 898 OFFCURVE",
"1952 881 CURVE SMOOTH",
"1905 847 OFFCURVE",
"1867 788 OFFCURVE",
"1837 710 CURVE SMOOTH",
"1807 632 OFFCURVE",
"1783 543 OFFCURVE",
"1765 450 CURVE SMOOTH",
"1747 357 OFFCURVE",
"1735 268 OFFCURVE",
"1727 189 CURVE SMOOTH",
"1719 110 OFFCURVE",
"1714 48 OFFCURVE",
"1714 11 CURVE SMOOTH",
"1714 -7 OFFCURVE",
"1712 -17 OFFCURVE",
"1712 -19 CURVE SMOOTH"
);
},
{
closed = 1;
nodes = (
"1846 216 OFFCURVE",
"1851 211 OFFCURVE",
"1855 203 CURVE SMOOTH",
"1860 194 OFFCURVE",
"1865 183 OFFCURVE",
"1869 168 CURVE SMOOTH",
"1877 140 OFFCURVE",
"1886 103 OFFCURVE",
"1892 66 CURVE SMOOTH",
"1898 30 OFFCURVE",
"1902 -5 OFFCURVE",
"1902 -28 CURVE SMOOTH",
"1902 -62 OFFCURVE",
"1901 -101 OFFCURVE",
"1894 -131 CURVE SMOOTH",
"1887 -163 OFFCURVE",
"1874 -185 OFFCURVE",
"1852 -185 CURVE SMOOTH",
"1848 -185 OFFCURVE",
"1845 -183 OFFCURVE",
"1842 -178 CURVE SMOOTH",
"1839 -173 OFFCURVE",
"1835 -165 OFFCURVE",
"1832 -150 CURVE SMOOTH",
"1829 -135 OFFCURVE",
"1827 -114 OFFCURVE",
"1825 -85 CURVE SMOOTH",
"1823 -57 OFFCURVE",
"1823 -19 OFFCURVE",
"1823 29 CURVE SMOOTH",
"1823 36 OFFCURVE",
"1823 45 OFFCURVE",
"1824 57 CURVE SMOOTH",
"1826 81 OFFCURVE",
"1827 109 OFFCURVE",
"1829 138 CURVE SMOOTH",
"1831 167 OFFCURVE",
"1836 190 OFFCURVE",
"1838 205 CURVE SMOOTH",
"1839 212 OFFCURVE",
"1841 216 OFFCURVE",
"1843 216 CURVE SMOOTH"
);
},
{
closed = 1;
nodes = (
"1973 780 OFFCURVE",
"1987 796 OFFCURVE",
"2016 796 CURVE SMOOTH",
"2033 796 OFFCURVE",
"2044 781 OFFCURVE",
"2044 747 CURVE SMOOTH",
"2044 734 OFFCURVE",
"2039 716 OFFCURVE",
"2029 692 CURVE SMOOTH",
"2009 644 OFFCURVE",
"1974 582 OFFCURVE",
"1934 509 CURVE SMOOTH",
"1914 473 OFFCURVE",
"1894 436 OFFCURVE",
"1874 398 CURVE",
"1876 417 OFFCURVE",
"1878 436 OFFCURVE",
"1881 457 CURVE SMOOTH",
"1884 478 OFFCURVE",
"1887 502 OFFCURVE",
"1892 530 CURVE SMOOTH",
"1902 585 OFFCURVE",
"1925 655 OFFCURVE",
"1961 749 CURVE SMOOTH"
);
},
{
closed = 1;
nodes = (
"1273 368 OFFCURVE",
"1413 841 OFFCURVE",
"1469 841 CURVE SMOOTH",
"1486 841 OFFCURVE",
"1488 818 OFFCURVE",
"1486 765 CURVE SMOOTH",
"1482 661 OFFCURVE",
"1412 500 OFFCURVE",
"1273 369 CURVE",
"1279 259 LINE",
"1523 493 OFFCURVE",
"1584 670 OFFCURVE",
"1584 801 CURVE SMOOTH",
"1584 886 OFFCURVE",
"1553 940 OFFCURVE",
"1494 940 CURVE SMOOTH",
"1294 940 OFFCURVE",
"1148 432 OFFCURVE",
"1148 34 CURVE SMOOTH",
"1148 -143 OFFCURVE",
"1174 -296 OFFCURVE",
"1264 -296 CURVE SMOOTH",
"1336 -296 OFFCURVE",
"1401 -214 OFFCURVE",
"1401 -68 CURVE SMOOTH",
"1401 7 OFFCURVE",
"1390 147 OFFCURVE",
"1328 223 CURVE",
"1275 190 LINE",
"1316 97 OFFCURVE",
"1325 0 OFFCURVE",
"1325 -64 CURVE SMOOTH",
"1325 -151 OFFCURVE",
"1316 -192 OFFCURVE",
"1301 -192 CURVE SMOOTH",
"1283 -192 OFFCURVE",
"1273 -144 OFFCURVE",
"1273 61 CURVE SMOOTH"
);
},
{
closed = 1;
nodes = (
"1597 179 OFFCURVE",
"1595 288 OFFCURVE",
"1543 262 CURVE SMOOTH",
"1531 256 OFFCURVE",
"1502 246 OFFCURVE",
"1452 246 CURVE SMOOTH",
"1399 246 OFFCURVE",
"1371 267 OFFCURVE",
"1344 267 CURVE SMOOTH",
"1311 267 OFFCURVE",
"1276 216 OFFCURVE",
"1276 190 CURVE",
"1331 148 OFFCURVE",
"1412 138 OFFCURVE",
"1449 138 CURVE SMOOTH",
"1496 138 OFFCURVE",
"1534 146 OFFCURVE",
"1561 160 CURVE SMOOTH"
);
},
{
closed = 1;
nodes = (
"858 -296 OFFCURVE",
"921 -214 OFFCURVE",
"915 -68 CURVE SMOOTH",
"912 7 OFFCURVE",
"897 147 OFFCURVE",
"831 223 CURVE",
"780 190 LINE",
"824 97 OFFCURVE",
"836 0 OFFCURVE",
"838 -64 CURVE SMOOTH",
"841 -151 OFFCURVE",
"834 -192 OFFCURVE",
"819 -192 CURVE SMOOTH",
"801 -192 OFFCURVE",
"789 -144 OFFCURVE",
"782 61 CURVE SMOOTH",
"772 368 OFFCURVE",
"895 841 OFFCURVE",
"951 841 CURVE SMOOTH",
"968 841 OFFCURVE",
"971 818 OFFCURVE",
"971 765 CURVE SMOOTH",
"971 661 OFFCURVE",
"906 500 OFFCURVE",
"771 369 CURVE",
"781 259 LINE",
"1017 493 OFFCURVE",
"1072 670 OFFCURVE",
"1067 801 CURVE SMOOTH",
"1064 886 OFFCURVE",
"1031 940 OFFCURVE",
"972 940 CURVE SMOOTH",
"772 940 OFFCURVE",
"645 432 OFFCURVE",
"658 34 CURVE SMOOTH",
"664 -143 OFFCURVE",
"696 -296 OFFCURVE",
"786 -296 CURVE SMOOTH"
);
},
{
closed = 1;
nodes = (
"1002 138 OFFCURVE",
"1041 146 OFFCURVE",
"1067 160 CURVE SMOOTH",
"1102 179 OFFCURVE",
"1096 288 OFFCURVE",
"1045 262 CURVE SMOOTH",
"1033 256 OFFCURVE",
"1005 246 OFFCURVE",
"955 246 CURVE SMOOTH",
"902 246 OFFCURVE",
"873 267 OFFCURVE",
"846 267 CURVE SMOOTH",
"813 267 OFFCURVE",
"780 216 OFFCURVE",
"781 190 CURVE",
"837 148 OFFCURVE",
"918 138 OFFCURVE",
"955 138 CURVE SMOOTH"
);
},
{
closed = 1;
nodes = (
"255 -296 OFFCURVE",
"315 -220 OFFCURVE",
"315 -84 CURVE SMOOTH",
"315 -15 OFFCURVE",
"300 141 OFFCURVE",
"229 223 CURVE",
"180 190 LINE",
"221 104 OFFCURVE",
"239 1 OFFCURVE",
"239 -105 CURVE SMOOTH",
"239 -164 OFFCURVE",
"231 -192 OFFCURVE",
"219 -192 CURVE SMOOTH",
"188 -192 OFFCURVE",
"181 15 OFFCURVE",
"181 101 CURVE SMOOTH",
"181 407 OFFCURVE",
"297 841 OFFCURVE",
"351 841 CURVE SMOOTH",
"367 841 OFFCURVE",
"371 824 OFFCURVE",
"371 780 CURVE SMOOTH",
"370 657 OFFCURVE",
"306 500 OFFCURVE",
"171 369 CURVE",
"181 259 LINE",
"408 484 OFFCURVE",
"467 656 OFFCURVE",
"467 785 CURVE SMOOTH",
"467 879 OFFCURVE",
"435 940 OFFCURVE",
"372 940 CURVE SMOOTH",
"190 940 OFFCURVE",
"57 481 OFFCURVE",
"57 94 CURVE SMOOTH",
"57 -89 OFFCURVE",
"82 -296 OFFCURVE",
"186 -296 CURVE SMOOTH"
);
},
{
closed = 1;
nodes = (
"406 160 OFFCURVE",
"444 173 OFFCURVE",
"468 190 CURVE SMOOTH",
"501 213 OFFCURVE",
"483 320 OFFCURVE",
"435 289 CURVE SMOOTH",
"424 282 OFFCURVE",
"397 269 OFFCURVE",
"348 264 CURVE SMOOTH",
"295 259 OFFCURVE",
"264 276 OFFCURVE",
"237 273 CURVE SMOOTH",
"204 269 OFFCURVE",
"177 216 OFFCURVE",
"180 190 CURVE",
"240 154 OFFCURVE",
"322 153 OFFCURVE",
"359 156 CURVE SMOOTH"
);
}
);
};
layerId = "ECEFE970-1BBB-4E0A-A452-CEB55884B4A3";
paths = (
{
closed = 1;
nodes = (
"255 -296 OFFCURVE",
"315 -220 OFFCURVE",
"315 -84 CURVE SMOOTH",
"315 -15 OFFCURVE",
"300 141 OFFCURVE",
"229 223 CURVE",
"180 190 LINE",
"221 104 OFFCURVE",
"239 1 OFFCURVE",
"239 -105 CURVE SMOOTH",
"239 -164 OFFCURVE",
"231 -192 OFFCURVE",
"219 -192 CURVE SMOOTH",
"188 -192 OFFCURVE",
"181 15 OFFCURVE",
"181 101 CURVE SMOOTH",
"181 407 OFFCURVE",
"297 841 OFFCURVE",
"351 841 CURVE SMOOTH",
"367 841 OFFCURVE",
"371 824 OFFCURVE",
"371 780 CURVE SMOOTH",
"370 657 OFFCURVE",
"306 500 OFFCURVE",
"171 369 CURVE",
"181 259 LINE",
"408 484 OFFCURVE",
"467 656 OFFCURVE",
"467 785 CURVE SMOOTH",
"467 879 OFFCURVE",
"435 940 OFFCURVE",
"372 940 CURVE SMOOTH",
"190 940 OFFCURVE",
"57 481 OFFCURVE",
"57 94 CURVE SMOOTH",
"57 -89 OFFCURVE",
"82 -296 OFFCURVE",
"186 -296 CURVE SMOOTH"
);
},
{
closed = 1;
nodes = (
"399 156 OFFCURVE",
"439 176 OFFCURVE",
"466 203 CURVE",
"435 296 LINE",
"415 279 OFFCURVE",
"388 264 OFFCURVE",
"338 264 CURVE SMOOTH",
"295 264 OFFCURVE",
"264 273 OFFCURVE",
"237 273 CURVE SMOOTH",
"204 273 OFFCURVE",
"177 216 OFFCURVE",
"180 190 CURVE",
"233 168 OFFCURVE",
"307 156 OFFCURVE",
"336 156 CURVE SMOOTH"
);
}
);
width = 360;
}
);
note = f;
unicode = 0066;
},
{
glyphname = g;
lastChange = "2016-07-18 14:46:18 +0000";
layers = (
{
layerId = "ECEFE970-1BBB-4E0A-A452-CEB55884B4A3";
paths = (
{
closed = 1;
nodes = (
"204 -33 OFFCURVE",
"158 -76 OFFCURVE",
"116 -119 CURVE SMOOTH",
"74 -163 OFFCURVE",
"37 -208 OFFCURVE",
"11 -248 CURVE SMOOTH",
"-15 -289 OFFCURVE",
"-31 -327 OFFCURVE",
"-31 -356 CURVE SMOOTH",
"-31 -398 OFFCURVE",
"-15 -422 OFFCURVE",
"7 -436 CURVE SMOOTH",
"28 -450 OFFCURVE",
"56 -453 OFFCURVE",
"78 -453 CURVE SMOOTH",
"134 -453 OFFCURVE",
"180 -433 OFFCURVE",
"218 -398 CURVE SMOOTH",
"255 -364 OFFCURVE",
"284 -314 OFFCURVE",
"308 -257 CURVE SMOOTH",
"331 -199 OFFCURVE",
"347 -132 OFFCURVE",
"359 -63 CURVE",
"391 -43 OFFCURVE",
"421 -23 OFFCURVE",
"449 -2 CURVE SMOOTH",
"472 16 OFFCURVE",
"498 36 OFFCURVE",
"520 57 CURVE SMOOTH",
"542 78 OFFCURVE",
"562 100 OFFCURVE",
"573 120 CURVE",
"550 228 LINE",
"507 166 OFFCURVE",
"473 126 OFFCURVE",
"445 99 CURVE SMOOTH",
"417 72 OFFCURVE",
"395 57 OFFCURVE",
"375 46 CURVE",
"384 97 OFFCURVE",
"392 145 OFFCURVE",
"398 190 CURVE SMOOTH",
"404 228 OFFCURVE",
"410 269 OFFCURVE",
"415 304 CURVE SMOOTH",
"419 339 OFFCURVE",
"422 369 OFFCURVE",
"422 386 CURVE SMOOTH",
"422 406 OFFCURVE",
"418 417 OFFCURVE",
"412 423 CURVE SMOOTH",
"405 430 OFFCURVE",
"396 431 OFFCURVE",
"387 431 CURVE SMOOTH",
"383 431 OFFCURVE",
"379 431 OFFCURVE",
"376 431 CURVE",
"372 431 OFFCURVE",
"368 431 OFFCURVE",
"365 431 CURVE SMOOTH",
"360 431 OFFCURVE",
"356 431 OFFCURVE",
"353 432 CURVE SMOOTH",
"344 433 OFFCURVE",
"336 435 OFFCURVE",
"331 442 CURVE SMOOTH",
"328 446 OFFCURVE",
"325 450 OFFCURVE",
"323 454 CURVE",
"317 461 OFFCURVE",
"310 468 OFFCURVE",
"294 468 CURVE SMOOTH",
"250 468 OFFCURVE",
"206 447 OFFCURVE",
"167 415 CURVE SMOOTH",
"127 382 OFFCURVE",
"94 337 OFFCURVE",
"70 288 CURVE SMOOTH",
"46 239 OFFCURVE",
"31 186 OFFCURVE",
"31 137 CURVE SMOOTH",
"31 94 OFFCURVE",
"46 60 OFFCURVE",
"69 36 CURVE SMOOTH",
"92 12 OFFCURVE",
"123 -1 OFFCURVE",
"154 -1 CURVE SMOOTH",
"189 -1 OFFCURVE",
"229 20 OFFCURVE",
"264 51 CURVE",
"251 6 LINE"
);
},
{
closed = 1;
nodes = (
"156 187 OFFCURVE",
"164 221 OFFCURVE",
"178 253 CURVE SMOOTH",
"191 285 OFFCURVE",
"211 315 OFFCURVE",
"233 338 CURVE SMOOTH",
"256 361 OFFCURVE",
"281 375 OFFCURVE",
"308 375 CURVE",
"278 231 LINE",
"276 210 OFFCURVE",
"267 176 OFFCURVE",
"252 147 CURVE SMOOTH",
"238 118 OFFCURVE",
"218 94 OFFCURVE",
"194 94 CURVE SMOOTH",
"179 94 OFFCURVE",
"170 102 OFFCURVE",
"164 114 CURVE SMOOTH",
"158 126 OFFCURVE",
"156 142 OFFCURVE",
"156 158 CURVE SMOOTH"
);
},
{
closed = 1;
nodes = (
"71 -359 OFFCURVE",
"64 -354 OFFCURVE",
"64 -341 CURVE SMOOTH",
"64 -326 OFFCURVE",
"75 -302 OFFCURVE",
"92 -276 CURVE SMOOTH",
"109 -250 OFFCURVE",
"132 -220 OFFCURVE",
"157 -193 CURVE SMOOTH",
"182 -166 OFFCURVE",
"209 -142 OFFCURVE",
"234 -125 CURVE",
"229 -151 OFFCURVE",
"220 -186 OFFCURVE",
"207 -220 CURVE SMOOTH",
"194 -255 OFFCURVE",
"177 -290 OFFCURVE",
"157 -316 CURVE SMOOTH",
"136 -342 OFFCURVE",
"111 -359 OFFCURVE",
"84 -359 CURVE SMOOTH"
);
}
);
width = 453;
}
);
note = g;
unicode = 0067;
},
{
color = 3;
glyphname = h;
lastChange = "2016-07-18 18:45:15 +0000";
layers = (
{
background = {
paths = (
{
closed = 1;
nodes = (
"1355 352 OFFCURVE",
"1386 407 OFFCURVE",
"1416 468 CURVE SMOOTH",
"1446 529 OFFCURVE",
"1476 595 OFFCURVE",
"1498 658 CURVE SMOOTH",
"1520 721 OFFCURVE",
"1535 781 OFFCURVE",
"1535 830 CURVE SMOOTH",
"1535 862 OFFCURVE",
"1531 889 OFFCURVE",
"1518 908 CURVE SMOOTH",
"1505 927 OFFCURVE",
"1483 938 OFFCURVE",
"1447 938 CURVE SMOOTH",
"1380 938 OFFCURVE",
"1328 897 OFFCURVE",
"1290 833 CURVE SMOOTH",
"1252 769 OFFCURVE",
"1224 682 OFFCURVE",
"1207 589 CURVE SMOOTH",
"1190 496 OFFCURVE",
"1180 398 OFFCURVE",
"1175 312 CURVE SMOOTH",
"1170 226 OFFCURVE",
"1169 152 OFFCURVE",
"1169 109 CURVE SMOOTH",
"1169 82 OFFCURVE",
"1171 55 OFFCURVE",
"1177 34 CURVE SMOOTH",
"1183 14 OFFCURVE",
"1195 0 OFFCURVE",
"1216 0 CURVE SMOOTH",
"1225 0 OFFCURVE",
"1231 2 OFFCURVE",
"1237 5 CURVE",
"1247 13 OFFCURVE",
"1254 26 OFFCURVE",
"1264 48 CURVE SMOOTH",
"1269 59 OFFCURVE",
"1275 72 OFFCURVE",
"1282 86 CURVE SMOOTH",
"1297 116 OFFCURVE",
"1312 145 OFFCURVE",
"1330 173 CURVE SMOOTH",
"1366 229 OFFCURVE",
"1399 275 OFFCURVE",
"1426 303 CURVE SMOOTH",
"1440 318 OFFCURVE",
"1449 327 OFFCURVE",
"1454 331 CURVE",
"1465 329 LINE",
"1464 328 OFFCURVE",
"1462 325 OFFCURVE",
"1458 318 CURVE SMOOTH",
"1455 312 OFFCURVE",
"1451 304 OFFCURVE",
"1447 294 CURVE SMOOTH",
"1439 274 OFFCURVE",
"1427 249 OFFCURVE",
"1419 223 CURVE SMOOTH",
"1411 197 OFFCURVE",
"1404 170 OFFCURVE",
"1404 149 CURVE SMOOTH",
"1404 118 OFFCURVE",
"1413 81 OFFCURVE",
"1430 51 CURVE SMOOTH",
"1447 21 OFFCURVE",
"1473 0 OFFCURVE",
"1509 0 CURVE SMOOTH",
"1532 0 OFFCURVE",
"1559 9 OFFCURVE",
"1585 21 CURVE SMOOTH",
"1610 33 OFFCURVE",
"1636 49 OFFCURVE",
"1658 65 CURVE SMOOTH",
"1680 81 OFFCURVE",
"1698 94 OFFCURVE",
"1710 104 CURVE",
"1702 233 LINE",
"1685 212 OFFCURVE",
"1667 193 OFFCURVE",
"1649 177 CURVE SMOOTH",
"1634 163 OFFCURVE",
"1617 148 OFFCURVE",
"1599 138 CURVE SMOOTH",
"1582 128 OFFCURVE",
"1564 121 OFFCURVE",
"1548 121 CURVE SMOOTH",
"1536 121 OFFCURVE",
"1527 138 OFFCURVE",
"1527 164 CURVE SMOOTH",
"1527 211 OFFCURVE",
"1542 254 OFFCURVE",
"1556 296 CURVE SMOOTH",
"1570 338 OFFCURVE",
"1586 379 OFFCURVE",
"1586 424 CURVE SMOOTH",
"1586 446 OFFCURVE",
"1579 458 OFFCURVE",
"1570 467 CURVE SMOOTH",
"1562 475 OFFCURVE",
"1551 478 OFFCURVE",
"1543 478 CURVE SMOOTH",
"1512 478 OFFCURVE",
"1475 452 OFFCURVE",
"1440 417 CURVE SMOOTH",
"1404 381 OFFCURVE",
"1370 339 OFFCURVE",
"1343 304 CURVE",
"1333 311 LINE"
);
},
{
closed = 1;
nodes = (
"1381 591 OFFCURVE",
"1373 573 OFFCURVE",
"1364 552 CURVE SMOOTH",
"1346 510 OFFCURVE",
"1325 462 OFFCURVE",
"1305 414 CURVE SMOOTH",
"1295 390 OFFCURVE",
"1285 367 OFFCURVE",
"1276 347 CURVE",
"1279 384 OFFCURVE",
"1283 422 OFFCURVE",
"1289 460 CURVE SMOOTH",
"1294 494 OFFCURVE",
"1300 531 OFFCURVE",
"1307 569 CURVE SMOOTH",
"1314 607 OFFCURVE",
"1324 646 OFFCURVE",
"1335 682 CURVE",
"1358 735 OFFCURVE",
"1377 775 OFFCURVE",
"1394 803 CURVE SMOOTH",
"1411 831 OFFCURVE",
"1423 844 OFFCURVE",
"1431 844 CURVE SMOOTH",
"1438 844 OFFCURVE",
"1441 832 OFFCURVE",
"1441 807 CURVE SMOOTH",
"1441 774 OFFCURVE",
"1422 706 OFFCURVE",
"1386 605 CURVE SMOOTH"
);
},
{
closed = 1;
nodes = (
"784 236 LINE",
"784 552 OFFCURVE",
"861 841 OFFCURVE",
"909 841 CURVE SMOOTH",
"926 841 OFFCURVE",
"937 818 OFFCURVE",
"937 775 CURVE SMOOTH",
"937 661 OFFCURVE",
"850 511 OFFCURVE",
"753 418 CURVE",
"777 326 LINE",
"958 523 OFFCURVE",
"1034 660 OFFCURVE",
"1034 798 CURVE SMOOTH",
"1034 881 OFFCURVE",
"994 940 OFFCURVE",
"932 940 CURVE SMOOTH",
"750 940 OFFCURVE",
"660 530 OFFCURVE",
"660 275 CURVE"
);
},
{
closed = 1;
nodes = (
"348 466 OFFCURVE",
"255 410 OFFCURVE",
"184 236 CURVE",
"190 294 OFFCURVE",
"202 338 OFFCURVE",
"210 370 CURVE SMOOTH",
"218 400 OFFCURVE",
"222 422 OFFCURVE",
"222 432 CURVE SMOOTH",
"222 450 OFFCURVE",
"214 466 OFFCURVE",
"173 466 CURVE SMOOTH",
"127 466 OFFCURVE",
"109 448 OFFCURVE",
"97 410 CURVE SMOOTH",
"70 328 OFFCURVE",
"60 243 OFFCURVE",
"60 163 CURVE SMOOTH",
"60 49 OFFCURVE",
"77 -5 OFFCURVE",
"131 -5 CURVE SMOOTH",
"174 -5 OFFCURVE",
"190 12 OFFCURVE",
"205 75 CURVE SMOOTH",
"237 204 OFFCURVE",
"301 311 OFFCURVE",
"324 311 CURVE SMOOTH",
"330 311 OFFCURVE",
"334 306 OFFCURVE",
"334 295 CURVE SMOOTH",
"334 252 OFFCURVE",
"307 160 OFFCURVE",
"307 110 CURVE SMOOTH",
"307 37 OFFCURVE",
"341 -5 OFFCURVE",
"423 -5 CURVE SMOOTH",
"506 -5 OFFCURVE",
"575 60 OFFCURVE",
"618 120 CURVE",
"595 228 LINE",
"555 172 OFFCURVE",
"496 105 OFFCURVE",
"461 105 CURVE SMOOTH",
"444 105 OFFCURVE",
"433 118 OFFCURVE",
"433 145 CURVE SMOOTH",
"433 200 OFFCURVE",
"474 332 OFFCURVE",
"474 401 CURVE SMOOTH",
"474 443 OFFCURVE",
"453 466 OFFCURVE",
"408 466 CURVE SMOOTH"
);
}
);
};
layerId = "ECEFE970-1BBB-4E0A-A452-CEB55884B4A3";
paths = (
{
closed = 1;
nodes = (
"184 532 OFFCURVE",
"261 841 OFFCURVE",
"310 841 CURVE SMOOTH",
"327 841 OFFCURVE",
"339 818 OFFCURVE",
"339 775 CURVE SMOOTH",
"339 661 OFFCURVE",
"250 507 OFFCURVE",
"153 414 CURVE",
"177 326 LINE",
"358 523 OFFCURVE",
"436 660 OFFCURVE",
"436 798 CURVE SMOOTH",
"436 881 OFFCURVE",
"395 940 OFFCURVE",
"333 940 CURVE SMOOTH",
"150 940 OFFCURVE",
"60 530 OFFCURVE",
"60 265 CURVE SMOOTH",
"60 49 OFFCURVE",
"69 -5 OFFCURVE",
"131 -5 CURVE SMOOTH",
"174 -5 OFFCURVE",
"190 12 OFFCURVE",
"205 75 CURVE SMOOTH",
"237 204 OFFCURVE",
"301 311 OFFCURVE",
"324 311 CURVE SMOOTH",
"330 311 OFFCURVE",
"334 306 OFFCURVE",
"334 295 CURVE SMOOTH",
"334 252 OFFCURVE",
"307 160 OFFCURVE",
"307 110 CURVE SMOOTH",
"307 37 OFFCURVE",
"341 -5 OFFCURVE",
"423 -5 CURVE SMOOTH",
"506 -5 OFFCURVE",
"575 60 OFFCURVE",
"618 120 CURVE",
"595 228 LINE",
"555 172 OFFCURVE",
"496 105 OFFCURVE",
"461 105 CURVE SMOOTH",
"444 105 OFFCURVE",
"433 118 OFFCURVE",
"433 145 CURVE SMOOTH",
"433 200 OFFCURVE",
"474 332 OFFCURVE",
"474 401 CURVE SMOOTH",
"474 443 OFFCURVE",
"453 466 OFFCURVE",
"408 466 CURVE SMOOTH",
"348 466 OFFCURVE",
"255 410 OFFCURVE",
"184 236 CURVE"
);
}
);
width = 498;
}
);
note = h;
unicode = 0068;
},
{
glyphname = i;
lastChange = "2016-07-18 14:46:18 +0000";
layers = (
{
layerId = "ECEFE970-1BBB-4E0A-A452-CEB55884B4A3";
paths = (
{
closed = 1;
nodes = (
"349 194 OFFCURVE",
"336 184 OFFCURVE",
"322 171 CURVE SMOOTH",
"308 159 OFFCURVE",
"294 147 OFFCURVE",
"279 136 CURVE SMOOTH",
"250 112 OFFCURVE",
"220 94 OFFCURVE",
"197 94 CURVE SMOOTH",
"177 94 OFFCURVE",
"172 112 OFFCURVE",
"172 142 CURVE SMOOTH",
"172 171 OFFCURVE",
"179 210 OFFCURVE",
"189 250 CURVE SMOOTH",
"199 289 OFFCURVE",
"210 330 OFFCURVE",
"220 364 CURVE SMOOTH",
"230 398 OFFCURVE",
"237 427 OFFCURVE",
"237 441 CURVE SMOOTH",
"237 458 OFFCURVE",
"229 469 OFFCURVE",
"202 469 CURVE SMOOTH",
"187 469 OFFCURVE",
"167 465 OFFCURVE",
"150 458 CURVE SMOOTH",
"133 450 OFFCURVE",
"118 438 OFFCURVE",
"113 421 CURVE SMOOTH",
"107 397 OFFCURVE",
"101 370 OFFCURVE",
"93 341 CURVE SMOOTH",
"85 313 OFFCURVE",
"78 283 OFFCURVE",
"71 254 CURVE SMOOTH",
"58 196 OFFCURVE",
"47 139 OFFCURVE",
"47 98 CURVE SMOOTH",
"47 69 OFFCURVE",
"53 44 OFFCURVE",
"67 27 CURVE SMOOTH",
"81 10 OFFCURVE",
"104 0 OFFCURVE",
"138 0 CURVE SMOOTH",
"175 0 OFFCURVE",
"219 16 OFFCURVE",
"259 36 CURVE SMOOTH",
"300 57 OFFCURVE",
"336 83 OFFCURVE",
"359 104 CURVE",
"359 203 LINE"
);
},
{
closed = 1;
nodes = (
"141 561 OFFCURVE",
"168 532 OFFCURVE",
"225 532 CURVE SMOOTH",
"258 532 OFFCURVE",
"282 543 OFFCURVE",
"297 559 CURVE SMOOTH",
"313 575 OFFCURVE",
"320 597 OFFCURVE",
"320 619 CURVE SMOOTH",
"320 643 OFFCURVE",
"311 661 OFFCURVE",
"295 672 CURVE SMOOTH",
"280 683 OFFCURVE",
"260 688 OFFCURVE",
"237 688 CURVE SMOOTH",
"200 688 OFFCURVE",
"177 675 OFFCURVE",
"162 658 CURVE SMOOTH",
"147 642 OFFCURVE",
"141 621 OFFCURVE",
"141 606 CURVE SMOOTH"
);
}
);
width = 262;
}
);
note = i;
unicode = 0069;
},
{
glyphname = dotlessi;
lastChange = "2016-07-18 14:46:18 +0000";
layers = (
{
layerId = "ECEFE970-1BBB-4E0A-A452-CEB55884B4A3";
paths = (
{
closed = 1;
nodes = (
"349 194 OFFCURVE",
"336 184 OFFCURVE",
"322 171 CURVE SMOOTH",
"308 159 OFFCURVE",
"294 147 OFFCURVE",
"279 136 CURVE SMOOTH",
"250 112 OFFCURVE",
"220 94 OFFCURVE",
"197 94 CURVE SMOOTH",
"177 94 OFFCURVE",
"172 112 OFFCURVE",
"172 142 CURVE SMOOTH",
"172 171 OFFCURVE",
"179 210 OFFCURVE",
"189 250 CURVE SMOOTH",
"199 289 OFFCURVE",
"210 330 OFFCURVE",
"220 364 CURVE SMOOTH",
"230 398 OFFCURVE",
"237 427 OFFCURVE",
"237 441 CURVE SMOOTH",
"237 458 OFFCURVE",
"229 469 OFFCURVE",
"202 469 CURVE SMOOTH",
"187 469 OFFCURVE",
"167 465 OFFCURVE",
"150 458 CURVE SMOOTH",
"133 450 OFFCURVE",
"118 438 OFFCURVE",
"113 421 CURVE SMOOTH",
"107 397 OFFCURVE",
"101 370 OFFCURVE",
"93 341 CURVE SMOOTH",
"85 313 OFFCURVE",
"78 283 OFFCURVE",
"71 254 CURVE SMOOTH",
"58 196 OFFCURVE",
"47 139 OFFCURVE",
"47 98 CURVE SMOOTH",
"47 69 OFFCURVE",
"53 44 OFFCURVE",
"67 27 CURVE SMOOTH",
"81 10 OFFCURVE",
"104 0 OFFCURVE",
"138 0 CURVE SMOOTH",
"175 0 OFFCURVE",
"219 16 OFFCURVE",
"259 36 CURVE SMOOTH",
"300 57 OFFCURVE",
"336 83 OFFCURVE",
"359 104 CURVE",
"359 203 LINE"
);
}
);
width = 262;
}
);
note = dotlessi;
unicode = 0131;
},
{
glyphname = j;
lastChange = "2016-07-18 14:46:18 +0000";
layers = (
{
layerId = "ECEFE970-1BBB-4E0A-A452-CEB55884B4A3";
paths = (
{
closed = 1;
nodes = (
"0 -94 OFFCURVE",
"8 -168 OFFCURVE",
"28 -219 CURVE SMOOTH",
"48 -270 OFFCURVE",
"80 -297 OFFCURVE",
"125 -297 CURVE SMOOTH",
"150 -297 OFFCURVE",
"171 -291 OFFCURVE",
"189 -278 CURVE SMOOTH",
"224 -252 OFFCURVE",
"246 -212 OFFCURVE",
"260 -166 CURVE SMOOTH",
"273 -119 OFFCURVE",
"278 -76 OFFCURVE",
"280 -45 CURVE SMOOTH",
"281 -30 OFFCURVE",
"281 -20 OFFCURVE",
"281 -16 CURVE SMOOTH",
"281 8 OFFCURVE",
"279 33 OFFCURVE",
"275 57 CURVE SMOOTH",
"266 104 OFFCURVE",
"254 145 OFFCURVE",
"238 188 CURVE",
"258 188 OFFCURVE",
"278 190 OFFCURVE",
"298 193 CURVE SMOOTH",
"333 199 OFFCURVE",
"379 211 OFFCURVE",
"422 234 CURVE",
"422 328 LINE",
"387 313 OFFCURVE",
"356 301 OFFCURVE",
"331 294 CURVE SMOOTH",
"280 279 OFFCURVE",
"241 274 OFFCURVE",
"207 272 CURVE SMOOTH",
"190 271 OFFCURVE",
"172 269 OFFCURVE",
"154 266 CURVE",
"182 344 LINE",
"184 352 OFFCURVE",
"190 372 OFFCURVE",
"195 391 CURVE SMOOTH",
"201 411 OFFCURVE",
"205 429 OFFCURVE",
"205 437 CURVE SMOOTH",
"205 452 OFFCURVE",
"195 469 OFFCURVE",
"172 469 CURVE SMOOTH",
"165 469 OFFCURVE",
"157 469 OFFCURVE",
"149 468 CURVE SMOOTH",
"133 467 OFFCURVE",
"118 463 OFFCURVE",
"105 455 CURVE SMOOTH",
"93 447 OFFCURVE",
"84 432 OFFCURVE",
"74 400 CURVE SMOOTH",
"63 369 OFFCURVE",
"52 326 OFFCURVE",
"42 279 CURVE SMOOTH",
"33 232 OFFCURVE",
"24 183 OFFCURVE",
"17 138 CURVE SMOOTH",
"10 92 OFFCURVE",
"5 54 OFFCURVE",
"2 28 CURVE SMOOTH",
"1 15 OFFCURVE",
"0 5 OFFCURVE",
"0 0 CURVE SMOOTH"
);
},
{
closed = 1;
nodes = (
"148 188 OFFCURVE",
"156 159 OFFCURVE",
"164 130 CURVE SMOOTH",
"169 105 OFFCURVE",
"176 79 OFFCURVE",
"180 53 CURVE SMOOTH",
"184 28 OFFCURVE",
"188 3 OFFCURVE",
"188 -16 CURVE SMOOTH",
"188 -49 OFFCURVE",
"187 -92 OFFCURVE",
"181 -126 CURVE SMOOTH",
"174 -161 OFFCURVE",
"162 -188 OFFCURVE",
"141 -188 CURVE SMOOTH",
"138 -188 OFFCURVE",
"135 -186 OFFCURVE",
"132 -183 CURVE",
"128 -180 OFFCURVE",
"125 -174 OFFCURVE",
"122 -167 CURVE SMOOTH",
"115 -152 OFFCURVE",
"109 -129 OFFCURVE",
"109 -94 CURVE SMOOTH",
"109 16 OFFCURVE",
"123 117 OFFCURVE",
"140 218 CURVE"
);
},
{
closed = 1;
nodes = (
"108 561 OFFCURVE",
"135 532 OFFCURVE",
"192 532 CURVE SMOOTH",
"226 532 OFFCURVE",
"249 543 OFFCURVE",
"265 559 CURVE SMOOTH",
"280 575 OFFCURVE",
"287 597 OFFCURVE",
"287 619 CURVE SMOOTH",
"287 643 OFFCURVE",
"278 661 OFFCURVE",
"263 672 CURVE SMOOTH",
"248 683 OFFCURVE",
"227 688 OFFCURVE",
"204 688 CURVE SMOOTH",
"167 688 OFFCURVE",
"144 675 OFFCURVE",
"129 658 CURVE SMOOTH",
"115 642 OFFCURVE",
"108 621 OFFCURVE",
"108 606 CURVE SMOOTH"
);
}
);
width = 328;
}
);
note = j;
unicode = 006A;
},
{
glyphname = k;
lastChange = "2016-07-18 14:46:18 +0000";
layers = (
{
layerId = "ECEFE970-1BBB-4E0A-A452-CEB55884B4A3";
paths = (
{
closed = 1;
nodes = (
"266 367 LINE",
"269 373 OFFCURVE",
"274 383 OFFCURVE",
"284 400 CURVE SMOOTH",
"292 417 OFFCURVE",
"303 438 OFFCURVE",
"314 462 CURVE SMOOTH",
"338 511 OFFCURVE",
"365 573 OFFCURVE",
"386 638 CURVE SMOOTH",
"408 702 OFFCURVE",
"423 768 OFFCURVE",
"423 823 CURVE SMOOTH",
"423 854 OFFCURVE",
"419 881 OFFCURVE",
"406 901 CURVE SMOOTH",
"394 920 OFFCURVE",
"373 931 OFFCURVE",
"339 931 CURVE SMOOTH",
"297 931 OFFCURVE",
"261 913 OFFCURVE",
"231 882 CURVE SMOOTH",
"202 852 OFFCURVE",
"178 810 OFFCURVE",
"159 766 CURVE SMOOTH",
"139 721 OFFCURVE",
"125 672 OFFCURVE",
"114 628 CURVE SMOOTH",
"104 585 OFFCURVE",
"96 545 OFFCURVE",
"92 519 CURVE SMOOTH",
"80 443 OFFCURVE",
"71 360 OFFCURVE",
"65 287 CURVE SMOOTH",
"60 214 OFFCURVE",
"58 149 OFFCURVE",
"58 112 CURVE SMOOTH",
"58 82 OFFCURVE",
"59 54 OFFCURVE",
"67 34 CURVE SMOOTH",
"76 13 OFFCURVE",
"91 0 OFFCURVE",
"119 0 CURVE SMOOTH",
"140 0 OFFCURVE",
"155 9 OFFCURVE",
"170 35 CURVE SMOOTH",
"313 287 LINE SMOOTH",
"324 305 OFFCURVE",
"333 317 OFFCURVE",
"342 324 CURVE SMOOTH",
"351 332 OFFCURVE",
"358 335 OFFCURVE",
"364 335 CURVE SMOOTH",
"373 335 OFFCURVE",
"378 326 OFFCURVE",
"378 312 CURVE SMOOTH",
"378 309 OFFCURVE",
"377 305 OFFCURVE",
"375 302 CURVE SMOOTH",
"371 295 OFFCURVE",
"364 288 OFFCURVE",
"354 279 CURVE SMOOTH",
"349 274 OFFCURVE",
"344 269 OFFCURVE",
"338 263 CURVE",
"309 225 OFFCURVE",
"291 192 OFFCURVE",
"281 165 CURVE SMOOTH",
"271 137 OFFCURVE",
"268 115 OFFCURVE",
"268 100 CURVE SMOOTH",
"268 75 OFFCURVE",
"273 50 OFFCURVE",
"290 31 CURVE SMOOTH",
"307 12 OFFCURVE",
"335 0 OFFCURVE",
"382 0 CURVE SMOOTH",
"418 0 OFFCURVE",
"458 11 OFFCURVE",
"495 30 CURVE SMOOTH",
"531 48 OFFCURVE",
"563 74 OFFCURVE",
"583 103 CURVE",
"554 223 LINE",
"548 217 OFFCURVE",
"542 210 OFFCURVE",
"535 202 CURVE SMOOTH",
"528 193 OFFCURVE",
"521 185 OFFCURVE",
"514 175 CURVE",
"498 157 OFFCURVE",
"481 139 OFFCURVE",
"465 125 CURVE SMOOTH",
"449 110 OFFCURVE",
"433 101 OFFCURVE",
"420 101 CURVE SMOOTH",
"396 101 OFFCURVE",
"385 110 OFFCURVE",
"385 133 CURVE SMOOTH",
"385 147 OFFCURVE",
"388 161 OFFCURVE",
"395 174 CURVE SMOOTH",
"408 202 OFFCURVE",
"428 229 OFFCURVE",
"451 257 CURVE SMOOTH",
"462 271 OFFCURVE",
"473 284 OFFCURVE",
"482 298 CURVE SMOOTH",
"502 325 OFFCURVE",
"517 352 OFFCURVE",
"517 379 CURVE SMOOTH",
"517 406 OFFCURVE",
"509 429 OFFCURVE",
"497 444 CURVE SMOOTH",
"484 460 OFFCURVE",
"467 469 OFFCURVE",
"449 469 CURVE SMOOTH",
"431 469 OFFCURVE",
"415 466 OFFCURVE",
"400 461 CURVE SMOOTH",
"371 451 OFFCURVE",
"359 442 OFFCURVE",
"336 417 CURVE SMOOTH",
"314 392 OFFCURVE",
"286 358 OFFCURVE",
"258 322 CURVE SMOOTH",
"244 304 OFFCURVE",
"231 288 OFFCURVE",
"219 273 CURVE",
"208 280 LINE"
);
},
{
closed = 1;
nodes = (
"322 821 OFFCURVE",
"325 816 OFFCURVE",
"325 806 CURVE SMOOTH",
"325 791 OFFCURVE",
"319 769 OFFCURVE",
"312 744 CURVE SMOOTH",
"303 719 OFFCURVE",
"293 691 OFFCURVE",
"283 667 CURVE SMOOTH",
"273 642 OFFCURVE",
"264 619 OFFCURVE",
"260 605 CURVE SMOOTH",
"250 574 OFFCURVE",
"235 528 OFFCURVE",
"218 479 CURVE SMOOTH",
"202 430 OFFCURVE",
"184 377 OFFCURVE",
"169 334 CURVE",
"172 373 OFFCURVE",
"176 413 OFFCURVE",
"181 453 CURVE SMOOTH",
"185 486 OFFCURVE",
"190 526 OFFCURVE",
"198 565 CURVE SMOOTH",
"205 604 OFFCURVE",
"214 645 OFFCURVE",
"224 682 CURVE",
"232 703 OFFCURVE",
"240 723 OFFCURVE",
"247 740 CURVE SMOOTH",
"253 757 OFFCURVE",
"260 771 OFFCURVE",
"267 784 CURVE SMOOTH",
"280 808 OFFCURVE",
"294 821 OFFCURVE",
"315 821 CURVE SMOOTH"
);
}
);
width = 484;
}
);
note = k;
unicode = 006B;
},
{
color = 3;
glyphname = l;
lastChange = "2016-07-18 18:38:15 +0000";
layers = (
{
background = {
paths = (
{
closed = 1;
nodes = (
"806 0 OFFCURVE",
"832 7 OFFCURVE",
"859 17 CURVE SMOOTH",
"886 27 OFFCURVE",
"912 42 OFFCURVE",
"937 55 CURVE SMOOTH",
"966 70 OFFCURVE",
"994 90 OFFCURVE",
"1023 111 CURVE",
"983 213 LINE",
"961 195 OFFCURVE",
"939 180 OFFCURVE",
"919 166 CURVE SMOOTH",
"901 154 OFFCURVE",
"882 143 OFFCURVE",
"864 134 CURVE SMOOTH",
"846 125 OFFCURVE",
"829 119 OFFCURVE",
"817 119 CURVE SMOOTH",
"812 119 OFFCURVE",
"806 127 OFFCURVE",
"801 140 CURVE SMOOTH",
"796 153 OFFCURVE",
"791 169 OFFCURVE",
"791 186 CURVE SMOOTH",
"791 193 LINE",
"793 206 OFFCURVE",
"797 220 OFFCURVE",
"800 232 CURVE SMOOTH",
"803 244 OFFCURVE",
"807 255 OFFCURVE",
"810 262 CURVE SMOOTH",
"823 292 OFFCURVE",
"842 321 OFFCURVE",
"859 352 CURVE SMOOTH",
"876 383 OFFCURVE",
"892 414 OFFCURVE",
"909 446 CURVE SMOOTH",
"943 509 OFFCURVE",
"976 574 OFFCURVE",
"1000 638 CURVE SMOOTH",
"1024 702 OFFCURVE",
"1038 766 OFFCURVE",
"1038 827 CURVE SMOOTH",
"1038 854 OFFCURVE",
"1034 882 OFFCURVE",
"1024 903 CURVE SMOOTH",
"1014 924 OFFCURVE",
"996 938 OFFCURVE",
"968 938 CURVE SMOOTH",
"927 938 OFFCURVE",
"887 911 OFFCURVE",
"850 868 CURVE SMOOTH",
"813 825 OFFCURVE",
"780 765 OFFCURVE",
"752 698 CURVE SMOOTH",
"724 631 OFFCURVE",
"701 556 OFFCURVE",
"685 484 CURVE SMOOTH",
"669 412 OFFCURVE",
"660 342 OFFCURVE",
"660 284 CURVE SMOOTH",
"660 208 OFFCURVE",
"674 138 OFFCURVE",
"696 85 CURVE SMOOTH",
"718 33 OFFCURVE",
"749 0 OFFCURVE",
"784 0 CURVE SMOOTH"
);
},
{
closed = 1;
nodes = (
"785 453 OFFCURVE",
"795 521 OFFCURVE",
"810 583 CURVE SMOOTH",
"825 646 OFFCURVE",
"846 703 OFFCURVE",
"868 745 CURVE SMOOTH",
"890 786 OFFCURVE",
"912 813 OFFCURVE",
"931 813 CURVE SMOOTH",
"934 813 OFFCURVE",
"936 809 OFFCURVE",
"936 803 CURVE SMOOTH",
"936 796 OFFCURVE",
"937 788 OFFCURVE",
"937 778 CURVE",
"931 719 OFFCURVE",
"907 648 OFFCURVE",
"878 579 CURVE SMOOTH",
"849 510 OFFCURVE",
"814 443 OFFCURVE",
"785 391 CURVE"
);
},
{
closed = 1;
nodes = (
"169 154 LINE",
"307 339 OFFCURVE",
"434 601 OFFCURVE",
"434 768 CURVE SMOOTH",
"434 881 OFFCURVE",
"394 940 OFFCURVE",
"332 940 CURVE SMOOTH",
"150 940 OFFCURVE",
"60 530 OFFCURVE",
"60 292 CURVE SMOOTH",
"60 126 OFFCURVE",
"110 -5 OFFCURVE",
"218 -5 CURVE SMOOTH",
"293 -5 OFFCURVE",
"363 60 OFFCURVE",
"406 120 CURVE",
"383 228 LINE",
"343 172 OFFCURVE",
"284 105 OFFCURVE",
"239 105 CURVE SMOOTH",
"204 105 OFFCURVE",
"185 151 OFFCURVE",
"185 293 CURVE SMOOTH",
"185 552 OFFCURVE",
"261 842 OFFCURVE",
"309 842 CURVE SMOOTH",
"324 842 OFFCURVE",
"337 818 OFFCURVE",
"337 765 CURVE SMOOTH",
"337 616 OFFCURVE",
"254 423 OFFCURVE",
"152 268 CURVE"
);
}
);
};
layerId = "ECEFE970-1BBB-4E0A-A452-CEB55884B4A3";
paths = (
{
closed = 1;
nodes = (
"169 154 LINE",
"307 339 OFFCURVE",
"434 601 OFFCURVE",
"434 768 CURVE SMOOTH",
"434 881 OFFCURVE",
"394 940 OFFCURVE",
"332 940 CURVE SMOOTH",
"150 940 OFFCURVE",
"60 530 OFFCURVE",
"60 292 CURVE SMOOTH",
"60 126 OFFCURVE",
"110 -5 OFFCURVE",
"228 -5 CURVE SMOOTH",
"313 -5 OFFCURVE",
"383 60 OFFCURVE",
"426 120 CURVE",
"403 228 LINE",
"363 172 OFFCURVE",
"304 105 OFFCURVE",
"249 105 CURVE SMOOTH",
"204 105 OFFCURVE",
"185 151 OFFCURVE",
"185 293 CURVE SMOOTH",
"185 552 OFFCURVE",
"261 842 OFFCURVE",
"309 842 CURVE SMOOTH",
"324 842 OFFCURVE",
"337 818 OFFCURVE",
"337 765 CURVE SMOOTH",
"337 616 OFFCURVE",
"254 423 OFFCURVE",
"152 268 CURVE"
);
}
);
width = 326;
}
);
note = l;
unicode = 006C;
},
{
glyphname = lslash;
lastChange = "2016-07-18 14:46:18 +0000";
layers = (
{
layerId = "ECEFE970-1BBB-4E0A-A452-CEB55884B4A3";
paths = (
{
closed = 1;
nodes = (
"193 0 OFFCURVE",
"219 7 OFFCURVE",
"246 17 CURVE SMOOTH",
"273 27 OFFCURVE",
"299 42 OFFCURVE",
"324 55 CURVE SMOOTH",
"353 71 OFFCURVE",
"381 90 OFFCURVE",
"410 111 CURVE",
"370 213 LINE",
"348 195 OFFCURVE",
"326 180 OFFCURVE",
"306 166 CURVE SMOOTH",
"288 154 OFFCURVE",
"269 143 OFFCURVE",
"251 134 CURVE SMOOTH",
"233 125 OFFCURVE",
"216 119 OFFCURVE",
"204 119 CURVE SMOOTH",
"199 119 OFFCURVE",
"193 127 OFFCURVE",
"188 140 CURVE SMOOTH",
"182 153 OFFCURVE",
"178 169 OFFCURVE",
"178 186 CURVE SMOOTH",
"178 193 LINE",
"180 206 OFFCURVE",
"184 220 OFFCURVE",
"187 232 CURVE SMOOTH",
"190 244 OFFCURVE",
"194 255 OFFCURVE",
"197 262 CURVE SMOOTH",
"212 291 OFFCURVE",
"229 321 OFFCURVE",
"246 352 CURVE SMOOTH",
"280 414 OFFCURVE",
"314 477 OFFCURVE",
"345 542 CURVE SMOOTH",
"352 555 OFFCURVE",
"357 567 OFFCURVE",
"363 581 CURVE",
"383 585 OFFCURVE",
"402 589 OFFCURVE",
"419 592 CURVE SMOOTH",
"440 597 OFFCURVE",
"457 601 OFFCURVE",
"467 603 CURVE SMOOTH",
"487 607 OFFCURVE",
"500 616 OFFCURVE",
"508 625 CURVE SMOOTH",
"515 633 OFFCURVE",
"518 644 OFFCURVE",
"518 653 CURVE SMOOTH",
"518 671 OFFCURVE",
"513 684 OFFCURVE",
"505 691 CURVE SMOOTH",
"498 698 OFFCURVE",
"488 700 OFFCURVE",
"478 700 CURVE SMOOTH",
"472 700 OFFCURVE",
"467 700 OFFCURVE",
"462 698 CURVE",
"446 694 OFFCURVE",
"426 690 OFFCURVE",
"402 685 CURVE",
"407 701 OFFCURVE",
"411 717 OFFCURVE",
"415 733 CURVE SMOOTH",
"422 765 OFFCURVE",
"425 796 OFFCURVE",
"425 827 CURVE SMOOTH",
"425 854 OFFCURVE",
"421 882 OFFCURVE",
"411 903 CURVE SMOOTH",
"401 924 OFFCURVE",
"383 938 OFFCURVE",
"355 938 CURVE SMOOTH",
"334 938 OFFCURVE",
"314 931 OFFCURVE",
"294 919 CURVE SMOOTH",
"255 894 OFFCURVE",
"218 850 OFFCURVE",
"185 792 CURVE SMOOTH",
"152 733 OFFCURVE",
"128 674 OFFCURVE",
"110 622 CURVE",
"109 622 LINE",
"81 616 OFFCURVE",
"56 610 OFFCURVE",
"35 606 CURVE SMOOTH",
"14 602 OFFCURVE",
"-1 598 OFFCURVE",
"-9 597 CURVE",
"-25 593 OFFCURVE",
"-35 587 OFFCURVE",
"-41 581 CURVE SMOOTH",
"-46 574 OFFCURVE",
"-48 566 OFFCURVE",
"-48 559 CURVE SMOOTH",
"-48 552 OFFCURVE",
"-46 538 OFFCURVE",
"-39 526 CURVE SMOOTH",
"-32 514 OFFCURVE",
"-21 503 OFFCURVE",
"-2 503 CURVE SMOOTH",
"1 503 OFFCURVE",
"6 504 OFFCURVE",
"11 505 CURVE SMOOTH",
"29 509 OFFCURVE",
"52 514 OFFCURVE",
"79 520 CURVE",
"80 520 OFFCURVE",
"80 520 OFFCURVE",
"80 520 CURVE",
"77 508 OFFCURVE",
"74 496 OFFCURVE",
"72 484 CURVE SMOOTH",
"56 412 OFFCURVE",
"47 342 OFFCURVE",
"47 284 CURVE SMOOTH",
"47 208 OFFCURVE",
"61 138 OFFCURVE",
"83 85 CURVE SMOOTH",
"105 33 OFFCURVE",
"136 0 OFFCURVE",
"171 0 CURVE SMOOTH"
);
},
{
closed = 1;
nodes = (
"270 656 OFFCURVE",
"242 650 OFFCURVE",
"214 644 CURVE",
"217 653 OFFCURVE",
"220 663 OFFCURVE",
"224 672 CURVE SMOOTH",
"234 700 OFFCURVE",
"244 724 OFFCURVE",
"255 745 CURVE SMOOTH",
"277 786 OFFCURVE",
"299 813 OFFCURVE",
"318 813 CURVE SMOOTH",
"321 813 OFFCURVE",
"323 809 OFFCURVE",
"323 803 CURVE SMOOTH",
"324 796 OFFCURVE",
"324 788 OFFCURVE",
"324 778 CURVE",
"321 749 OFFCURVE",
"314 717 OFFCURVE",
"303 682 CURVE",
"301 676 OFFCURVE",
"299 669 OFFCURVE",
"297 662 CURVE"
);
},
{
closed = 1;
nodes = (
"172 453 OFFCURVE",
"181 506 OFFCURVE",
"188 543 CURVE",
"210 548 OFFCURVE",
"233 553 OFFCURVE",
"256 558 CURVE",
"232 503 OFFCURVE",
"201 443 OFFCURVE",
"172 391 CURVE"
);
}
);
width = 281;
}
);
note = lslash;
unicode = 0142;
},
{
color = 3;
glyphname = m;
lastChange = "2016-07-18 18:38:55 +0000";
layers = (
{
background = {
paths = (
{
closed = 1;
nodes = (
"1088 71 OFFCURVE",
"1090 48 OFFCURVE",
"1096 31 CURVE SMOOTH",
"1102 13 OFFCURVE",
"1114 0 OFFCURVE",
"1135 0 CURVE SMOOTH",
"1163 0 OFFCURVE",
"1183 7 OFFCURVE",
"1200 35 CURVE",
"1299 287 LINE",
"1306 287 LINE",
"1301 240 OFFCURVE",
"1298 193 OFFCURVE",
"1298 152 CURVE SMOOTH",
"1298 109 OFFCURVE",
"1302 71 OFFCURVE",
"1312 43 CURVE SMOOTH",
"1322 16 OFFCURVE",
"1337 0 OFFCURVE",
"1361 0 CURVE SMOOTH",
"1385 0 OFFCURVE",
"1405 3 OFFCURVE",
"1425 10 CURVE SMOOTH",
"1462 23 OFFCURVE",
"1493 43 OFFCURVE",
"1522 67 CURVE SMOOTH",
"1537 79 OFFCURVE",
"1550 91 OFFCURVE",
"1564 103 CURVE",
"1556 218 LINE",
"1540 199 OFFCURVE",
"1525 182 OFFCURVE",
"1509 167 CURVE SMOOTH",
"1495 154 OFFCURVE",
"1480 142 OFFCURVE",
"1464 132 CURVE SMOOTH",
"1448 122 OFFCURVE",
"1433 117 OFFCURVE",
"1420 117 CURVE SMOOTH",
"1413 117 OFFCURVE",
"1407 122 OFFCURVE",
"1403 133 CURVE SMOOTH",
"1399 145 OFFCURVE",
"1396 159 OFFCURVE",
"1396 176 CURVE SMOOTH",
"1396 221 OFFCURVE",
"1402 260 OFFCURVE",
"1407 299 CURVE SMOOTH",
"1412 338 OFFCURVE",
"1419 378 OFFCURVE",
"1419 423 CURVE SMOOTH",
"1419 452 OFFCURVE",
"1395 469 OFFCURVE",
"1364 469 CURVE SMOOTH",
"1350 469 OFFCURVE",
"1339 464 OFFCURVE",
"1329 456 CURVE SMOOTH",
"1309 440 OFFCURVE",
"1292 411 OFFCURVE",
"1270 376 CURVE SMOOTH",
"1248 341 OFFCURVE",
"1226 308 OFFCURVE",
"1213 285 CURVE SMOOTH",
"1207 274 OFFCURVE",
"1202 268 OFFCURVE",
"1201 267 CURVE",
"1196 272 LINE",
"1196 273 OFFCURVE",
"1196 274 OFFCURVE",
"1197 276 CURVE SMOOTH",
"1198 278 OFFCURVE",
"1198 283 OFFCURVE",
"1199 291 CURVE SMOOTH",
"1200 301 OFFCURVE",
"1204 312 OFFCURVE",
"1207 322 CURVE SMOOTH",
"1210 333 OFFCURVE",
"1212 343 OFFCURVE",
"1215 354 CURVE SMOOTH",
"1221 375 OFFCURVE",
"1223 397 OFFCURVE",
"1223 423 CURVE SMOOTH",
"1223 452 OFFCURVE",
"1200 469 OFFCURVE",
"1173 469 CURVE SMOOTH",
"1158 469 OFFCURVE",
"1146 464 OFFCURVE",
"1135 456 CURVE SMOOTH",
"1113 440 OFFCURVE",
"1096 411 OFFCURVE",
"1074 376 CURVE SMOOTH",
"1052 341 OFFCURVE",
"1034 308 OFFCURVE",
"1021 285 CURVE SMOOTH",
"1015 274 OFFCURVE",
"1011 268 OFFCURVE",
"1010 267 CURVE",
"1005 272 LINE",
"1009 293 OFFCURVE",
"1010 313 OFFCURVE",
"1014 332 CURVE SMOOTH",
"1017 348 OFFCURVE",
"1019 366 OFFCURVE",
"1021 382 CURVE SMOOTH",
"1023 398 OFFCURVE",
"1024 413 OFFCURVE",
"1024 424 CURVE SMOOTH",
"1024 435 OFFCURVE",
"1024 442 OFFCURVE",
"1023 448 CURVE",
"1022 460 OFFCURVE",
"1015 466 OFFCURVE",
"1002 468 CURVE",
"994 468 OFFCURVE",
"985 469 OFFCURVE",
"972 469 CURVE SMOOTH",
"956 469 OFFCURVE",
"947 467 OFFCURVE",
"939 460 CURVE SMOOTH",
"931 453 OFFCURVE",
"926 442 OFFCURVE",
"920 421 CURVE SMOOTH",
"914 401 OFFCURVE",
"905 368 OFFCURVE",
"898 329 CURVE SMOOTH",
"891 291 OFFCURVE",
"883 248 OFFCURVE",
"878 207 CURVE SMOOTH",
"873 167 OFFCURVE",
"869 129 OFFCURVE",
"869 102 CURVE SMOOTH",
"869 76 OFFCURVE",
"871 51 OFFCURVE",
"880 32 CURVE SMOOTH",
"889 12 OFFCURVE",
"904 0 OFFCURVE",
"931 0 CURVE SMOOTH",
"952 0 OFFCURVE",
"969 7 OFFCURVE",
"982 34 CURVE SMOOTH",
"1004 80 OFFCURVE",
"1023 117 OFFCURVE",
"1037 147 CURVE SMOOTH",
"1066 208 OFFCURVE",
"1082 244 OFFCURVE",
"1093 264 CURVE SMOOTH",
"1098 273 OFFCURVE",
"1103 281 OFFCURVE",
"1107 286 CURVE",
"1114 286 LINE",
"1109 256 OFFCURVE",
"1105 228 OFFCURVE",
"1101 202 CURVE SMOOTH",
"1098 180 OFFCURVE",
"1094 156 OFFCURVE",
"1092 136 CURVE SMOOTH",
"1090 116 OFFCURVE",
"1088 100 OFFCURVE",
"1088 91 CURVE SMOOTH"
);
},
{
closed = 1;
nodes = (
"-96 172 OFFCURVE",
"-155 105 OFFCURVE",
"-190 105 CURVE SMOOTH",
"-207 105 OFFCURVE",
"-218 118 OFFCURVE",
"-218 145 CURVE SMOOTH",
"-218 200 OFFCURVE",
"-177 332 OFFCURVE",
"-177 401 CURVE SMOOTH",
"-177 443 OFFCURVE",
"-198 466 OFFCURVE",
"-243 466 CURVE SMOOTH",
"-303 466 OFFCURVE",
"-396 410 OFFCURVE",
"-469 236 CURVE",
"-457 293 OFFCURVE",
"-442 359 OFFCURVE",
"-442 401 CURVE SMOOTH",
"-442 443 OFFCURVE",
"-463 466 OFFCURVE",
"-508 466 CURVE SMOOTH",
"-564 466 OFFCURVE",
"-651 410 OFFCURVE",
"-721 238 CURVE",
"-715 294 OFFCURVE",
"-703 338 OFFCURVE",
"-695 370 CURVE SMOOTH",
"-687 400 OFFCURVE",
"-683 422 OFFCURVE",
"-683 432 CURVE SMOOTH",
"-683 450 OFFCURVE",
"-691 466 OFFCURVE",
"-732 466 CURVE SMOOTH",
"-778 466 OFFCURVE",
"-796 448 OFFCURVE",
"-808 410 CURVE SMOOTH",
"-834 328 OFFCURVE",
"-845 243 OFFCURVE",
"-845 163 CURVE SMOOTH",
"-845 49 OFFCURVE",
"-828 -5 OFFCURVE",
"-774 -5 CURVE SMOOTH",
"-731 -5 OFFCURVE",
"-715 12 OFFCURVE",
"-700 75 CURVE SMOOTH",
"-669 204 OFFCURVE",
"-610 306 OFFCURVE",
"-591 306 CURVE SMOOTH",
"-585 306 OFFCURVE",
"-581 301 OFFCURVE",
"-581 290 CURVE SMOOTH",
"-581 277 OFFCURVE",
"-589 208 OFFCURVE",
"-589 163 CURVE SMOOTH",
"-589 49 OFFCURVE",
"-572 -5 OFFCURVE",
"-520 -5 CURVE SMOOTH",
"-477 -5 OFFCURVE",
"-461 12 OFFCURVE",
"-446 75 CURVE SMOOTH",
"-415 204 OFFCURVE",
"-351 306 OFFCURVE",
"-328 306 CURVE SMOOTH",
"-322 306 OFFCURVE",
"-318 301 OFFCURVE",
"-318 290 CURVE SMOOTH",
"-318 247 OFFCURVE",
"-344 160 OFFCURVE",
"-344 110 CURVE SMOOTH",
"-344 37 OFFCURVE",
"-310 -5 OFFCURVE",
"-228 -5 CURVE SMOOTH",
"-145 -5 OFFCURVE",
"-76 60 OFFCURVE",
"-33 120 CURVE",
"-56 228 LINE"
);
},
{
closed = 1;
nodes = (
"333 466 OFFCURVE",
"240 410 OFFCURVE",
"169 236 CURVE",
"175 294 OFFCURVE",
"187 338 OFFCURVE",
"195 370 CURVE SMOOTH",
"203 400 OFFCURVE",
"207 422 OFFCURVE",
"207 432 CURVE SMOOTH",
"207 450 OFFCURVE",
"199 466 OFFCURVE",
"158 466 CURVE SMOOTH",
"112 466 OFFCURVE",
"94 448 OFFCURVE",
"82 410 CURVE SMOOTH",
"56 328 OFFCURVE",
"45 243 OFFCURVE",
"45 163 CURVE SMOOTH",
"45 49 OFFCURVE",
"62 -5 OFFCURVE",
"116 -5 CURVE SMOOTH",
"159 -5 OFFCURVE",
"175 12 OFFCURVE",
"190 75 CURVE SMOOTH",
"221 204 OFFCURVE",
"286 311 OFFCURVE",
"309 311 CURVE SMOOTH",
"315 311 OFFCURVE",
"319 306 OFFCURVE",
"319 295 CURVE SMOOTH",
"319 252 OFFCURVE",
"292 160 OFFCURVE",
"292 110 CURVE SMOOTH",
"292 37 OFFCURVE",
"326 -5 OFFCURVE",
"408 -5 CURVE SMOOTH",
"491 -5 OFFCURVE",
"560 60 OFFCURVE",
"603 120 CURVE",
"580 228 LINE",
"540 172 OFFCURVE",
"481 105 OFFCURVE",
"446 105 CURVE SMOOTH",
"429 105 OFFCURVE",
"418 118 OFFCURVE",
"418 145 CURVE SMOOTH",
"418 200 OFFCURVE",
"459 332 OFFCURVE",
"459 401 CURVE SMOOTH",
"459 443 OFFCURVE",
"438 466 OFFCURVE",
"393 466 CURVE SMOOTH"
);
}
);
};
layerId = "ECEFE970-1BBB-4E0A-A452-CEB55884B4A3";
paths = (
{
closed = 1;
nodes = (
"800 172 OFFCURVE",
"741 105 OFFCURVE",
"706 105 CURVE SMOOTH",
"689 105 OFFCURVE",
"678 118 OFFCURVE",
"678 145 CURVE SMOOTH",
"678 200 OFFCURVE",
"719 332 OFFCURVE",
"719 401 CURVE SMOOTH",
"719 443 OFFCURVE",
"698 466 OFFCURVE",
"653 466 CURVE SMOOTH",
"593 466 OFFCURVE",
"500 410 OFFCURVE",
"427 236 CURVE",
"439 293 OFFCURVE",
"457 359 OFFCURVE",
"457 401 CURVE SMOOTH",
"457 443 OFFCURVE",
"436 466 OFFCURVE",
"391 466 CURVE SMOOTH",
"320 466 OFFCURVE",
"241 390 OFFCURVE",
"179 238 CURVE",
"185 294 OFFCURVE",
"197 338 OFFCURVE",
"205 370 CURVE SMOOTH",
"213 400 OFFCURVE",
"217 422 OFFCURVE",
"217 432 CURVE SMOOTH",
"217 450 OFFCURVE",
"209 466 OFFCURVE",
"168 466 CURVE SMOOTH",
"122 466 OFFCURVE",
"104 448 OFFCURVE",
"92 410 CURVE SMOOTH",
"66 328 OFFCURVE",
"55 243 OFFCURVE",
"55 163 CURVE SMOOTH",
"55 49 OFFCURVE",
"72 -5 OFFCURVE",
"126 -5 CURVE SMOOTH",
"169 -5 OFFCURVE",
"186 12 OFFCURVE",
"200 75 CURVE SMOOTH",
"225 184 OFFCURVE",
"283 311 OFFCURVE",
"313 311 CURVE SMOOTH",
"319 311 OFFCURVE",
"324 304 OFFCURVE",
"324 291 CURVE SMOOTH",
"324 242 OFFCURVE",
"305 168 OFFCURVE",
"305 103 CURVE SMOOTH",
"305 49 OFFCURVE",
"324 -5 OFFCURVE",
"376 -5 CURVE SMOOTH",
"419 -5 OFFCURVE",
"435 12 OFFCURVE",
"450 75 CURVE SMOOTH",
"481 204 OFFCURVE",
"544 311 OFFCURVE",
"569 311 CURVE SMOOTH",
"575 311 OFFCURVE",
"579 306 OFFCURVE",
"579 295 CURVE SMOOTH",
"579 252 OFFCURVE",
"552 160 OFFCURVE",
"552 110 CURVE SMOOTH",
"552 37 OFFCURVE",
"586 -5 OFFCURVE",
"668 -5 CURVE SMOOTH",
"751 -5 OFFCURVE",
"820 60 OFFCURVE",
"863 120 CURVE",
"840 228 LINE"
);
}
);
width = 748;
}
);
note = m;
unicode = 006D;
},
{
color = 3;
glyphname = n;
lastChange = "2016-07-18 18:38:22 +0000";
layers = (
{
background = {
paths = (
{
closed = 1;
nodes = (
"767 76 OFFCURVE",
"769 51 OFFCURVE",
"778 32 CURVE SMOOTH",
"787 12 OFFCURVE",
"802 0 OFFCURVE",
"829 0 CURVE SMOOTH",
"850 0 OFFCURVE",
"866 8 OFFCURVE",
"879 35 CURVE SMOOTH",
"1007 289 LINE",
"1015 289 LINE",
"1007 236 OFFCURVE",
"1001 191 OFFCURVE",
"1001 152 CURVE SMOOTH",
"1001 103 OFFCURVE",
"1007 65 OFFCURVE",
"1019 39 CURVE SMOOTH",
"1031 13 OFFCURVE",
"1046 0 OFFCURVE",
"1064 0 CURVE SMOOTH",
"1100 0 OFFCURVE",
"1133 11 OFFCURVE",
"1162 27 CURVE SMOOTH",
"1192 43 OFFCURVE",
"1220 64 OFFCURVE",
"1246 84 CURVE SMOOTH",
"1271 103 LINE",
"1263 212 LINE",
"1244 193 OFFCURVE",
"1225 176 OFFCURVE",
"1208 161 CURVE SMOOTH",
"1193 147 OFFCURVE",
"1178 135 OFFCURVE",
"1163 125 CURVE SMOOTH",
"1149 116 OFFCURVE",
"1136 109 OFFCURVE",
"1126 109 CURVE SMOOTH",
"1104 109 OFFCURVE",
"1095 138 OFFCURVE",
"1095 179 CURVE SMOOTH",
"1095 191 OFFCURVE",
"1096 204 OFFCURVE",
"1097 218 CURVE SMOOTH",
"1099 247 OFFCURVE",
"1104 277 OFFCURVE",
"1110 305 CURVE",
"1113 319 OFFCURVE",
"1115 332 OFFCURVE",
"1118 343 CURVE SMOOTH",
"1124 366 OFFCURVE",
"1125 384 OFFCURVE",
"1125 392 CURVE SMOOTH",
"1125 440 OFFCURVE",
"1105 469 OFFCURVE",
"1072 469 CURVE SMOOTH",
"1039 469 OFFCURVE",
"1014 458 OFFCURVE",
"992 423 CURVE SMOOTH",
"987 415 OFFCURVE",
"978 398 OFFCURVE",
"967 377 CURVE SMOOTH",
"961 366 OFFCURVE",
"955 355 OFFCURVE",
"949 344 CURVE SMOOTH",
"936 320 OFFCURVE",
"924 299 OFFCURVE",
"916 283 CURVE SMOOTH",
"912 275 OFFCURVE",
"909 269 OFFCURVE",
"907 266 CURVE",
"897 266 LINE",
"897 268 OFFCURVE",
"898 272 OFFCURVE",
"899 279 CURVE SMOOTH",
"900 286 OFFCURVE",
"901 293 OFFCURVE",
"903 303 CURVE SMOOTH",
"906 320 OFFCURVE",
"909 343 OFFCURVE",
"912 363 CURVE SMOOTH",
"915 382 OFFCURVE",
"917 400 OFFCURVE",
"917 410 CURVE SMOOTH",
"917 445 OFFCURVE",
"905 469 OFFCURVE",
"870 469 CURVE SMOOTH",
"835 469 OFFCURVE",
"815 446 OFFCURVE",
"808 416 CURVE SMOOTH",
"799 377 OFFCURVE",
"788 321 OFFCURVE",
"780 263 CURVE SMOOTH",
"772 204 OFFCURVE",
"767 145 OFFCURVE",
"767 102 CURVE SMOOTH"
);
},
{
closed = 1;
nodes = (
"343 466 OFFCURVE",
"250 410 OFFCURVE",
"179 236 CURVE",
"185 294 OFFCURVE",
"197 338 OFFCURVE",
"205 370 CURVE SMOOTH",
"213 400 OFFCURVE",
"217 422 OFFCURVE",
"217 432 CURVE SMOOTH",
"217 450 OFFCURVE",
"209 466 OFFCURVE",
"168 466 CURVE SMOOTH",
"122 466 OFFCURVE",
"104 448 OFFCURVE",
"92 410 CURVE SMOOTH",
"65 328 OFFCURVE",
"55 243 OFFCURVE",
"55 163 CURVE SMOOTH",
"55 49 OFFCURVE",
"72 -5 OFFCURVE",
"126 -5 CURVE SMOOTH",
"169 -5 OFFCURVE",
"185 12 OFFCURVE",
"200 75 CURVE SMOOTH",
"232 204 OFFCURVE",
"295 306 OFFCURVE",
"318 306 CURVE SMOOTH",
"324 306 OFFCURVE",
"328 301 OFFCURVE",
"328 290 CURVE SMOOTH",
"328 247 OFFCURVE",
"302 160 OFFCURVE",
"302 110 CURVE SMOOTH",
"302 37 OFFCURVE",
"336 -5 OFFCURVE",
"418 -5 CURVE SMOOTH",
"501 -5 OFFCURVE",
"570 60 OFFCURVE",
"613 120 CURVE",
"590 228 LINE",
"550 172 OFFCURVE",
"491 105 OFFCURVE",
"456 105 CURVE SMOOTH",
"439 105 OFFCURVE",
"428 118 OFFCURVE",
"428 145 CURVE SMOOTH",
"428 200 OFFCURVE",
"469 332 OFFCURVE",
"469 401 CURVE SMOOTH",
"469 443 OFFCURVE",
"448 466 OFFCURVE",
"403 466 CURVE SMOOTH"
);
}
);
};
layerId = "ECEFE970-1BBB-4E0A-A452-CEB55884B4A3";
paths = (
{
closed = 1;
nodes = (
"343 466 OFFCURVE",
"250 410 OFFCURVE",
"179 236 CURVE",
"185 294 OFFCURVE",
"197 338 OFFCURVE",
"205 370 CURVE SMOOTH",
"213 400 OFFCURVE",
"217 422 OFFCURVE",
"217 432 CURVE SMOOTH",
"217 450 OFFCURVE",
"209 466 OFFCURVE",
"168 466 CURVE SMOOTH",
"122 466 OFFCURVE",
"104 448 OFFCURVE",
"92 410 CURVE SMOOTH",
"65 328 OFFCURVE",
"55 243 OFFCURVE",
"55 163 CURVE SMOOTH",
"55 49 OFFCURVE",
"72 -5 OFFCURVE",
"126 -5 CURVE SMOOTH",
"169 -5 OFFCURVE",
"185 12 OFFCURVE",
"200 75 CURVE SMOOTH",
"232 204 OFFCURVE",
"296 311 OFFCURVE",
"319 311 CURVE SMOOTH",
"325 311 OFFCURVE",
"329 306 OFFCURVE",
"329 295 CURVE SMOOTH",
"329 252 OFFCURVE",
"302 160 OFFCURVE",
"302 110 CURVE SMOOTH",
"302 37 OFFCURVE",
"336 -5 OFFCURVE",
"418 -5 CURVE SMOOTH",
"501 -5 OFFCURVE",
"570 60 OFFCURVE",
"613 120 CURVE",
"590 228 LINE",
"550 172 OFFCURVE",
"491 105 OFFCURVE",
"456 105 CURVE SMOOTH",
"439 105 OFFCURVE",
"428 118 OFFCURVE",
"428 145 CURVE SMOOTH",
"428 200 OFFCURVE",
"469 332 OFFCURVE",
"469 401 CURVE SMOOTH",
"469 443 OFFCURVE",
"448 466 OFFCURVE",
"403 466 CURVE SMOOTH"
);
}
);
width = 498;
}
);
note = n;
unicode = 006E;
},
{
glyphname = o;
lastChange = "2016-07-18 14:46:18 +0000";
layers = (
{
layerId = "ECEFE970-1BBB-4E0A-A452-CEB55884B4A3";
paths = (
{
closed = 1;
nodes = (
"390 355 OFFCURVE",
"424 331 OFFCURVE",
"458 305 CURVE SMOOTH",
"491 279 OFFCURVE",
"523 250 OFFCURVE",
"541 227 CURVE",
"550 296 LINE",
"515 340 OFFCURVE",
"475 384 OFFCURVE",
"428 416 CURVE SMOOTH",
"380 448 OFFCURVE",
"327 469 OFFCURVE",
"265 469 CURVE SMOOTH",
"192 469 OFFCURVE",
"134 441 OFFCURVE",
"94 395 CURVE SMOOTH",
"54 349 OFFCURVE",
"31 285 OFFCURVE",
"31 213 CURVE SMOOTH",
"31 161 OFFCURVE",
"43 108 OFFCURVE",
"69 68 CURVE SMOOTH",
"95 27 OFFCURVE",
"135 0 OFFCURVE",
"192 0 CURVE SMOOTH",
"232 0 OFFCURVE",
"268 15 OFFCURVE",
"297 38 CURVE SMOOTH",
"327 62 OFFCURVE",
"350 94 OFFCURVE",
"366 131 CURVE SMOOTH",
"382 167 OFFCURVE",
"391 207 OFFCURVE",
"391 246 CURVE SMOOTH",
"391 284 OFFCURVE",
"381 328 OFFCURVE",
"362 366 CURVE",
"366 371 LINE"
);
},
{
closed = 1;
nodes = (
"186 94 OFFCURVE",
"168 105 OFFCURVE",
"157 124 CURVE SMOOTH",
"146 141 OFFCURVE",
"141 166 OFFCURVE",
"141 193 CURVE SMOOTH",
"141 233 OFFCURVE",
"152 279 OFFCURVE",
"170 314 CURVE SMOOTH",
"188 350 OFFCURVE",
"213 375 OFFCURVE",
"240 375 CURVE SMOOTH",
"260 375 OFFCURVE",
"274 363 OFFCURVE",
"283 344 CURVE SMOOTH",
"292 325 OFFCURVE",
"297 299 OFFCURVE",
"297 269 CURVE SMOOTH",
"297 231 OFFCURVE",
"287 188 OFFCURVE",
"271 153 CURVE SMOOTH",
"255 119 OFFCURVE",
"233 94 OFFCURVE",
"211 94 CURVE SMOOTH"
);
}
);
width = 426;
}
);
note = o;
unicode = 006F;
},
{
glyphname = oslash;
lastChange = "2016-07-18 14:46:18 +0000";
layers = (
{
layerId = "ECEFE970-1BBB-4E0A-A452-CEB55884B4A3";
paths = (
{
closed = 1;
nodes = (
"390 355 OFFCURVE",
"424 331 OFFCURVE",
"458 305 CURVE SMOOTH",
"491 279 OFFCURVE",
"523 250 OFFCURVE",
"541 227 CURVE",
"550 296 LINE",
"521 333 OFFCURVE",
"487 371 OFFCURVE",
"449 400 CURVE SMOOTH",
"411 430 OFFCURVE",
"367 453 OFFCURVE",
"319 463 CURVE",
"332 509 LINE SMOOTH",
"333 513 OFFCURVE",
"334 517 OFFCURVE",
"335 522 CURVE SMOOTH",
"337 527 OFFCURVE",
"338 532 OFFCURVE",
"339 537 CURVE",
"342 546 OFFCURVE",
"344 555 OFFCURVE",
"344 559 CURVE SMOOTH",
"344 566 OFFCURVE",
"344 575 OFFCURVE",
"342 582 CURVE SMOOTH",
"340 589 OFFCURVE",
"336 594 OFFCURVE",
"329 594 CURVE SMOOTH",
"316 594 OFFCURVE",
"305 590 OFFCURVE",
"297 582 CURVE SMOOTH",
"280 566 OFFCURVE",
"270 540 OFFCURVE",
"262 511 CURVE SMOOTH",
"258 496 OFFCURVE",
"254 481 OFFCURVE",
"251 468 CURVE",
"183 465 OFFCURVE",
"127 436 OFFCURVE",
"90 390 CURVE SMOOTH",
"52 345 OFFCURVE",
"31 282 OFFCURVE",
"31 213 CURVE SMOOTH",
"31 173 OFFCURVE",
"38 133 OFFCURVE",
"53 98 CURVE SMOOTH",
"68 63 OFFCURVE",
"91 33 OFFCURVE",
"124 16 CURVE",
"113 -19 OFFCURVE",
"109 -40 OFFCURVE",
"109 -56 CURVE SMOOTH",
"109 -71 OFFCURVE",
"113 -79 OFFCURVE",
"118 -83 CURVE SMOOTH",
"123 -87 OFFCURVE",
"130 -88 OFFCURVE",
"136 -88 CURVE SMOOTH",
"143 -88 OFFCURVE",
"149 -87 OFFCURVE",
"156 -82 CURVE SMOOTH",
"163 -77 OFFCURVE",
"170 -68 OFFCURVE",
"176 -53 CURVE",
"192 0 LINE",
"232 0 OFFCURVE",
"268 15 OFFCURVE",
"297 38 CURVE SMOOTH",
"327 62 OFFCURVE",
"350 94 OFFCURVE",
"366 131 CURVE SMOOTH",
"382 167 OFFCURVE",
"391 207 OFFCURVE",
"391 246 CURVE SMOOTH",
"391 284 OFFCURVE",
"381 328 OFFCURVE",
"362 366 CURVE",
"366 371 LINE"
);
},
{
closed = 1;
nodes = (
"134 135 OFFCURVE",
"126 162 OFFCURVE",
"126 193 CURVE SMOOTH",
"126 230 OFFCURVE",
"137 271 OFFCURVE",
"155 305 CURVE SMOOTH",
"172 338 OFFCURVE",
"197 365 OFFCURVE",
"224 373 CURVE",
"152 116 LINE"
);
},
{
closed = 1;
nodes = (
"305 332 OFFCURVE",
"312 303 OFFCURVE",
"312 269 CURVE SMOOTH",
"312 233 OFFCURVE",
"301 192 OFFCURVE",
"284 159 CURVE SMOOTH",
"268 125 OFFCURVE",
"244 99 OFFCURVE",
"220 95 CURVE",
"247 190 OFFCURVE",
"270 277 OFFCURVE",
"290 351 CURVE"
);
}
);
width = 426;
}
);
note = oslash;
unicode = 00F8;
},
{
glyphname = oe;
lastChange = "2016-07-18 14:46:18 +0000";
layers = (
{
layerId = "ECEFE970-1BBB-4E0A-A452-CEB55884B4A3";
paths = (
{
closed = 1;
nodes = (
"518 0 OFFCURVE",
"556 10 OFFCURVE",
"592 24 CURVE SMOOTH",
"627 39 OFFCURVE",
"660 59 OFFCURVE",
"688 78 CURVE SMOOTH",
"720 101 OFFCURVE",
"750 127 OFFCURVE",
"779 157 CURVE",
"716 222 LINE",
"690 197 OFFCURVE",
"652 168 OFFCURVE",
"611 145 CURVE SMOOTH",
"570 121 OFFCURVE",
"525 104 OFFCURVE",
"486 104 CURVE SMOOTH",
"474 104 OFFCURVE",
"463 106 OFFCURVE",
"454 112 CURVE SMOOTH",
"444 119 OFFCURVE",
"435 130 OFFCURVE",
"425 148 CURVE",
"481 164 OFFCURVE",
"531 193 OFFCURVE",
"566 229 CURVE SMOOTH",
"602 264 OFFCURVE",
"623 306 OFFCURVE",
"623 346 CURVE SMOOTH",
"623 383 OFFCURVE",
"609 414 OFFCURVE",
"586 435 CURVE SMOOTH",
"563 456 OFFCURVE",
"531 468 OFFCURVE",
"494 468 CURVE SMOOTH",
"435 468 OFFCURVE",
"390 437 OFFCURVE",
"359 375 CURVE",
"325 441 OFFCURVE",
"280 468 OFFCURVE",
"235 468 CURVE SMOOTH",
"202 468 OFFCURVE",
"168 453 OFFCURVE",
"138 429 CURVE SMOOTH",
"107 405 OFFCURVE",
"81 372 OFFCURVE",
"62 334 CURVE SMOOTH",
"42 296 OFFCURVE",
"31 254 OFFCURVE",
"31 213 CURVE SMOOTH",
"31 161 OFFCURVE",
"43 108 OFFCURVE",
"69 68 CURVE SMOOTH",
"95 27 OFFCURVE",
"135 0 OFFCURVE",
"192 0 CURVE SMOOTH",
"221 0 OFFCURVE",
"251 12 OFFCURVE",
"278 31 CURVE SMOOTH",
"305 51 OFFCURVE",
"328 78 OFFCURVE",
"344 109 CURVE",
"352 78 OFFCURVE",
"368 51 OFFCURVE",
"392 31 CURVE SMOOTH",
"415 12 OFFCURVE",
"445 0 OFFCURVE",
"479 0 CURVE SMOOTH"
);
},
{
closed = 1;
nodes = (
"186 94 OFFCURVE",
"168 105 OFFCURVE",
"157 124 CURVE SMOOTH",
"146 141 OFFCURVE",
"141 166 OFFCURVE",
"141 193 CURVE SMOOTH",
"141 233 OFFCURVE",
"152 279 OFFCURVE",
"170 314 CURVE SMOOTH",
"188 350 OFFCURVE",
"213 375 OFFCURVE",
"240 375 CURVE SMOOTH",
"260 375 OFFCURVE",
"274 363 OFFCURVE",
"283 344 CURVE SMOOTH",
"292 325 OFFCURVE",
"297 299 OFFCURVE",
"297 269 CURVE SMOOTH",
"297 231 OFFCURVE",
"287 188 OFFCURVE",
"271 153 CURVE SMOOTH",
"255 119 OFFCURVE",
"233 94 OFFCURVE",
"211 94 CURVE SMOOTH"
);
},
{
closed = 1;
nodes = (
"414 244 OFFCURVE",
"415 265 OFFCURVE",
"419 287 CURVE SMOOTH",
"423 308 OFFCURVE",
"431 331 OFFCURVE",
"444 347 CURVE SMOOTH",
"458 364 OFFCURVE",
"477 375 OFFCURVE",
"505 375 CURVE SMOOTH",
"521 375 OFFCURVE",
"533 354 OFFCURVE",
"533 325 CURVE SMOOTH",
"533 304 OFFCURVE",
"514 281 OFFCURVE",
"491 262 CURVE SMOOTH",
"467 243 OFFCURVE",
"437 229 OFFCURVE",
"414 229 CURVE"
);
}
);
width = 635;
}
);
note = oe;
unicode = 0153;
},
{
glyphname = p;
lastChange = "2016-07-18 14:46:18 +0000";
layers = (
{
layerId = "ECEFE970-1BBB-4E0A-A452-CEB55884B4A3";
paths = (
{
closed = 1;
nodes = (
"317 123 OFFCURVE",
"360 157 OFFCURVE",
"388 194 CURVE SMOOTH",
"415 232 OFFCURVE",
"428 273 OFFCURVE",
"428 318 CURVE SMOOTH",
"428 373 OFFCURVE",
"412 411 OFFCURVE",
"386 435 CURVE SMOOTH",
"360 458 OFFCURVE",
"324 469 OFFCURVE",
"285 469 CURVE SMOOTH",
"258 469 OFFCURVE",
"235 464 OFFCURVE",
"216 454 CURVE SMOOTH",
"179 435 OFFCURVE",
"152 401 OFFCURVE",
"135 356 CURVE SMOOTH",
"117 311 OFFCURVE",
"106 260 OFFCURVE",
"99 207 CURVE SMOOTH",
"95 180 OFFCURVE",
"91 154 OFFCURVE",
"88 129 CURVE",
"60 84 OFFCURVE",
"34 42 OFFCURVE",
"12 0 CURVE SMOOTH",
"-7 -36 OFFCURVE",
"-25 -75 OFFCURVE",
"-40 -111 CURVE SMOOTH",
"-54 -148 OFFCURVE",
"-63 -183 OFFCURVE",
"-63 -209 CURVE SMOOTH",
"-63 -256 OFFCURVE",
"-57 -298 OFFCURVE",
"-42 -329 CURVE SMOOTH",
"-28 -360 OFFCURVE",
"-4 -380 OFFCURVE",
"33 -380 CURVE SMOOTH",
"80 -380 OFFCURVE",
"124 -341 OFFCURVE",
"157 -273 CURVE SMOOTH",
"190 -205 OFFCURVE",
"212 -106 OFFCURVE",
"212 12 CURVE SMOOTH",
"212 21 LINE",
"239 17 OFFCURVE",
"260 14 OFFCURVE",
"276 11 CURVE",
"292 8 OFFCURVE",
"304 6 OFFCURVE",
"313 4 CURVE SMOOTH",
"321 3 OFFCURVE",
"327 1 OFFCURVE",
"331 1 CURVE SMOOTH",
"334 0 OFFCURVE",
"336 0 OFFCURVE",
"339 0 CURVE SMOOTH",
"376 0 OFFCURVE",
"417 12 OFFCURVE",
"452 30 CURVE SMOOTH",
"487 47 OFFCURVE",
"517 72 OFFCURVE",
"538 98 CURVE",
"533 209 LINE",
"504 176 OFFCURVE",
"469 145 OFFCURVE",
"425 123 CURVE SMOOTH",
"381 101 OFFCURVE",
"328 87 OFFCURVE",
"262 87 CURVE",
"259 97 LINE"
);
},
{
closed = 1;
nodes = (
"200 175 OFFCURVE",
"202 214 OFFCURVE",
"208 250 CURVE SMOOTH",
"213 286 OFFCURVE",
"222 318 OFFCURVE",
"235 341 CURVE SMOOTH",
"249 364 OFFCURVE",
"267 378 OFFCURVE",
"291 378 CURVE SMOOTH",
"312 378 OFFCURVE",
"324 364 OFFCURVE",
"329 347 CURVE SMOOTH",
"333 330 OFFCURVE",
"332 309 OFFCURVE",
"328 295 CURVE SMOOTH",
"320 264 OFFCURVE",
"308 235 OFFCURVE",
"288 208 CURVE SMOOTH",
"267 180 OFFCURVE",
"239 156 OFFCURVE",
"200 136 CURVE"
);
},
{
closed = 1;
nodes = (
"30 -207 OFFCURVE",
"34 -187 OFFCURVE",
"41 -160 CURVE SMOOTH",
"46 -134 OFFCURVE",
"55 -103 OFFCURVE",
"65 -72 CURVE SMOOTH",
"76 -41 OFFCURVE",
"88 -12 OFFCURVE",
"100 10 CURVE",
"100 3 OFFCURVE",
"100 -4 OFFCURVE",
"99 -13 CURVE SMOOTH",
"99 -21 OFFCURVE",
"99 -31 OFFCURVE",
"98 -43 CURVE SMOOTH",
"98 -56 OFFCURVE",
"97 -71 OFFCURVE",
"96 -88 CURVE SMOOTH",
"95 -99 OFFCURVE",
"95 -110 OFFCURVE",
"95 -123 CURVE",
"94 -135 OFFCURVE",
"94 -148 OFFCURVE",
"93 -162 CURVE SMOOTH",
"92 -188 OFFCURVE",
"90 -215 OFFCURVE",
"86 -235 CURVE SMOOTH",
"82 -255 OFFCURVE",
"75 -268 OFFCURVE",
"63 -268 CURVE SMOOTH",
"51 -268 OFFCURVE",
"43 -257 OFFCURVE",
"38 -246 CURVE SMOOTH",
"32 -234 OFFCURVE",
"30 -221 OFFCURVE",
"30 -215 CURVE SMOOTH"
);
}
);
width = 417;
}
);
note = p;
unicode = 0070;
},
{
glyphname = thorn;
lastChange = "2016-07-18 14:46:18 +0000";
layers = (
{
layerId = "ECEFE970-1BBB-4E0A-A452-CEB55884B4A3";
paths = (
{
closed = 1;
nodes = (
"238 673 OFFCURVE",
"240 674 OFFCURVE",
"245 675 CURVE SMOOTH",
"250 677 OFFCURVE",
"255 678 OFFCURVE",
"260 679 CURVE SMOOTH",
"266 681 OFFCURVE",
"271 682 OFFCURVE",
"275 684 CURVE SMOOTH",
"279 685 OFFCURVE",
"281 686 OFFCURVE",
"281 688 CURVE SMOOTH",
"281 698 OFFCURVE",
"273 710 OFFCURVE",
"261 721 CURVE SMOOTH",
"250 732 OFFCURVE",
"234 742 OFFCURVE",
"219 750 CURVE SMOOTH",
"204 757 OFFCURVE",
"189 762 OFFCURVE",
"179 762 CURVE SMOOTH",
"164 762 OFFCURVE",
"147 751 OFFCURVE",
"141 719 CURVE SMOOTH",
"135 693 OFFCURVE",
"130 667 OFFCURVE",
"125 641 CURVE SMOOTH",
"115 588 OFFCURVE",
"105 540 OFFCURVE",
"96 499 CURVE SMOOTH",
"87 458 OFFCURVE",
"81 426 OFFCURVE",
"78 409 CURVE SMOOTH",
"76 399 OFFCURVE",
"75 395 OFFCURVE",
"75 395 CURVE",
"66 349 OFFCURVE",
"60 308 OFFCURVE",
"54 273 CURVE SMOOTH",
"47 239 OFFCURVE",
"42 208 OFFCURVE",
"37 181 CURVE SMOOTH",
"32 154 OFFCURVE",
"28 130 OFFCURVE",
"24 109 CURVE SMOOTH",
"21 88 OFFCURVE",
"18 68 OFFCURVE",
"14 49 CURVE SMOOTH",
"8 11 OFFCURVE",
"2 -26 OFFCURVE",
"-4 -71 CURVE SMOOTH",
"-11 -117 OFFCURVE",
"-20 -172 OFFCURVE",
"-30 -248 CURVE SMOOTH",
"-32 -258 OFFCURVE",
"-32 -267 OFFCURVE",
"-32 -275 CURVE SMOOTH",
"-32 -292 OFFCURVE",
"-28 -308 OFFCURVE",
"-21 -319 CURVE SMOOTH",
"-13 -331 OFFCURVE",
"-2 -338 OFFCURVE",
"10 -338 CURVE SMOOTH",
"12 -338 OFFCURVE",
"15 -338 OFFCURVE",
"18 -338 CURVE",
"20 -338 OFFCURVE",
"23 -338 OFFCURVE",
"26 -338 CURVE SMOOTH",
"34 -338 OFFCURVE",
"43 -337 OFFCURVE",
"52 -332 CURVE SMOOTH",
"60 -327 OFFCURVE",
"66 -317 OFFCURVE",
"70 -300 CURVE",
"131 24 LINE",
"169 11 OFFCURVE",
"212 0 OFFCURVE",
"255 0 CURVE SMOOTH",
"267 0 LINE",
"279 5 OFFCURVE",
"291 10 OFFCURVE",
"302 15 CURVE SMOOTH",
"321 24 OFFCURVE",
"342 36 OFFCURVE",
"353 47 CURVE",
"398 57 OFFCURVE",
"439 70 OFFCURVE",
"477 88 CURVE SMOOTH",
"514 105 OFFCURVE",
"549 129 OFFCURVE",
"584 162 CURVE",
"547 242 LINE",
"534 229 OFFCURVE",
"521 218 OFFCURVE",
"509 208 CURVE SMOOTH",
"484 189 OFFCURVE",
"459 174 OFFCURVE",
"436 161 CURVE SMOOTH",
"423 154 OFFCURVE",
"412 147 OFFCURVE",
"400 141 CURVE",
"419 170 OFFCURVE",
"431 198 OFFCURVE",
"438 227 CURVE SMOOTH",
"445 255 OFFCURVE",
"447 284 OFFCURVE",
"447 317 CURVE SMOOTH",
"447 356 OFFCURVE",
"436 395 OFFCURVE",
"415 422 CURVE SMOOTH",
"394 450 OFFCURVE",
"364 469 OFFCURVE",
"325 469 CURVE SMOOTH",
"284 469 OFFCURVE",
"243 438 OFFCURVE",
"191 393 CURVE",
"237 672 LINE"
);
},
{
closed = 1;
nodes = (
"299 357 OFFCURVE",
"315 350 OFFCURVE",
"325 339 CURVE SMOOTH",
"334 328 OFFCURVE",
"337 313 OFFCURVE",
"337 296 CURVE SMOOTH",
"337 271 OFFCURVE",
"334 241 OFFCURVE",
"328 211 CURVE SMOOTH",
"321 181 OFFCURVE",
"311 151 OFFCURVE",
"296 130 CURVE SMOOTH",
"282 108 OFFCURVE",
"264 94 OFFCURVE",
"242 94 CURVE SMOOTH",
"232 94 OFFCURVE",
"222 95 OFFCURVE",
"212 96 CURVE SMOOTH",
"191 100 OFFCURVE",
"171 104 OFFCURVE",
"150 110 CURVE",
"151 121 OFFCURVE",
"152 133 OFFCURVE",
"153 146 CURVE SMOOTH",
"156 169 OFFCURVE",
"160 199 OFFCURVE",
"166 234 CURVE SMOOTH",
"173 278 OFFCURVE",
"188 309 OFFCURVE",
"208 329 CURVE SMOOTH",
"228 348 OFFCURVE",
"251 357 OFFCURVE",
"274 357 CURVE SMOOTH"
);
}
);
width = 500;
}
);
note = thorn;
unicode = 00FE;
},
{
glyphname = q;
lastChange = "2016-07-18 14:46:18 +0000";
layers = (
{
layerId = "ECEFE970-1BBB-4E0A-A452-CEB55884B4A3";
paths = (
{
closed = 1;
nodes = (
"180 50 OFFCURVE",
"171 21 OFFCURVE",
"162 -10 CURVE SMOOTH",
"153 -41 OFFCURVE",
"145 -70 OFFCURVE",
"137 -99 CURVE SMOOTH",
"121 -157 OFFCURVE",
"109 -211 OFFCURVE",
"109 -250 CURVE SMOOTH",
"109 -285 OFFCURVE",
"122 -312 OFFCURVE",
"140 -331 CURVE SMOOTH",
"157 -350 OFFCURVE",
"181 -359 OFFCURVE",
"203 -359 CURVE SMOOTH",
"254 -359 OFFCURVE",
"293 -340 OFFCURVE",
"320 -305 CURVE SMOOTH",
"346 -270 OFFCURVE",
"359 -219 OFFCURVE",
"359 -156 CURVE SMOOTH",
"359 -107 OFFCURVE",
"352 -48 OFFCURVE",
"342 3 CURVE",
"383 9 OFFCURVE",
"417 22 OFFCURVE",
"445 39 CURVE SMOOTH",
"473 56 OFFCURVE",
"496 75 OFFCURVE",
"516 94 CURVE",
"516 203 LINE",
"505 194 OFFCURVE",
"492 184 OFFCURVE",
"477 171 CURVE SMOOTH",
"462 159 OFFCURVE",
"447 147 OFFCURVE",
"431 136 CURVE SMOOTH",
"399 112 OFFCURVE",
"367 94 OFFCURVE",
"344 94 CURVE SMOOTH",
"338 94 OFFCURVE",
"331 94 OFFCURVE",
"323 98 CURVE",
"321 106 OFFCURVE",
"320 113 OFFCURVE",
"318 118 CURVE SMOOTH",
"317 123 OFFCURVE",
"316 125 OFFCURVE",
"317 125 CURVE",
"317 125 OFFCURVE",
"318 129 OFFCURVE",
"320 136 CURVE SMOOTH",
"322 143 OFFCURVE",
"324 152 OFFCURVE",
"327 163 CURVE SMOOTH",
"330 173 OFFCURVE",
"333 185 OFFCURVE",
"337 198 CURVE SMOOTH",
"341 211 OFFCURVE",
"345 225 OFFCURVE",
"349 238 CURVE SMOOTH",
"356 264 OFFCURVE",
"364 289 OFFCURVE",
"369 305 CURVE",
"373 316 OFFCURVE",
"374 329 OFFCURVE",
"374 341 CURVE SMOOTH",
"374 375 OFFCURVE",
"364 407 OFFCURVE",
"342 430 CURVE SMOOTH",
"319 454 OFFCURVE",
"284 469 OFFCURVE",
"234 469 CURVE SMOOTH",
"180 469 OFFCURVE",
"125 445 OFFCURVE",
"84 406 CURVE SMOOTH",
"43 366 OFFCURVE",
"16 311 OFFCURVE",
"16 250 CURVE SMOOTH",
"16 205 OFFCURVE",
"31 162 OFFCURVE",
"57 129 CURVE SMOOTH",
"83 97 OFFCURVE",
"120 76 OFFCURVE",
"165 76 CURVE SMOOTH",
"172 76 OFFCURVE",
"180 77 OFFCURVE",
"188 78 CURVE"
);
},
{
closed = 1;
nodes = (
"170 143 OFFCURVE",
"151 160 OFFCURVE",
"140 182 CURVE SMOOTH",
"128 203 OFFCURVE",
"125 229 OFFCURVE",
"125 250 CURVE SMOOTH",
"125 275 OFFCURVE",
"135 307 OFFCURVE",
"153 332 CURVE SMOOTH",
"172 357 OFFCURVE",
"199 375 OFFCURVE",
"234 375 CURVE SMOOTH",
"238 375 OFFCURVE",
"242 374 OFFCURVE",
"246 373 CURVE",
"253 369 OFFCURVE",
"260 365 OFFCURVE",
"266 359 CURVE",
"255 321 OFFCURVE",
"245 286 OFFCURVE",
"236 255 CURVE SMOOTH",
"232 242 OFFCURVE",
"229 229 OFFCURVE",
"225 216 CURVE SMOOTH",
"222 203 OFFCURVE",
"218 191 OFFCURVE",
"215 181 CURVE SMOOTH",
"212 170 OFFCURVE",
"209 162 OFFCURVE",
"208 154 CURVE",
"205 147 OFFCURVE",
"204 142 OFFCURVE",
"203 141 CURVE"
);
},
{
closed = 1;
nodes = (
"277 -26 OFFCURVE",
"281 -79 OFFCURVE",
"281 -125 CURVE SMOOTH",
"281 -162 OFFCURVE",
"277 -198 OFFCURVE",
"267 -223 CURVE SMOOTH",
"256 -249 OFFCURVE",
"239 -266 OFFCURVE",
"214 -266 CURVE SMOOTH",
"203 -266 OFFCURVE",
"196 -256 OFFCURVE",
"196 -243 CURVE SMOOTH",
"196 -229 OFFCURVE",
"203 -199 OFFCURVE",
"212 -164 CURVE SMOOTH",
"221 -128 OFFCURVE",
"233 -88 OFFCURVE",
"244 -54 CURVE SMOOTH",
"249 -37 OFFCURVE",
"253 -22 OFFCURVE",
"257 -10 CURVE SMOOTH",
"261 3 OFFCURVE",
"264 12 OFFCURVE",
"266 16 CURVE"
);
}
);
width = 406;
}
);
note = q;
unicode = 0071;
},
{
glyphname = r;
lastChange = "2016-07-18 14:46:18 +0000";
layers = (
{
layerId = "ECEFE970-1BBB-4E0A-A452-CEB55884B4A3";
paths = (
{
closed = 1;
nodes = (
"63 76 OFFCURVE",
"65 51 OFFCURVE",
"74 32 CURVE SMOOTH",
"83 12 OFFCURVE",
"98 0 OFFCURVE",
"125 0 CURVE SMOOTH",
"136 0 OFFCURVE",
"146 4 OFFCURVE",
"154 14 CURVE SMOOTH",
"163 24 OFFCURVE",
"170 41 OFFCURVE",
"180 66 CURVE SMOOTH",
"267 310 LINE",
"275 310 LINE",
"280 269 OFFCURVE",
"287 227 OFFCURVE",
"305 195 CURVE SMOOTH",
"322 163 OFFCURVE",
"351 141 OFFCURVE",
"399 141 CURVE SMOOTH",
"427 141 OFFCURVE",
"454 150 OFFCURVE",
"478 162 CURVE SMOOTH",
"502 174 OFFCURVE",
"524 188 OFFCURVE",
"541 200 CURVE",
"548 314 LINE",
"534 302 OFFCURVE",
"519 291 OFFCURVE",
"503 282 CURVE SMOOTH",
"478 266 OFFCURVE",
"444 250 OFFCURVE",
"415 250 CURVE SMOOTH",
"405 250 OFFCURVE",
"395 253 OFFCURVE",
"388 263 CURVE",
"380 272 OFFCURVE",
"375 288 OFFCURVE",
"375 311 CURVE SMOOTH",
"375 325 OFFCURVE",
"379 347 OFFCURVE",
"383 369 CURVE SMOOTH",
"387 390 OFFCURVE",
"391 412 OFFCURVE",
"391 423 CURVE SMOOTH",
"391 437 OFFCURVE",
"385 449 OFFCURVE",
"376 457 CURVE SMOOTH",
"368 464 OFFCURVE",
"355 469 OFFCURVE",
"343 469 CURVE SMOOTH",
"307 469 OFFCURVE",
"280 447 OFFCURVE",
"259 419 CURVE SMOOTH",
"237 391 OFFCURVE",
"222 356 OFFCURVE",
"208 330 CURVE",
"203 330 LINE",
"203 347 OFFCURVE",
"202 364 OFFCURVE",
"202 381 CURVE SMOOTH",
"202 398 OFFCURVE",
"202 412 OFFCURVE",
"202 424 CURVE SMOOTH",
"202 444 OFFCURVE",
"202 456 OFFCURVE",
"197 462 CURVE",
"193 468 OFFCURVE",
"184 469 OFFCURVE",
"167 469 CURVE SMOOTH",
"152 469 OFFCURVE",
"143 468 OFFCURVE",
"136 463 CURVE SMOOTH",
"129 458 OFFCURVE",
"124 450 OFFCURVE",
"119 436 CURVE SMOOTH",
"110 414 OFFCURVE",
"102 379 OFFCURVE",
"93 340 CURVE SMOOTH",
"85 300 OFFCURVE",
"77 255 OFFCURVE",
"72 212 CURVE SMOOTH",
"66 170 OFFCURVE",
"63 131 OFFCURVE",
"63 102 CURVE SMOOTH"
);
}
);
width = 422;
}
);
note = r;
unicode = 0072;
},
{
glyphname = s;
lastChange = "2016-07-18 14:46:18 +0000";
layers = (
{
layerId = "ECEFE970-1BBB-4E0A-A452-CEB55884B4A3";
paths = (
{
closed = 1;
nodes = (
"44 185 OFFCURVE",
"41 182 OFFCURVE",
"35 178 CURVE SMOOTH",
"30 174 OFFCURVE",
"25 170 OFFCURVE",
"20 165 CURVE SMOOTH",
"9 154 OFFCURVE",
"0 141 OFFCURVE",
"0 125 CURVE SMOOTH",
"0 107 OFFCURVE",
"4 99 OFFCURVE",
"11 95 CURVE",
"17 90 OFFCURVE",
"27 90 OFFCURVE",
"37 90 CURVE SMOOTH",
"45 90 OFFCURVE",
"54 91 OFFCURVE",
"63 93 CURVE",
"67 58 OFFCURVE",
"83 33 OFFCURVE",
"108 18 CURVE SMOOTH",
"133 2 OFFCURVE",
"167 -4 OFFCURVE",
"206 -4 CURVE SMOOTH",
"259 -4 OFFCURVE",
"320 8 OFFCURVE",
"379 29 CURVE SMOOTH",
"437 50 OFFCURVE",
"492 78 OFFCURVE",
"532 109 CURVE",
"532 219 LINE",
"500 195 OFFCURVE",
"469 180 OFFCURVE",
"440 166 CURVE SMOOTH",
"411 152 OFFCURVE",
"383 141 OFFCURVE",
"360 125 CURVE",
"360 167 OFFCURVE",
"357 196 OFFCURVE",
"352 220 CURVE SMOOTH",
"347 243 OFFCURVE",
"342 260 OFFCURVE",
"337 276 CURVE SMOOTH",
"332 292 OFFCURVE",
"329 308 OFFCURVE",
"329 328 CURVE",
"330 332 OFFCURVE",
"333 337 OFFCURVE",
"340 345 CURVE",
"347 352 OFFCURVE",
"354 360 OFFCURVE",
"361 369 CURVE SMOOTH",
"376 386 OFFCURVE",
"391 406 OFFCURVE",
"391 422 CURVE SMOOTH",
"391 430 OFFCURVE",
"391 441 OFFCURVE",
"383 451 CURVE SMOOTH",
"375 461 OFFCURVE",
"360 469 OFFCURVE",
"329 469 CURVE SMOOTH",
"310 469 OFFCURVE",
"295 463 OFFCURVE",
"282 454 CURVE SMOOTH",
"270 445 OFFCURVE",
"259 434 OFFCURVE",
"250 422 CURVE",
"229 396 OFFCURVE",
"213 374 OFFCURVE",
"200 357 CURVE SMOOTH",
"187 339 OFFCURVE",
"176 325 OFFCURVE",
"167 313 CURVE SMOOTH",
"148 289 OFFCURVE",
"137 272 OFFCURVE",
"121 255 CURVE SMOOTH",
"104 238 OFFCURVE",
"83 219 OFFCURVE",
"47 188 CURVE"
);
},
{
closed = 1;
nodes = (
"238 240 OFFCURVE",
"243 225 OFFCURVE",
"247 208 CURVE SMOOTH",
"250 191 OFFCURVE",
"252 172 OFFCURVE",
"252 155 CURVE SMOOTH",
"252 135 OFFCURVE",
"249 115 OFFCURVE",
"239 102 CURVE SMOOTH",
"229 87 OFFCURVE",
"213 78 OFFCURVE",
"188 78 CURVE SMOOTH",
"178 78 OFFCURVE",
"168 81 OFFCURVE",
"160 85 CURVE SMOOTH",
"144 95 OFFCURVE",
"132 108 OFFCURVE",
"123 118 CURVE SMOOTH",
"118 123 OFFCURVE",
"113 125 OFFCURVE",
"109 125 CURVE",
"235 250 LINE"
);
}
);
width = 422;
}
);
note = s;
unicode = 0073;
},
{
glyphname = germandbls;
lastChange = "2016-07-18 14:46:18 +0000";
layers = (
{
layerId = "ECEFE970-1BBB-4E0A-A452-CEB55884B4A3";
paths = (
{
closed = 1;
nodes = (
"161 -5 OFFCURVE",
"161 9 OFFCURVE",
"161 25 CURVE SMOOTH",
"161 41 OFFCURVE",
"161 59 OFFCURVE",
"161 78 CURVE SMOOTH",
"161 134 OFFCURVE",
"162 200 OFFCURVE",
"167 267 CURVE SMOOTH",
"172 334 OFFCURVE",
"181 403 OFFCURVE",
"197 465 CURVE SMOOTH",
"213 527 OFFCURVE",
"237 583 OFFCURVE",
"271 622 CURVE SMOOTH",
"306 662 OFFCURVE",
"350 686 OFFCURVE",
"408 686 CURVE SMOOTH",
"440 686 OFFCURVE",
"469 678 OFFCURVE",
"489 665 CURVE SMOOTH",
"509 650 OFFCURVE",
"522 629 OFFCURVE",
"522 602 CURVE SMOOTH",
"522 561 OFFCURVE",
"503 527 OFFCURVE",
"471 504 CURVE SMOOTH",
"439 481 OFFCURVE",
"395 469 OFFCURVE",
"343 469 CURVE SMOOTH",
"320 469 OFFCURVE",
"308 465 OFFCURVE",
"301 456 CURVE SMOOTH",
"294 447 OFFCURVE",
"293 433 OFFCURVE",
"293 412 CURVE SMOOTH",
"293 399 OFFCURVE",
"296 390 OFFCURVE",
"302 382 CURVE SMOOTH",
"314 368 OFFCURVE",
"335 359 OFFCURVE",
"361 354 CURVE SMOOTH",
"374 352 OFFCURVE",
"387 350 OFFCURVE",
"400 347 CURVE",
"426 341 OFFCURVE",
"453 334 OFFCURVE",
"473 319 CURVE SMOOTH",
"493 303 OFFCURVE",
"506 278 OFFCURVE",
"506 239 CURVE SMOOTH",
"506 190 OFFCURVE",
"482 156 OFFCURVE",
"446 134 CURVE SMOOTH",
"409 113 OFFCURVE",
"360 103 OFFCURVE",
"309 103 CURVE SMOOTH",
"282 103 OFFCURVE",
"254 106 OFFCURVE",
"229 114 CURVE",
"216 25 LINE",
"257 10 OFFCURVE",
"297 1 OFFCURVE",
"334 1 CURVE SMOOTH",
"428 1 OFFCURVE",
"499 31 OFFCURVE",
"545 73 CURVE SMOOTH",
"592 116 OFFCURVE",
"616 171 OFFCURVE",
"616 222 CURVE SMOOTH",
"616 272 OFFCURVE",
"598 320 OFFCURVE",
"563 355 CURVE SMOOTH",
"527 390 OFFCURVE",
"473 413 OFFCURVE",
"402 413 CURVE",
"483 415 OFFCURVE",
"541 440 OFFCURVE",
"578 477 CURVE SMOOTH",
"615 513 OFFCURVE",
"631 559 OFFCURVE",
"631 605 CURVE SMOOTH",
"631 648 OFFCURVE",
"611 692 OFFCURVE",
"574 725 CURVE SMOOTH",
"536 758 OFFCURVE",
"480 780 OFFCURVE",
"407 780 CURVE SMOOTH",
"327 780 OFFCURVE",
"263 753 OFFCURVE",
"213 707 CURVE SMOOTH",
"164 660 OFFCURVE",
"127 594 OFFCURVE",
"100 516 CURVE SMOOTH",
"73 438 OFFCURVE",
"57 348 OFFCURVE",
"47 254 CURVE SMOOTH",
"37 160 OFFCURVE",
"33 61 OFFCURVE",
"31 -33 CURVE",
"32 -47 OFFCURVE",
"40 -59 OFFCURVE",
"52 -66 CURVE SMOOTH",
"63 -73 OFFCURVE",
"78 -77 OFFCURVE",
"93 -77 CURVE SMOOTH",
"110 -77 OFFCURVE",
"127 -73 OFFCURVE",
"140 -63 CURVE SMOOTH",
"153 -53 OFFCURVE",
"162 -39 OFFCURVE",
"162 -19 CURVE"
);
}
);
width = 625;
}
);
note = germandbls;
unicode = 00DF;
},
{
glyphname = t;
lastChange = "2016-07-18 14:46:18 +0000";
layers = (
{
layerId = "ECEFE970-1BBB-4E0A-A452-CEB55884B4A3";
paths = (
{
closed = 1;
nodes = (
"449 213 OFFCURVE",
"425 192 OFFCURVE",
"398 174 CURVE SMOOTH",
"372 155 OFFCURVE",
"344 139 OFFCURVE",
"320 128 CURVE SMOOTH",
"295 116 OFFCURVE",
"274 109 OFFCURVE",
"260 109 CURVE SMOOTH",
"238 109 OFFCURVE",
"220 116 OFFCURVE",
"208 131 CURVE SMOOTH",
"195 146 OFFCURVE",
"188 170 OFFCURVE",
"188 205 CURVE SMOOTH",
"188 219 OFFCURVE",
"189 235 OFFCURVE",
"189 253 CURVE SMOOTH",
"190 262 OFFCURVE",
"190 271 OFFCURVE",
"190 280 CURVE SMOOTH",
"191 289 OFFCURVE",
"191 297 OFFCURVE",
"191 306 CURVE SMOOTH",
"192 325 OFFCURVE",
"193 345 OFFCURVE",
"195 365 CURVE",
"211 385 OFFCURVE",
"231 412 OFFCURVE",
"250 438 CURVE",
"438 438 LINE SMOOTH",
"453 438 OFFCURVE",
"469 453 OFFCURVE",
"469 476 CURVE SMOOTH",
"469 495 OFFCURVE",
"463 509 OFFCURVE",
"450 509 CURVE SMOOTH",
"439 510 OFFCURVE",
"421 511 OFFCURVE",
"402 511 CURVE SMOOTH",
"392 512 OFFCURVE",
"382 512 OFFCURVE",
"372 513 CURVE SMOOTH",
"351 514 OFFCURVE",
"333 514 OFFCURVE",
"319 515 CURVE",
"312 515 OFFCURVE",
"307 515 OFFCURVE",
"304 515 CURVE",
"328 552 OFFCURVE",
"350 590 OFFCURVE",
"365 627 CURVE SMOOTH",
"381 664 OFFCURVE",
"391 700 OFFCURVE",
"391 732 CURVE SMOOTH",
"391 770 OFFCURVE",
"381 806 OFFCURVE",
"365 832 CURVE SMOOTH",
"349 858 OFFCURVE",
"325 875 OFFCURVE",
"297 875 CURVE SMOOTH",
"254 875 OFFCURVE",
"213 833 OFFCURVE",
"180 769 CURVE SMOOTH",
"146 705 OFFCURVE",
"119 619 OFFCURVE",
"101 531 CURVE",
"95 530 OFFCURVE",
"76 531 OFFCURVE",
"54 531 CURVE SMOOTH",
"32 532 OFFCURVE",
"7 532 OFFCURVE",
"-13 529 CURVE SMOOTH",
"-33 525 OFFCURVE",
"-47 520 OFFCURVE",
"-47 506 CURVE SMOOTH",
"-47 500 OFFCURVE",
"-47 492 OFFCURVE",
"-43 484 CURVE SMOOTH",
"-39 477 OFFCURVE",
"-31 471 OFFCURVE",
"-16 469 CURVE SMOOTH",
"2 467 OFFCURVE",
"16 465 OFFCURVE",
"25 464 CURVE SMOOTH",
"43 461 OFFCURVE",
"54 459 OFFCURVE",
"65 457 CURVE",
"70 456 OFFCURVE",
"78 455 OFFCURVE",
"87 453 CURVE",
"82 410 OFFCURVE",
"78 364 OFFCURVE",
"78 325 CURVE SMOOTH",
"78 225 OFFCURVE",
"91 144 OFFCURVE",
"116 87 CURVE SMOOTH",
"142 31 OFFCURVE",
"180 0 OFFCURVE",
"229 0 CURVE SMOOTH",
"253 0 OFFCURVE",
"282 9 OFFCURVE",
"320 27 CURVE SMOOTH",
"358 45 OFFCURVE",
"406 73 OFFCURVE",
"469 109 CURVE",
"469 234 LINE"
);
},
{
closed = 1;
nodes = (
"313 707 OFFCURVE",
"300 672 OFFCURVE",
"283 635 CURVE SMOOTH",
"266 598 OFFCURVE",
"244 557 OFFCURVE",
"224 524 CURVE",
"219 524 OFFCURVE",
"214 525 OFFCURVE",
"209 526 CURVE SMOOTH",
"204 526 OFFCURVE",
"199 527 OFFCURVE",
"194 527 CURVE",
"200 554 OFFCURVE",
"207 581 OFFCURVE",
"214 609 CURVE SMOOTH",
"228 665 OFFCURVE",
"244 713 OFFCURVE",
"261 743 CURVE SMOOTH",
"270 758 OFFCURVE",
"278 766 OFFCURVE",
"287 766 CURVE SMOOTH",
"299 766 OFFCURVE",
"305 760 OFFCURVE",
"309 752 CURVE SMOOTH",
"312 744 OFFCURVE",
"313 735 OFFCURVE",
"313 728 CURVE SMOOTH"
);
}
);
width = 391;
}
);
note = t;
unicode = 0074;
},
